<svg width="36" height="36" viewBox="0 0 36 36" fill="none" xmlns="http://www.w3.org/2000/svg">
<g clip-path="url(#clip0_16_20)">
<path d="M29.6034 9.40448C30.522 5.08275 28.3106 0.950972 24.6642 0.175893C21.0177 -0.599185 17.317 2.27594 16.3984 6.59767C15.4798 10.9194 17.6911 15.0512 21.3376 15.8263C24.9841 16.6013 28.6848 13.7262 29.6034 9.40448Z" fill="#805515"/>
<path d="M9.72408 14.6871V16.2661C7.31008 16.7911 4.34308 18.1171 3.89508 20.0071C2.49308 25.9191 2.87008 35.0811 2.87008 35.2121V35.3461C2.87008 36.0001 3.53308 36.0001 4.18608 36.0001H20.2831C20.9361 36.0001 21.5981 36.0001 21.5981 35.3461V20.0071C21.5981 18.2881 20.1851 16.5691 16.9661 16.1731V14.6871H9.72408Z" fill="#332200"/>
<path d="M26.2761 13.3031V16.2661C28.6901 16.7911 31.6571 18.1171 32.1051 20.0071C33.5061 25.9201 33.1301 35.0821 33.1301 35.2121V35.3461C33.1301 36.0001 32.4671 36.0001 31.8141 36.0001H15.7171C15.0641 36.0001 14.4021 36.0001 14.4021 35.3461V20.0071C14.4021 18.2881 15.8151 16.5691 19.0341 16.1731V14.6871L26.2761 13.3031Z" fill="#805515"/>
<path d="M14.6554 15.8253C18.3019 15.0502 20.5132 10.9185 19.5946 6.59674C18.676 2.27501 14.9753 -0.600113 11.3288 0.174965C7.68236 0.950044 5.471 5.08182 6.38961 9.40355C7.30822 13.7253 11.0089 16.6004 14.6554 15.8253Z" fill="#332200"/>
<path d="M19.0921 16.0881C17.7821 16.4691 15.6511 16.6341 13.1941 15.7061C10.6011 14.7261 8.21605 13.7621 7.28605 13.4381C6.44005 13.1431 4.28105 13.4051 3.80005 14.2861C3.31905 15.1671 3.04705 16.7711 4.23705 17.9451C5.42705 19.1191 11.6951 21.4361 13.4671 22.4781C14.3951 23.0241 14.3411 26.3011 14.3951 28.9771C14.4781 33.0201 21.7781 15.3071 19.0921 16.0881Z" fill="#805515"/>
<path d="M12.233 25.2832C13.564 25.5812 15.837 26.0942 18.232 25.0142C20.759 23.8742 22.944 22.2822 23.851 21.9012C24.677 21.5542 26.422 21.2182 27.383 22.5302C27.977 23.3402 28.29 24.9642 27.176 26.2092C26.061 27.4552 21.679 30.1282 18.437 30.9112C15.688 31.5752 11.47 31.5112 10.124 30.1182C8.02304 27.9432 10.405 24.8732 12.233 25.2832ZM24.991 17.2352C24.991 15.2832 26.715 14.2192 28.73 13.4382C29.565 13.1142 31.735 13.4052 32.216 14.2862C32.697 15.1672 32.969 16.7712 31.779 17.9452C30.589 19.1192 24.991 20.2392 24.991 17.2352Z" fill="#332200"/>
</g>
<defs>
<clipPath id="clip0_16_20">
<rect width="36" height="36" fill="white" transform="translate(0 0.00012207)"/>
</clipPath>
</defs>
</svg>
