<svg width="91" height="91" viewBox="0 0 91 91" fill="none" xmlns="http://www.w3.org/2000/svg">
<g opacity="0.25" clip-path="url(#clip0_16_27)">
<path d="M55.4481 50.899C54.5555 53.7461 52.5685 56.1219 49.9241 57.504C47.2798 58.886 44.1948 59.1609 41.3478 58.2683C38.5007 57.3757 36.1249 55.3887 34.7429 52.7444C33.3608 50.1001 33.0859 47.0151 33.9785 44.168C34.8711 41.321 36.8581 38.9451 39.5024 37.5631C42.1467 36.1811 45.2317 35.9062 48.0788 36.7987C50.9258 37.6913 53.3017 39.6783 54.6837 42.3227C56.0657 44.967 56.3407 48.052 55.4481 50.899Z" fill="#0F87B4"/>
<path d="M25.0077 20.1337C22.7301 19.4196 20.2621 19.6396 18.1466 20.7452C16.0312 21.8508 14.4416 23.7515 13.7275 26.0291L5.65026 51.7926C4.93618 54.0703 5.15615 56.5383 6.26175 58.6537C7.36736 60.7692 9.26805 62.3588 11.5457 63.0729L63.0727 79.2273C65.3503 79.9414 67.8183 79.7214 69.9338 78.6158C72.0493 77.5102 73.6389 75.6095 74.3529 73.3319L82.4302 47.5684C83.1442 45.2908 82.9243 42.8228 81.8187 40.7073C80.7131 38.5918 78.8124 37.0022 76.5347 36.2882L71.5023 34.7104C69.225 33.9959 67.3247 32.4061 66.2196 30.2906L63.7788 25.6206C62.6736 23.5052 60.7734 21.9153 58.4961 21.2008L48.4312 18.0453C46.1536 17.3318 43.6858 17.5522 41.5707 18.658L36.9007 21.0987C34.7856 22.2046 32.3178 22.425 30.0402 21.7115L25.0077 20.1337ZM24.4623 29.3946C23.8929 29.2161 23.4177 28.8187 23.1413 28.2899C22.8649 27.761 22.8099 27.144 22.9884 26.5746C23.1669 26.0052 23.5643 25.53 24.0932 25.2536C24.6221 24.9772 25.2391 24.9222 25.8085 25.1007C26.3779 25.2792 26.8531 25.6766 27.1295 26.2055C27.4059 26.7344 27.4609 27.3514 27.2823 27.9208C27.1038 28.4902 26.7064 28.9654 26.1776 29.2418C25.6487 29.5182 25.0317 29.5732 24.4623 29.3946ZM59.742 52.2453C58.4924 56.2311 55.7106 59.5573 52.0085 61.4922C48.3065 63.427 43.9875 63.8119 40.0016 62.5623C36.0157 61.3126 32.6895 58.5308 30.7547 54.8288C28.8199 51.1267 28.435 46.8077 29.6846 42.8218C30.9342 38.836 33.7161 35.5098 37.4181 33.575C41.1201 31.6402 45.4392 31.2552 49.425 32.5048C53.4109 33.7545 56.7371 36.5363 58.6719 40.2383C60.6067 43.9404 60.9917 48.2594 59.742 52.2453Z" fill="#0F87B4"/>
</g>
<defs>
<clipPath id="clip0_16_27">
<rect width="72" height="72" fill="white" transform="translate(21.8047 0.265625) rotate(17.407)"/>
</clipPath>
</defs>
</svg>
