<svg width="40" height="40" viewBox="0 0 40 40" fill="none" xmlns="http://www.w3.org/2000/svg">
<path d="M35.0001 15C33.1667 15 31.6667 16.5 31.6667 18.3333V25H8.33341V18.3333C8.33341 16.5 6.83341 15 5.00008 15C3.16675 15 1.66675 16.5 1.66675 18.3333V26.6667C1.66675 29.4167 3.91675 31.6667 6.66675 31.6667V33.3333C6.66675 34.25 7.41675 35 8.33341 35C9.25008 35 10.0001 34.25 10.0001 33.3333V31.6667H30.0001V33.3333C30.0001 34.25 30.7501 35 31.6667 35C32.5834 35 33.3334 34.25 33.3334 33.3333V31.6667C36.0834 31.6667 38.3334 29.4167 38.3334 26.6667V18.3333C38.3334 16.5 36.8334 15 35.0001 15Z" fill="#E4A30B"/>
<path d="M11.6667 18.3333V21.6667H28.3334V18.3333C28.3334 15.2333 30.4667 12.65 33.3334 11.9V10C33.3334 7.25 31.0834 5 28.3334 5H11.6667C8.91675 5 6.66675 7.25 6.66675 10V11.9C9.53341 12.65 11.6667 15.2333 11.6667 18.3333Z" fill="#E4A30B"/>
</svg>
