<svg width="64" height="81" viewBox="0 0 64 81" fill="none" xmlns="http://www.w3.org/2000/svg">
<g clip-path="url(#clip0_3_128)">
<path opacity="0.2" d="M50.1298 36.7694C46.6549 41.9791 42.6432 40.9013 41.2161 40.3095C41.8157 41.329 42.1484 42.4834 42.1834 43.6656C42.2185 44.8479 41.9547 46.0199 41.4165 47.0732C40.8783 48.1264 40.0831 49.0269 39.1045 49.6913C38.126 50.3556 36.9956 50.7623 35.8181 50.8738C34.6405 50.9853 33.4539 50.798 32.368 50.3291C31.2821 49.8602 30.3321 49.125 29.6058 48.1915C28.8795 47.2579 28.4004 46.1563 28.2129 44.9884C28.0254 43.8206 28.1356 42.6243 28.5332 41.5104C28.1363 42.6246 27.4647 43.6207 26.5807 44.4065C25.6966 45.1922 24.6286 45.7423 23.4756 46.0057C22.3225 46.2691 21.1216 46.2374 19.984 45.9135C18.8464 45.5896 17.8089 44.9839 16.9676 44.1526C16.1262 43.3213 15.5082 42.2911 15.1707 41.1575C14.8332 40.0239 14.7871 38.8235 15.0366 37.6673C15.2862 36.5112 15.8235 35.4367 16.5986 34.5432C17.3737 33.6498 18.3617 32.9664 19.4711 32.5562C17.9915 32.1116 14.2029 30.4082 14.8079 24.1752C15.4129 17.9421 16.7896 9.95212 22.4742 11.979C28.1588 14.0059 34.0431 26.057 31.9441 31.944C34.0431 26.057 46.2245 20.4473 51.9091 22.4741C57.5937 24.501 53.7006 31.4072 50.1298 36.7694Z" fill="#045A79"/>
<path d="M56.0566 24.4506C55.6908 23.3249 54.7703 21.8355 52.4339 21.0024C49.3617 19.907 44.6835 20.5821 39.9234 22.8246C38.5841 23.4535 37.2965 24.1869 36.0725 25.0181L38.1387 19.2231C38.2779 18.8328 38.2563 18.4031 38.0787 18.0287C37.9011 17.6543 37.582 17.3658 37.1917 17.2266C36.8014 17.0874 36.3717 17.109 35.9973 17.2866C35.6229 17.4642 35.3344 17.7832 35.1952 18.1736L33.129 23.9686C32.7069 22.5505 32.1738 21.1678 31.5345 19.8335C29.267 15.0853 26.0713 11.6027 22.999 10.5073C20.6626 9.67421 19.0075 10.2453 18.012 10.8856C16.1903 12.0401 14.1867 14.519 13.2484 24.0131C12.7988 28.705 14.5436 31.2555 16.2943 32.6262C15.1718 33.6074 14.3186 34.8592 13.8157 36.2628C13.2023 37.9831 13.1529 39.8542 13.6746 41.6045C14.1964 43.3548 15.2623 44.8933 16.7176 45.9969C18.1729 47.1005 19.942 47.7117 21.7682 47.7419C23.5944 47.7721 25.3827 47.2197 26.8737 46.1648C27.3609 47.925 28.3963 49.4842 29.8296 50.6162C31.2629 51.7482 33.0197 52.3941 34.8449 52.4602C36.6701 52.5264 38.4689 52.0092 39.9804 50.9839C41.4919 49.9586 42.6373 48.4783 43.2507 46.758C43.7492 45.3529 43.8805 43.8437 43.632 42.3736C45.855 42.4197 48.8198 41.5484 51.4402 37.6306C54.3992 33.1699 57.2777 28.1208 56.0566 24.4506ZM20.0737 44.3001C19.0224 43.9256 18.1108 43.2384 17.4613 42.3308C16.8118 41.4232 16.4556 40.3387 16.4404 39.2227C16.4253 38.1068 16.7519 37.0129 17.3764 36.088C18.001 35.1631 18.8936 34.4514 19.9343 34.0485L20.1025 33.984C21.0876 33.6435 22.1494 33.5905 23.1636 33.8313C23.5694 33.9239 23.9953 33.8529 24.3491 33.6336C24.7029 33.4143 24.956 33.0644 25.0535 32.6597C25.0993 32.4595 25.105 32.2522 25.0705 32.0497C25.036 31.8472 24.962 31.6535 24.8525 31.4797C24.7431 31.3058 24.6005 31.1553 24.4328 31.0366C24.2651 30.918 24.0757 30.8335 23.8754 30.7882C22.4266 30.4339 20.9095 30.4728 19.4807 30.9008C17.9485 30.313 15.931 28.702 16.3675 24.3373C16.5883 22.0314 17.2705 15.0587 19.6871 13.515C20.0628 13.2757 20.7169 13.0113 21.9495 13.4508C26.8982 15.2153 32.2369 26.4705 30.4724 31.4193L27.0615 40.9856C26.57 42.3486 25.5596 43.4619 24.2506 44.0828C22.9415 44.7037 21.4401 44.7818 20.0737 44.3001ZM48.8195 35.9082C46.3961 39.5645 43.8145 39.5356 42.256 39.0214C41.4204 37.786 40.2701 36.7961 38.924 36.1538C38.7401 36.0622 38.54 36.0077 38.3351 35.9936C38.1302 35.9794 37.9245 36.0057 37.7298 36.0711C37.5351 36.1365 37.3551 36.2396 37.2003 36.3746C37.0455 36.5096 36.9188 36.6738 36.8275 36.8578C36.6471 37.2329 36.6217 37.664 36.7569 38.0576C36.8921 38.4513 37.177 38.7758 37.5499 38.9608C38.4876 39.416 39.2764 40.1287 39.8239 41.0158L39.9133 41.1721C40.3653 41.969 40.6099 42.8667 40.6246 43.7827C40.6393 44.6988 40.4236 45.6039 39.9973 46.4149C39.571 47.2259 38.9478 47.9167 38.1849 48.4241C37.422 48.9314 36.5439 49.239 35.6311 49.3185C34.7184 49.398 33.8003 49.2469 32.9612 48.8791C32.1221 48.5113 31.3888 47.9386 30.8287 47.2135C30.2686 46.4885 29.8997 45.6343 29.7557 44.7295C29.6118 43.8247 29.6975 42.8982 30.0049 42.0351L33.4159 32.4688C35.1804 27.5201 46.4357 22.1814 51.3844 23.9459C52.617 24.3854 52.9563 25.004 53.0958 25.427C53.9906 28.1514 50.1074 33.9828 48.8195 35.9082Z" fill="#045A79"/>
</g>
<path d="M16 53.5C16 54.3284 15.3284 55 14.5 55C13.6716 55 13 54.3284 13 53.5C13 52.6716 13.6716 52 14.5 52C15.3284 52 16 52.6716 16 53.5Z" fill="#045A79"/>
<path d="M17 59C17 60.1046 16.1046 61 15 61C13.8954 61 13 60.1046 13 59C13 57.8954 13.8954 57 15 57C16.1046 57 17 57.8954 17 59Z" fill="#045A79"/>
<path d="M21 64C21 65.1046 20.1046 66 19 66C17.8954 66 17 65.1046 17 64C17 62.8954 17.8954 62 19 62C20.1046 62 21 62.8954 21 64Z" fill="#045A79"/>
<path d="M24 68.5C24 69.3284 23.3284 70 22.5 70C21.6716 70 21 69.3284 21 68.5C21 67.6716 21.6716 67 22.5 67C23.3284 67 24 67.6716 24 68.5Z" fill="#045A79"/>
<path d="M17 79.5C17 80.3284 16.3284 81 15.5 81C14.6716 81 14 80.3284 14 79.5C14 78.6716 14.6716 78 15.5 78C16.3284 78 17 78.6716 17 79.5Z" fill="#045A79"/>
<path d="M24 75.5C24 76.8807 22.8807 78 21.5 78C20.1193 78 19 76.8807 19 75.5C19 74.1193 20.1193 73 21.5 73C22.8807 73 24 74.1193 24 75.5Z" fill="#045A79"/>
<defs>
<clipPath id="clip0_3_128">
<rect width="50" height="50" fill="white" transform="translate(16.7922) rotate(19.6239)"/>
</clipPath>
</defs>
</svg>
