<svg width="64" height="81" viewBox="0 0 64 81" fill="none" xmlns="http://www.w3.org/2000/svg">
<g clip-path="url(#clip0_3_195)">
<path opacity="0.2" d="M13.7584 36.7693C17.2333 41.9791 21.245 40.9012 22.6721 40.3094C22.0725 41.329 21.7398 42.4833 21.7047 43.6656C21.6697 44.8479 21.9335 46.0199 22.4717 47.0731C23.0099 48.1264 23.805 49.0268 24.7836 49.6912C25.7622 50.3555 26.8926 50.7623 28.0701 50.8738C29.2476 50.9853 30.4343 50.7979 31.5202 50.329C32.606 49.8602 33.5561 49.1249 34.2824 48.1914C35.0087 47.2579 35.4878 46.1562 35.6753 44.9884C35.8628 43.8205 35.7526 42.6243 35.355 41.5103C35.7519 42.6245 36.4234 43.6206 37.3075 44.4064C38.1916 45.1922 39.2596 45.7422 40.4126 46.0056C41.5657 46.2691 42.7666 46.2374 43.9042 45.9134C45.0418 45.5895 46.0792 44.9839 46.9206 44.1525C47.7619 43.3212 48.38 42.2911 48.7175 41.1575C49.055 40.0238 49.1011 38.8234 48.8515 37.6673C48.6019 36.5111 48.0647 35.4366 47.2896 34.5432C46.5145 33.6498 45.5265 32.9663 44.4171 32.5561C45.8967 32.1115 49.6853 30.4082 49.0803 24.1751C48.4752 17.9421 47.0986 9.95206 41.414 11.9789C35.7294 14.0058 29.8451 26.057 31.9441 31.944C29.8451 26.057 17.6637 20.4472 11.9791 22.4741C6.29444 24.501 10.1876 31.4071 13.7584 36.7693Z" fill="#61440A"/>
<path d="M7.83159 24.4505C8.19742 23.3248 9.11786 21.8354 11.4543 21.0024C14.5265 19.9069 19.2047 20.582 23.9648 22.8246C25.304 23.4534 26.5917 24.1869 27.8157 25.018L25.7495 19.223C25.6103 18.8327 25.6319 18.4031 25.8095 18.0286C25.9871 17.6542 26.3061 17.3657 26.6965 17.2265C27.0868 17.0873 27.5164 17.1089 27.8909 17.2865C28.2653 17.4641 28.5538 17.7832 28.693 18.1735L30.7592 23.9685C31.1813 22.5504 31.7144 21.1678 32.3537 19.8335C34.6212 15.0852 37.8169 11.6026 40.8892 10.5072C43.2256 9.67415 44.8807 10.2452 45.8762 10.8856C47.6979 12.04 49.7015 14.5189 50.6398 24.013C51.0893 28.7049 49.3446 31.2554 47.5939 32.6261C48.7164 33.6074 49.5696 34.8592 50.0724 36.2628C50.6859 37.9831 50.7353 39.8541 50.2135 41.6044C49.6917 43.3547 48.6259 44.8932 47.1706 45.9968C45.7152 47.1004 43.9462 47.7116 42.12 47.7418C40.2938 47.772 38.5055 47.2196 37.0145 46.1647C36.5273 47.925 35.4919 49.4842 34.0586 50.6162C32.6252 51.7482 30.8685 52.3941 29.0433 52.4602C27.2181 52.5263 25.4193 52.0092 23.9078 50.9838C22.3963 49.9585 21.2508 48.4783 20.6375 46.7579C20.1389 45.3528 20.0077 43.8436 20.2562 42.3735C18.0332 42.4196 15.0684 41.5484 12.448 37.6305C9.48901 33.1699 6.61046 28.1207 7.83159 24.4505ZM43.8145 44.3C44.8658 43.9256 45.7774 43.2384 46.4269 42.3308C47.0763 41.4232 47.4326 40.3386 47.4477 39.2227C47.4629 38.1067 47.1363 37.0129 46.5117 36.0879C45.8872 35.163 44.9946 34.4513 43.9538 34.0484L43.7857 33.9839C42.8005 33.6434 41.7388 33.5904 40.7246 33.8313C40.3188 33.9239 39.8928 33.8528 39.5391 33.6335C39.1853 33.4142 38.9322 33.0643 38.8346 32.6597C38.7889 32.4594 38.7832 32.2521 38.8177 32.0496C38.8521 31.8471 38.9262 31.6534 39.0357 31.4796C39.1451 31.3058 39.2877 31.1552 39.4554 31.0366C39.623 30.9179 39.8125 30.8335 40.0128 30.7881C41.4616 30.4338 42.9787 30.4727 44.4074 30.9007C45.9397 30.313 47.9572 28.702 47.5207 24.3372C47.2998 22.0314 46.6177 15.0586 44.201 13.5149C43.8254 13.2756 43.1713 13.0112 41.9387 13.4507C36.9899 15.2152 31.6513 26.4705 33.4158 31.4192L36.8267 40.9856C37.3182 42.3485 38.3286 43.4618 39.6376 44.0828C40.9466 44.7037 42.4481 44.7818 43.8145 44.3ZM15.0687 35.9082C17.4921 39.5644 20.0737 39.5356 21.6322 39.0214C22.4678 37.786 23.6181 36.796 24.9642 36.1537C25.148 36.0621 25.3481 36.0077 25.5531 35.9935C25.758 35.9793 25.9637 36.0056 26.1584 36.071C26.3531 36.1364 26.533 36.2396 26.6879 36.3746C26.8427 36.5095 26.9694 36.6737 27.0607 36.8577C27.2411 37.2328 27.2665 37.6639 27.1313 38.0576C26.9961 38.4512 26.7111 38.7757 26.3383 38.9608C25.4005 39.4159 24.6118 40.1287 24.0643 41.0157L23.9749 41.172C23.5228 41.9689 23.2782 42.8666 23.2636 43.7827C23.2489 44.6988 23.4646 45.6038 23.8909 46.4148C24.3172 47.2258 24.9404 47.9167 25.7033 48.424C26.4662 48.9314 27.3443 49.2389 28.257 49.3184C29.1698 49.3979 30.0879 49.2469 30.927 48.8791C31.7661 48.5113 32.4994 47.9385 33.0595 47.2135C33.6196 46.4884 33.9885 45.6343 34.1325 44.7294C34.2764 43.8246 34.1907 42.8982 33.8832 42.0351L30.4723 32.4687C28.7078 27.52 17.4525 22.1814 12.5038 23.9458C11.2712 24.3853 10.9319 25.004 10.7924 25.4269C9.8976 28.1513 13.7808 33.9827 15.0687 35.9082Z" fill="#61440A"/>
</g>
<path d="M47.8882 53.4999C47.8882 54.3283 48.5598 54.9999 49.3882 54.9999C50.2166 54.9999 50.8882 54.3283 50.8882 53.4999C50.8882 52.6715 50.2166 51.9999 49.3882 51.9999C48.5598 51.9999 47.8882 52.6715 47.8882 53.4999Z" fill="#61440A"/>
<path d="M46.8882 58.9999C46.8882 60.1044 47.7836 60.9999 48.8882 60.9999C49.9928 60.9999 50.8882 60.1044 50.8882 58.9999C50.8882 57.8953 49.9928 56.9999 48.8882 56.9999C47.7836 56.9999 46.8882 57.8953 46.8882 58.9999Z" fill="#61440A"/>
<path d="M42.8882 63.9999C42.8882 65.1044 43.7836 65.9999 44.8882 65.9999C45.9928 65.9999 46.8882 65.1044 46.8882 63.9999C46.8882 62.8953 45.9928 61.9999 44.8882 61.9999C43.7836 61.9999 42.8882 62.8953 42.8882 63.9999Z" fill="#61440A"/>
<path d="M39.8882 68.4999C39.8882 69.3283 40.5598 69.9999 41.3882 69.9999C42.2166 69.9999 42.8882 69.3283 42.8882 68.4999C42.8882 67.6715 42.2166 66.9999 41.3882 66.9999C40.5598 66.9999 39.8882 67.6715 39.8882 68.4999Z" fill="#61440A"/>
<path d="M46.8882 79.4999C46.8882 80.3283 47.5598 80.9999 48.3882 80.9999C49.2166 80.9999 49.8882 80.3283 49.8882 79.4999C49.8882 78.6715 49.2166 77.9999 48.3882 77.9999C47.5598 77.9999 46.8882 78.6715 46.8882 79.4999Z" fill="#61440A"/>
<path d="M39.8882 75.4999C39.8882 76.8806 41.0075 77.9999 42.3882 77.9999C43.7689 77.9999 44.8882 76.8806 44.8882 75.4999C44.8882 74.1192 43.7689 72.9999 42.3882 72.9999C41.0075 72.9999 39.8882 74.1192 39.8882 75.4999Z" fill="#61440A"/>
<defs>
<clipPath id="clip0_3_195">
<rect width="50" height="50" fill="white" transform="matrix(-0.941917 0.335845 0.335845 0.941917 47.0959 -0.00012207)"/>
</clipPath>
</defs>
</svg>
