<svg width="34" height="32" viewBox="0 0 34 32" fill="none" xmlns="http://www.w3.org/2000/svg">
<path d="M30.6668 23.9167C31.5745 23.9167 32.3398 24.2334 32.9626 24.8667C33.5854 25.5001 33.8915 26.239 33.8809 27.0834L21.1668 31.8334L10.0834 28.6667V14.4167H13.1709L24.6818 18.6759C25.5051 19.0031 25.9168 19.5942 25.9168 20.4492C25.9168 20.9454 25.7373 21.3781 25.3784 21.7476C25.0195 22.117 24.5657 22.3123 24.0168 22.3334H19.5834L16.8126 21.2726L16.2901 22.7609L19.5834 23.9167H30.6668ZM24.3334 2.11425C25.4523 0.815915 26.8773 0.166748 28.6084 0.166748C30.044 0.166748 31.2579 0.694526 32.2501 1.75008C33.2423 2.80564 33.7701 4.01953 33.8334 5.39175C33.8334 6.47897 33.3057 7.7773 32.2501 9.28675C31.1945 10.7962 30.1548 12.0576 29.1309 13.0709C28.107 14.0842 26.5079 15.5884 24.3334 17.5834C22.1379 15.5884 20.5229 14.0842 19.4884 13.0709C18.454 12.0576 17.4143 10.7962 16.3693 9.28675C15.3243 7.7773 14.8123 6.47897 14.8334 5.39175C14.8334 3.95619 15.3454 2.7423 16.3693 1.75008C17.3932 0.757859 18.6282 0.230081 20.0743 0.166748C21.7632 0.166748 23.1829 0.815915 24.3334 2.11425ZM0.558105 14.4167H6.91677V31.8334H0.558105V14.4167Z" fill="#332200"/>
</svg>
