<svg width="40" height="41" viewBox="0 0 40 41" fill="none" xmlns="http://www.w3.org/2000/svg">
<path d="M40 20.4481C40 25.7525 37.8929 30.8395 34.1421 34.5903C30.3914 38.341 25.3043 40.4481 20 40.4481C14.6957 40.4481 9.60859 38.341 5.85786 34.5903C2.10714 30.8395 0 25.7525 0 20.4481C0 15.1438 2.10714 10.0567 5.85786 6.30598C9.60859 2.55526 14.6957 0.44812 20 0.44812C25.3043 0.44812 30.3914 2.55526 34.1421 6.30598C37.8929 10.0567 40 15.1438 40 20.4481V20.4481ZM20 9.19812C20 8.8666 19.8683 8.54866 19.6339 8.31424C19.3995 8.07982 19.0815 7.94812 18.75 7.94812C18.4185 7.94812 18.1005 8.07982 17.8661 8.31424C17.6317 8.54866 17.5 8.8666 17.5 9.19812V22.9481C17.5001 23.1685 17.5584 23.3848 17.669 23.5754C17.7796 23.7659 17.9387 23.9238 18.13 24.0331L26.88 29.0331C27.1671 29.1883 27.5036 29.225 27.8175 29.1354C28.1313 29.0458 28.3977 28.837 28.5596 28.5536C28.7216 28.2702 28.7662 27.9347 28.6841 27.6188C28.6019 27.3029 28.3995 27.0317 28.12 26.8631L20 22.2231V9.19812Z" fill="#E4A30B"/>
</svg>
