<svg width="35" height="35" viewBox="0 0 35 35" fill="none" xmlns="http://www.w3.org/2000/svg">
<path d="M34.2756 10.5719C34.2567 9.15177 33.9909 7.74581 33.49 6.41686C33.0557 5.29589 32.3923 4.27785 31.5422 3.42779C30.6921 2.57772 29.6741 1.91433 28.5531 1.47998C27.2413 0.987525 25.8553 0.721245 24.4544 0.692481C22.6506 0.611856 22.0788 0.589355 17.5 0.589355C12.9213 0.589355 12.3344 0.589356 10.5438 0.692481C9.14343 0.721457 7.75816 0.987733 6.44688 1.47998C5.32574 1.91402 4.30755 2.57731 3.45745 3.42742C2.60734 4.27752 1.94405 5.29571 1.51001 6.41686C1.01657 7.72773 0.750866 9.11331 0.724385 10.5137C0.64376 12.3194 0.619385 12.8912 0.619385 17.47C0.619385 22.0487 0.619385 22.6337 0.724385 24.4262C0.75251 25.8287 1.01688 27.2125 1.51001 28.5269C1.94478 29.6477 2.60856 30.6654 3.45895 31.5152C4.30934 32.3649 5.32763 33.0279 6.44876 33.4619C7.75645 33.9741 9.14196 34.2594 10.5456 34.3056C12.3513 34.3862 12.9231 34.4106 17.5019 34.4106C22.0806 34.4106 22.6675 34.4106 24.4581 34.3056C25.859 34.278 27.2451 34.0124 28.5569 33.52C29.6776 33.0851 30.6953 32.4216 31.5453 31.5716C32.3953 30.7216 33.0589 29.7038 33.4938 28.5831C33.9869 27.2706 34.2513 25.8869 34.2794 24.4825C34.36 22.6787 34.3844 22.1069 34.3844 17.5262C34.3806 12.9475 34.3806 12.3662 34.2756 10.5719ZM17.4888 26.1287C12.7 26.1287 8.82063 22.2494 8.82063 17.4606C8.82063 12.6719 12.7 8.79248 17.4888 8.79248C19.7877 8.79248 21.9925 9.70573 23.618 11.3313C25.2436 12.9569 26.1569 15.1617 26.1569 17.4606C26.1569 19.7595 25.2436 21.9643 23.618 23.5899C21.9925 25.2155 19.7877 26.1287 17.4888 26.1287ZM26.5019 10.4931C26.2364 10.4934 25.9734 10.4412 25.7281 10.3398C25.4828 10.2383 25.2598 10.0894 25.0721 9.90165C24.8844 9.71391 24.7355 9.49099 24.634 9.24565C24.5325 9.0003 24.4804 8.73736 24.4806 8.47186C24.4806 8.20654 24.5329 7.94383 24.6344 7.69872C24.736 7.4536 24.8848 7.23088 25.0724 7.04328C25.26 6.85568 25.4827 6.70686 25.7278 6.60533C25.9729 6.5038 26.2356 6.45154 26.5009 6.45154C26.7663 6.45154 27.029 6.5038 27.2741 6.60533C27.5192 6.70686 27.7419 6.85568 27.9295 7.04328C28.1171 7.23088 28.2659 7.4536 28.3675 7.69872C28.469 7.94383 28.5213 8.20654 28.5213 8.47186C28.5213 9.58936 27.6175 10.4931 26.5019 10.4931Z" fill="#332200"/>
<path d="M17.4888 23.0912C20.5985 23.0912 23.1194 20.5703 23.1194 17.4606C23.1194 14.3509 20.5985 11.83 17.4888 11.83C14.3791 11.83 11.8581 14.3509 11.8581 17.4606C11.8581 20.5703 14.3791 23.0912 17.4888 23.0912Z" fill="#332200"/>
</svg>
