<svg width="166" height="35" viewBox="0 0 166 35" fill="none" xmlns="http://www.w3.org/2000/svg">
<path d="M6.45201 28.952C7.22001 28.232 7.82001 27.356 8.25201 26.324C8.70801 25.292 8.93601 24.104 8.93601 22.76V0.799988H0.26001V3.64399H5.94801V22.652C5.94801 23.54 5.80401 24.332 5.51601 25.028C5.22801 25.724 4.84401 26.3 4.36401 26.756C3.86001 27.236 3.24801 27.608 2.52801 27.872C1.83201 28.136 1.07601 28.292 0.26001 28.34V31.184C1.48401 31.16 2.62401 30.956 3.68001 30.572C4.76001 30.188 5.68401 29.648 6.45201 28.952Z" fill="#023A4F"/>
<path d="M28.6117 26V23.156H25.8757V12.5H23.3917C23.3917 12.788 23.3677 13.088 23.3197 13.4C23.2957 13.688 23.2717 13.952 23.2477 14.192C23.0557 13.784 22.5757 13.352 21.8077 12.896C21.0397 12.416 19.9957 12.176 18.6757 12.176C17.6677 12.176 16.7197 12.368 15.8317 12.752C14.9437 13.136 14.1757 13.652 13.5277 14.3C12.8797 14.948 12.3637 15.704 11.9797 16.568C11.6197 17.432 11.4397 18.332 11.4397 19.268C11.4397 20.228 11.6197 21.14 11.9797 22.004C12.3637 22.844 12.8797 23.588 13.5277 24.236C14.1757 24.884 14.9437 25.4 15.8317 25.784C16.7197 26.144 17.6677 26.324 18.6757 26.324C19.3717 26.324 19.9957 26.24 20.5477 26.072C21.0997 25.928 21.5797 25.748 21.9877 25.532C22.3717 25.34 22.6717 25.148 22.8877 24.956C23.1037 24.764 23.2237 24.632 23.2477 24.56C23.2477 24.728 23.2477 24.848 23.2477 24.92C23.2477 24.992 23.2477 25.112 23.2477 25.28V26H28.6117ZM18.6757 15.092C19.2757 15.092 19.8157 15.188 20.2957 15.38C20.7997 15.572 21.2437 15.836 21.6277 16.172C22.0117 16.532 22.3117 16.976 22.5277 17.504C22.7677 18.032 22.8877 18.608 22.8877 19.232C22.8877 19.856 22.7677 20.432 22.5277 20.96C22.3117 21.488 21.9997 21.944 21.5917 22.328C21.2317 22.664 20.7997 22.928 20.2957 23.12C19.8157 23.312 19.2757 23.408 18.6757 23.408C18.1477 23.408 17.6557 23.336 17.1997 23.192C16.7437 23.024 16.3477 22.808 16.0117 22.544C15.5317 22.16 15.1477 21.68 14.8597 21.104C14.5957 20.528 14.4637 19.904 14.4637 19.232C14.4637 18.656 14.5477 18.128 14.7157 17.648C14.9077 17.168 15.1717 16.748 15.5077 16.388C15.8677 15.98 16.3237 15.668 16.8757 15.452C17.4277 15.212 18.0277 15.092 18.6757 15.092Z" fill="#023A4F"/>
<path d="M47.8312 35V32.156H45.5632V15.344H48.4432V12.5H43.0792C43.0552 12.836 43.0312 13.148 43.0072 13.436C42.9832 13.7 42.9592 13.952 42.9352 14.192C42.5992 13.736 42.0712 13.292 41.3512 12.86C40.6312 12.404 39.6352 12.176 38.3632 12.176C37.3552 12.176 36.4072 12.368 35.5192 12.752C34.6312 13.112 33.8632 13.616 33.2152 14.264C32.5672 14.912 32.0512 15.668 31.6672 16.532C31.3072 17.372 31.1272 18.272 31.1272 19.232C31.1272 20.192 31.3072 21.104 31.6672 21.968C32.0512 22.832 32.5672 23.588 33.2152 24.236C33.8632 24.884 34.6312 25.4 35.5192 25.784C36.4072 26.144 37.3552 26.324 38.3632 26.324C39.0112 26.324 39.5992 26.252 40.1272 26.108C40.6552 25.988 41.1112 25.832 41.4952 25.64C41.8792 25.448 42.1552 25.292 42.3232 25.172C42.4912 25.028 42.6112 24.908 42.6832 24.812C42.6352 24.956 42.5992 25.088 42.5752 25.208C42.5752 25.328 42.5752 25.448 42.5752 25.568V32.156H39.8392V35H47.8312ZM38.3632 15.092C38.9632 15.092 39.5032 15.188 39.9832 15.38C40.4872 15.572 40.9312 15.836 41.3152 16.172C41.6992 16.532 41.9992 16.976 42.2152 17.504C42.4552 18.032 42.5752 18.608 42.5752 19.232C42.5752 19.832 42.4672 20.384 42.2512 20.888C42.0592 21.392 41.7712 21.836 41.3872 22.22C41.0272 22.58 40.5832 22.868 40.0552 23.084C39.5512 23.3 38.9872 23.408 38.3632 23.408C37.8112 23.408 37.2952 23.324 36.8152 23.156C36.3592 22.988 35.9512 22.76 35.5912 22.472C35.1352 22.088 34.7752 21.62 34.5112 21.068C34.2712 20.516 34.1512 19.904 34.1512 19.232C34.1512 18.632 34.2472 18.08 34.4392 17.576C34.6552 17.048 34.9552 16.604 35.3392 16.244C35.6992 15.884 36.1312 15.608 36.6352 15.416C37.1632 15.2 37.7392 15.092 38.3632 15.092Z" fill="#023A4F"/>
<path d="M63.8433 22.544L63.7353 24.164V26H68.9553V23.48H66.7233V12.5H61.3593V15.344H63.7353V19.052C63.7353 19.676 63.6033 20.252 63.3393 20.78C63.0753 21.308 62.7273 21.764 62.2953 22.148C61.8633 22.532 61.3593 22.832 60.7833 23.048C60.2313 23.264 59.6433 23.372 59.0193 23.372C58.1073 23.324 57.4353 23.072 57.0033 22.616C56.5953 22.136 56.3673 21.572 56.3193 20.924V12.5H50.9553V15.344H53.3313V22.292C53.3793 23.492 53.8113 24.464 54.6273 25.208C55.4433 25.952 56.5593 26.324 57.9753 26.324C59.2713 26.324 60.4473 25.988 61.5033 25.316C62.5833 24.62 63.3633 23.696 63.8433 22.544Z" fill="#023A4F"/>
<path d="M78.6866 15.092C79.1906 15.092 79.6466 15.224 80.0546 15.488C80.4866 15.728 80.8706 16.052 81.2066 16.46C80.0786 16.868 78.9506 17.288 77.8226 17.72C76.7186 18.128 75.6026 18.536 74.4746 18.944C74.4986 18.44 74.5946 17.972 74.7626 17.54C74.9546 17.108 75.1946 16.724 75.4826 16.388C75.8666 15.98 76.3226 15.668 76.8506 15.452C77.4026 15.212 78.0146 15.092 78.6866 15.092ZM83.2586 24.416L81.4226 22.256C81.0626 22.64 80.6546 22.928 80.1986 23.12C79.7426 23.312 79.2386 23.408 78.6866 23.408C77.9426 23.408 77.2706 23.264 76.6706 22.976C76.0946 22.664 75.6266 22.256 75.2666 21.752C76.8986 21.152 78.5186 20.552 80.1266 19.952C81.7586 19.352 83.3906 18.752 85.0226 18.152C84.8066 17.288 84.4946 16.496 84.0866 15.776C83.6786 15.032 83.2106 14.396 82.6826 13.868C82.1306 13.34 81.5066 12.932 80.8106 12.644C80.1386 12.332 79.4306 12.176 78.6866 12.176C77.6786 12.176 76.7306 12.368 75.8426 12.752C74.9786 13.112 74.2226 13.604 73.5746 14.228C72.9266 14.876 72.4106 15.632 72.0266 16.496C71.6666 17.36 71.4866 18.272 71.4866 19.232C71.4866 20.216 71.6666 21.14 72.0266 22.004C72.4106 22.844 72.9266 23.588 73.5746 24.236C74.2226 24.884 74.9786 25.4 75.8426 25.784C76.7306 26.144 77.6786 26.324 78.6866 26.324C79.5986 26.324 80.4386 26.156 81.2066 25.82C81.9746 25.484 82.6586 25.016 83.2586 24.416Z" fill="#023A4F"/>
<path d="M107.199 26V23.156H103.095V14.768H104.607C104.943 14.768 105.195 14.768 105.363 14.768C105.555 14.744 105.819 14.732 106.155 14.732L111.447 26H116.703V23.156H113.319L109.287 14.516C111.015 14.132 112.323 13.34 113.211 12.14C114.123 10.94 114.579 9.43999 114.579 7.63999C114.579 6.41599 114.291 5.37199 113.715 4.50799C113.139 3.64399 112.419 2.93599 111.555 2.38399C110.691 1.83199 109.755 1.43599 108.747 1.19599C107.763 0.931988 106.863 0.799988 106.047 0.799988H98.4866V3.64399H100.107V23.156H98.4866V26H107.199ZM103.095 3.64399H106.263C107.007 3.64399 107.703 3.75199 108.351 3.96799C109.023 4.18399 109.599 4.47199 110.079 4.83199C110.535 5.21599 110.895 5.64799 111.159 6.12799C111.447 6.60799 111.591 7.11199 111.591 7.63999C111.591 8.09599 111.507 8.57599 111.339 9.07999C111.171 9.58399 110.883 10.04 110.475 10.448C110.067 10.856 109.515 11.204 108.819 11.492C108.147 11.756 107.283 11.888 106.227 11.888H103.095V3.64399Z" fill="#023A4F"/>
<path d="M131.577 24.236C132.225 23.588 132.729 22.844 133.089 22.004C133.473 21.14 133.665 20.216 133.665 19.232C133.665 18.272 133.473 17.36 133.089 16.496C132.729 15.632 132.225 14.876 131.577 14.228C130.929 13.604 130.161 13.112 129.273 12.752C128.385 12.368 127.437 12.176 126.429 12.176C125.421 12.176 124.473 12.368 123.585 12.752C122.721 13.112 121.965 13.604 121.317 14.228C120.669 14.876 120.153 15.632 119.769 16.496C119.409 17.36 119.229 18.272 119.229 19.232C119.229 20.24 119.409 21.164 119.769 22.004C120.153 22.844 120.669 23.588 121.317 24.236C121.965 24.884 122.721 25.4 123.585 25.784C124.473 26.144 125.421 26.324 126.429 26.324C127.437 26.324 128.385 26.144 129.273 25.784C130.161 25.4 130.929 24.884 131.577 24.236ZM123.441 22.184C123.057 21.824 122.757 21.392 122.541 20.888C122.325 20.384 122.217 19.844 122.217 19.268C122.217 18.692 122.325 18.152 122.541 17.648C122.757 17.144 123.057 16.7 123.441 16.316C123.801 15.932 124.233 15.632 124.737 15.416C125.241 15.2 125.781 15.092 126.357 15.092C126.933 15.092 127.473 15.2 127.977 15.416C128.481 15.632 128.925 15.932 129.309 16.316C129.693 16.7 129.993 17.144 130.209 17.648C130.425 18.152 130.533 18.692 130.533 19.268C130.533 19.844 130.425 20.384 130.209 20.888C129.993 21.392 129.693 21.824 129.309 22.184C128.925 22.568 128.481 22.868 127.977 23.084C127.473 23.3 126.933 23.408 126.357 23.408C125.781 23.408 125.241 23.3 124.737 23.084C124.233 22.868 123.801 22.568 123.441 22.184Z" fill="#023A4F"/>
<path d="M144.85 24.668C145.186 24.212 145.414 23.744 145.534 23.264C145.678 22.784 145.75 22.376 145.75 22.04C145.75 21.296 145.618 20.684 145.354 20.204C145.09 19.7 144.754 19.28 144.346 18.944C143.938 18.632 143.494 18.368 143.014 18.152C142.534 17.936 142.09 17.744 141.682 17.576C141.25 17.408 140.878 17.24 140.566 17.072C140.254 16.88 140.074 16.64 140.026 16.352C140.002 16.16 140.014 15.992 140.062 15.848C140.11 15.68 140.194 15.536 140.314 15.416C140.434 15.32 140.59 15.248 140.782 15.2C140.974 15.128 141.202 15.092 141.466 15.092C141.658 15.092 141.838 15.116 142.006 15.164C142.174 15.188 142.354 15.224 142.546 15.272V16.82H145.21V13.688C144.946 13.4 144.634 13.16 144.274 12.968C143.938 12.776 143.59 12.62 143.23 12.5C142.87 12.38 142.51 12.296 142.15 12.248C141.814 12.2 141.526 12.176 141.286 12.176C140.878 12.176 140.422 12.248 139.918 12.392C139.414 12.536 138.946 12.776 138.514 13.112C138.082 13.424 137.722 13.832 137.434 14.336C137.146 14.84 137.002 15.464 137.002 16.208C137.002 17.048 137.146 17.72 137.434 18.224C137.722 18.728 138.082 19.112 138.514 19.376C138.97 19.664 139.45 19.892 139.954 20.06C140.458 20.204 140.914 20.36 141.322 20.528C141.754 20.672 142.09 20.864 142.33 21.104C142.594 21.32 142.726 21.644 142.726 22.076C142.726 22.316 142.678 22.52 142.582 22.688C142.51 22.832 142.414 22.952 142.294 23.048C142.126 23.168 141.934 23.252 141.718 23.3C141.526 23.348 141.334 23.372 141.142 23.372C140.734 23.372 140.386 23.36 140.098 23.336C139.834 23.288 139.558 23.204 139.27 23.084V21.68H136.606V24.812C137.086 25.34 137.734 25.724 138.55 25.964C139.366 26.18 140.218 26.288 141.106 26.288C142.066 26.288 142.846 26.132 143.446 25.82C144.046 25.508 144.514 25.124 144.85 24.668Z" fill="#023A4F"/>
<path d="M165.299 26V23.156H162.563V12.5H160.079C160.079 12.788 160.055 13.088 160.007 13.4C159.983 13.688 159.959 13.952 159.935 14.192C159.743 13.784 159.263 13.352 158.495 12.896C157.727 12.416 156.683 12.176 155.363 12.176C154.355 12.176 153.407 12.368 152.519 12.752C151.631 13.136 150.863 13.652 150.215 14.3C149.567 14.948 149.051 15.704 148.667 16.568C148.307 17.432 148.127 18.332 148.127 19.268C148.127 20.228 148.307 21.14 148.667 22.004C149.051 22.844 149.567 23.588 150.215 24.236C150.863 24.884 151.631 25.4 152.519 25.784C153.407 26.144 154.355 26.324 155.363 26.324C156.059 26.324 156.683 26.24 157.235 26.072C157.787 25.928 158.267 25.748 158.675 25.532C159.059 25.34 159.359 25.148 159.575 24.956C159.791 24.764 159.911 24.632 159.935 24.56C159.935 24.728 159.935 24.848 159.935 24.92C159.935 24.992 159.935 25.112 159.935 25.28V26H165.299ZM155.363 15.092C155.963 15.092 156.503 15.188 156.983 15.38C157.487 15.572 157.931 15.836 158.315 16.172C158.699 16.532 158.999 16.976 159.215 17.504C159.455 18.032 159.575 18.608 159.575 19.232C159.575 19.856 159.455 20.432 159.215 20.96C158.999 21.488 158.687 21.944 158.279 22.328C157.919 22.664 157.487 22.928 156.983 23.12C156.503 23.312 155.963 23.408 155.363 23.408C154.835 23.408 154.343 23.336 153.887 23.192C153.431 23.024 153.035 22.808 152.699 22.544C152.219 22.16 151.835 21.68 151.547 21.104C151.283 20.528 151.151 19.904 151.151 19.232C151.151 18.656 151.235 18.128 151.403 17.648C151.595 17.168 151.859 16.748 152.195 16.388C152.555 15.98 153.011 15.668 153.563 15.452C154.115 15.212 154.715 15.092 155.363 15.092Z" fill="#023A4F"/>
</svg>
