<svg width="255" height="266" viewBox="0 0 255 266" fill="none" xmlns="http://www.w3.org/2000/svg">
<g clip-path="url(#clip0_4_22)">
<path d="M255 138.033C255.029 155.858 251.329 173.491 244.139 189.791C243.837 190.474 243.531 191.153 243.217 191.83C243.172 191.935 243.121 192.041 243.073 192.146C242.953 192.404 242.832 192.666 242.708 192.925C242.619 193.113 242.53 193.298 242.438 193.486C242.218 193.946 241.996 194.403 241.77 194.858C241.522 195.359 241.271 195.859 241.016 196.358C240.762 196.856 240.504 197.353 240.244 197.849C240.015 198.279 239.785 198.709 239.554 199.138C239.255 199.69 238.951 200.242 238.641 200.794C238.374 201.266 238.106 201.735 237.837 202.201C237.547 202.699 237.255 203.197 236.959 203.695L236.931 203.743C236.867 203.851 236.803 203.96 236.737 204.068C236.676 204.167 236.619 204.263 236.559 204.362C236.498 204.461 236.441 204.557 236.38 204.652V204.655C236.187 204.975 235.993 205.287 235.799 205.603L235.795 205.606C235.36 206.308 234.915 207.007 234.466 207.7C233.633 208.989 232.778 210.259 231.9 211.51C231.9 211.513 231.897 211.513 231.894 211.516C231.369 212.27 230.832 213.016 230.292 213.757C229.945 214.229 229.595 214.699 229.242 215.167C228.889 215.636 228.533 216.101 228.174 216.562C228.095 216.667 228.012 216.772 227.929 216.878C227.471 217.465 227.007 218.052 226.537 218.63C226.435 218.757 226.333 218.882 226.235 219.006C226.079 219.195 225.926 219.383 225.774 219.568C225.723 219.632 225.672 219.692 225.618 219.756C225.357 220.069 225.096 220.382 224.829 220.694V220.698C224.572 221.004 224.311 221.31 224.047 221.617C223.99 221.684 223.933 221.751 223.872 221.818C223.786 221.92 223.697 222.019 223.608 222.121C223.389 222.379 223.163 222.635 222.934 222.89C222.931 222.893 222.931 222.896 222.928 222.9L222.918 222.909V222.912C216.083 230.652 208.34 237.534 199.857 243.406C199.829 243.428 199.799 243.449 199.768 243.467C199.663 243.544 199.558 243.614 199.453 243.687C198.693 244.21 197.927 244.727 197.154 245.232C196.776 245.481 196.398 245.726 196.016 245.969V245.972C196.013 245.972 196.013 245.972 196.01 245.975H196.003L195.997 245.982L195.978 245.991C195.968 245.998 195.962 246.001 195.953 246.007C195.66 246.195 195.371 246.38 195.075 246.566C194.986 246.626 194.897 246.68 194.808 246.735C194.652 246.834 194.493 246.933 194.334 247.031C194.178 247.127 194.019 247.226 193.86 247.322C193.66 247.443 193.46 247.568 193.259 247.686C192.824 247.951 192.387 248.212 191.949 248.471C191.79 248.566 191.628 248.659 191.466 248.755C191.307 248.847 191.145 248.94 190.983 249.032C190.981 249.036 190.978 249.039 190.975 249.041C190.971 249.043 190.968 249.044 190.964 249.045L190.957 249.048L190.951 249.055H190.948C190.503 249.31 190.061 249.565 189.613 249.814L189.609 249.817C189.25 250.018 188.891 250.216 188.528 250.414C187.67 250.883 186.806 251.344 185.937 251.796C185.333 252.112 184.726 252.418 184.115 252.721C183.746 252.906 183.374 253.088 183.002 253.27C182.694 253.42 182.382 253.57 182.074 253.717C181.988 253.759 181.905 253.8 181.819 253.838C181.68 253.905 181.536 253.972 181.397 254.036C181.279 254.09 181.164 254.145 181.047 254.199C180.767 254.333 180.484 254.461 180.204 254.588C179.889 254.732 179.578 254.872 179.263 255.013C178.08 255.542 176.885 256.053 175.686 256.544C171.404 258.304 167.027 259.824 162.577 261.095C162.37 261.156 162.16 261.216 161.95 261.274C160.046 261.81 158.128 262.3 156.195 262.745C152.822 263.524 149.418 264.163 145.983 264.663C145.976 264.663 145.967 264.666 145.96 264.666C145.55 264.727 145.137 264.784 144.727 264.842C144.692 264.848 144.654 264.854 144.616 264.858C144.612 264.861 144.609 264.861 144.603 264.858H144.6C144.145 264.918 143.69 264.979 143.232 265.036C143.201 265.043 143.169 265.046 143.137 265.049C142.711 265.1 142.282 265.151 141.852 265.199C141.391 265.25 140.93 265.298 140.466 265.346H140.463C139.757 265.416 139.051 265.483 138.345 265.54C138.333 265.54 138.32 265.544 138.307 265.544C138.027 265.569 137.748 265.588 137.468 265.611H137.465C134.174 265.872 130.852 266.002 127.5 266C123.859 266 120.256 265.848 116.69 265.544C116.677 265.544 116.664 265.541 116.651 265.541C115.891 265.477 115.133 265.406 114.375 265.33C114.175 265.311 113.977 265.288 113.777 265.269C113.739 265.266 113.701 265.263 113.663 265.257C113.602 265.25 113.542 265.244 113.478 265.237C113.446 265.234 113.411 265.231 113.38 265.225C113.116 265.196 112.852 265.167 112.585 265.135C112.289 265.1 111.99 265.065 111.695 265.027C111.399 264.992 111.1 264.953 110.804 264.912C110.741 264.905 110.674 264.899 110.61 264.886C110.394 264.861 110.178 264.832 109.965 264.8C109.86 264.787 109.758 264.771 109.656 264.756C109.45 264.727 109.246 264.698 109.04 264.666C109.033 264.666 109.024 264.663 109.017 264.663C102.525 263.722 96.1151 262.272 89.8479 260.326H89.8447C89.5044 260.221 89.1642 260.112 88.824 260.004C88.7223 259.975 88.6205 259.943 88.5188 259.908C87.6349 259.624 86.7563 259.33 85.8829 259.027C84.6779 258.612 83.4813 258.178 82.2932 257.725C81.9689 257.601 81.6478 257.476 81.3235 257.352C80.678 257.097 80.0358 256.841 79.3966 256.58C78.3061 256.133 77.2229 255.672 76.1471 255.198H76.144V255.195C75.2951 254.818 74.4493 254.435 73.6099 254.036C73.4572 253.966 73.3046 253.896 73.152 253.822C73.1228 253.814 73.0949 253.801 73.0694 253.784C73.0662 253.784 73.0662 253.781 73.063 253.781C72.8436 253.679 72.6242 253.574 72.4048 253.468L72.3985 253.465C71.2761 252.926 70.1632 252.369 69.0599 251.796C67.6927 251.088 66.3372 250.354 64.9933 249.594C63.8805 248.965 62.7782 248.32 61.6866 247.657C60.3925 246.872 59.1122 246.064 57.8457 245.232C57.4514 244.973 57.0571 244.712 56.6629 244.447C56.3068 244.207 55.9538 243.968 55.6009 243.725C54.3545 242.87 53.124 241.993 51.9094 241.093C50.6535 240.164 49.4156 239.212 48.1958 238.236C46.606 236.966 45.048 235.66 43.5218 234.318C40.6761 231.822 37.947 229.201 35.3345 226.455C35.2518 226.368 35.1691 226.282 35.0864 226.193C34.8257 225.918 34.5682 225.644 34.3107 225.366C33.9355 224.964 33.5635 224.556 33.1946 224.147C32.5842 223.48 31.9843 222.806 31.395 222.124H31.3918V222.121C31.0325 221.709 30.6828 221.301 30.3267 220.886V220.883C30.2758 220.825 30.2281 220.768 30.1804 220.71C29.9547 220.446 29.7353 220.184 29.5159 219.916V219.913C29.217 219.558 28.9245 219.204 28.6384 218.847C28.5748 218.77 28.5143 218.697 28.4539 218.62H28.4508V218.617C28.2155 218.33 27.9834 218.039 27.7544 217.749C27.6368 217.605 27.5223 217.459 27.4079 217.312H27.4047V217.309C26.7115 216.431 26.0322 215.545 25.3666 214.65V214.647C25.1822 214.401 25.001 214.156 24.8229 213.907H24.8197C23.9676 212.752 23.1377 211.583 22.3301 210.4V210.396C22.0249 209.953 21.7228 209.506 21.424 209.056C21.1251 208.606 20.8294 208.155 20.5369 207.703H20.5337C20.2316 207.237 19.9327 206.769 19.637 206.299C19.6211 206.273 19.6053 206.251 19.5925 206.229C19.3 205.766 19.0117 205.3 18.7277 204.831C18.4987 204.458 18.273 204.087 18.0536 203.714C17.901 203.462 17.7516 203.213 17.6053 202.958C17.5513 202.872 17.5036 202.785 17.4559 202.702C17.1189 202.125 16.7882 201.547 16.4575 200.966C16.0728 200.283 15.6912 199.594 15.3192 198.905C15.1666 198.621 15.014 198.334 14.8645 198.046C14.8105 197.954 14.7628 197.861 14.7151 197.766C14.537 197.427 14.359 197.089 14.1841 196.748C14.0093 196.409 13.8344 196.068 13.6627 195.726C13.491 195.385 13.3193 195.044 13.1508 194.699C13.0236 194.44 12.8964 194.179 12.7724 193.92C12.7595 193.898 12.7478 193.876 12.7374 193.853C12.6802 193.732 12.6198 193.614 12.5657 193.493C12.553 193.474 12.5434 193.454 12.5371 193.432C12.4068 193.164 12.2796 192.899 12.1555 192.631C11.9902 192.286 11.8312 191.938 11.6723 191.591C11.5578 191.348 11.4497 191.102 11.3384 190.857C11.1795 190.512 11.0236 190.164 10.871 189.813C10.7088 189.453 10.553 189.089 10.3973 188.725C10.356 188.632 10.3178 188.543 10.2796 188.45C10.2065 188.284 10.1365 188.119 10.0666 187.953C9.87903 187.512 9.69461 187.065 9.51334 186.622C9.3067 186.121 9.10534 185.619 8.90926 185.116C8.72164 184.647 8.53934 184.176 8.36238 183.705L8.2956 183.533V183.53C5.53289 176.242 3.44257 168.715 2.05093 161.044V161.041C1.25743 156.661 0.692817 152.243 0.35941 147.804C0.340352 147.561 0.324439 147.319 0.308541 147.076C0.0987182 144.073 -0.00408752 141.059 0.000124323 138.032C0.000124323 136.689 0.0213203 135.352 0.0637143 134.021C0.88813 106.2 10.7694 79.4153 28.1964 57.764C28.9627 56.8099 29.7427 55.8674 30.5365 54.9366C31.4077 53.9154 32.2938 52.9081 33.1946 51.9145C33.8178 51.2252 34.4484 50.5444 35.0865 49.8721C35.0984 49.8586 35.1111 49.8458 35.1246 49.8338C35.1914 49.7604 35.2613 49.687 35.3345 49.6136C39.2261 45.523 43.3846 41.6968 47.7824 38.1604C48.2848 37.7519 48.7871 37.353 49.2959 36.9605C49.7473 36.6063 50.1989 36.2552 50.6535 35.9138C51.1813 35.5117 51.7123 35.1149 52.2465 34.7234C55.0286 32.6779 57.8934 30.7462 60.8408 28.9282C62.0713 28.1688 63.3155 27.4305 64.5736 26.7136C65.0315 26.4487 65.4956 26.1902 65.9598 25.9316C66.5894 25.5838 67.219 25.2392 67.8549 24.9041C86.7516 14.885 107.852 9.78673 129.221 10.0767C150.591 10.3666 171.546 16.0354 190.166 26.5635C190.255 26.6114 190.344 26.6624 190.43 26.7135C190.977 27.0263 191.52 27.339 192.061 27.6613C192.767 28.0762 193.467 28.4985 194.162 28.9282C197.673 31.0951 201.068 33.4236 204.35 35.9138C204.858 36.3 205.367 36.6892 205.87 37.085C206.324 37.4392 206.776 37.7998 207.224 38.1604C207.469 38.3583 207.717 38.5593 207.962 38.7604C213.331 43.1478 218.336 47.9653 222.928 53.1655L222.934 53.1719C223.004 53.2516 223.074 53.3282 223.141 53.408C223.36 53.6569 223.58 53.909 223.796 54.158C223.824 54.1898 223.853 54.225 223.882 54.2569C224.2 54.6239 224.515 54.994 224.829 55.3674C228.652 59.8966 232.157 64.6864 235.319 69.7023C236.495 71.5596 237.621 73.4509 238.695 75.3763C249.418 94.5027 255.035 116.086 255 138.033Z" fill="#3F3D56"/>
<path d="M217.198 7.87666L224.829 215.206V215.21C224.571 215.566 224.311 215.923 224.047 216.28C223.904 216.477 223.757 216.67 223.608 216.867C223.389 217.168 223.163 217.466 222.934 217.763C222.931 217.767 222.931 217.77 222.928 217.774L222.918 217.785V217.789C216.225 226.656 208.481 234.671 199.857 241.657V241.739L199.768 241.728C199.663 241.817 199.558 241.899 199.453 241.984C198.693 242.594 197.927 243.196 197.154 243.783C196.776 244.073 196.396 244.359 196.016 244.642V244.645C196.013 244.645 196.013 244.645 196.009 244.649H196.003L195.997 244.657L195.978 244.668C195.968 244.675 195.962 244.679 195.952 244.686C195.66 244.906 195.37 245.121 195.075 245.337C194.986 245.407 194.897 245.471 194.808 245.534C194.652 245.649 194.493 245.764 194.334 245.879C194.178 245.991 194.019 246.106 193.86 246.218C193.227 246.671 192.588 247.117 191.949 247.555C191.79 247.667 191.628 247.775 191.466 247.886C191.307 247.994 191.145 248.102 190.983 248.21V248.221L190.964 248.224L190.957 248.228L190.951 248.236H190.948C190.502 248.533 190.061 248.83 189.612 249.12L189.609 249.124C189.25 249.358 188.89 249.589 188.528 249.819C187.67 250.365 186.805 250.904 185.937 251.428C185.333 251.796 184.725 252.153 184.115 252.506C183.746 252.722 183.374 252.934 183.002 253.145C182.694 253.32 182.382 253.495 182.073 253.666C181.988 253.714 181.905 253.762 181.819 253.807C181.679 253.885 181.536 253.963 181.396 254.037H73.6096C73.457 253.956 73.3043 253.874 73.1517 253.788C73.122 253.778 73.0941 253.763 73.069 253.744C73.0659 253.744 73.0659 253.74 73.0627 253.74C72.8433 253.621 72.6239 253.498 72.4045 253.376L72.3982 253.372C71.2758 252.744 70.1629 252.096 69.0596 251.428C66.5573 249.919 64.0995 248.312 61.6863 246.608C60.3922 245.694 59.1119 244.752 57.8454 243.783C57.4511 243.482 57.0568 243.177 56.6626 242.869C56.3065 242.59 55.9535 242.311 55.6006 242.029C54.3542 241.033 53.1237 240.011 51.9092 238.963C50.6532 237.881 49.4153 236.772 48.1955 235.636C46.6057 234.157 45.0477 232.636 43.5215 231.072C40.6758 228.166 37.9467 225.113 35.3342 221.914C35.2515 221.814 35.1688 221.714 35.0862 221.61C34.4471 220.825 33.8165 220.031 33.1943 219.227L39.5534 7.87664C39.5475 6.59307 39.7816 5.31978 40.2434 4.1228C41.21 1.66987 43.0955 0.00109863 45.2607 0.00109863H211.491C213.685 0.00109863 215.589 1.71079 216.543 4.21573C216.575 4.29757 216.603 4.37933 216.632 4.46109C217.011 5.55946 217.202 6.71426 217.198 7.87666Z" fill="#3F3D56"/>
<path d="M60.6053 23.9585C65.3465 23.9585 69.1901 19.4657 69.1901 13.9236C69.1901 8.38146 65.3465 3.88867 60.6053 3.88867C55.864 3.88867 52.0205 8.38146 52.0205 13.9236C52.0205 19.4657 55.864 23.9585 60.6053 23.9585Z" fill="white"/>
<path d="M151.539 40.8182C137.066 44.6392 121.03 46.9634 104.724 47.5999C102.334 47.7305 99.9388 47.7142 97.5511 47.5509C92.304 47.108 87.8095 45.4528 82.8039 44.5482C80.3975 44.1146 77.7171 43.7976 75.2944 43.329C75.8542 42.6319 76.4241 41.9434 77.004 41.2635C82.2279 41.7064 87.5331 43.1565 92.8197 43.8302C101.806 44.9772 111.876 43.6973 118.688 40.5408C121.994 39.0091 124.525 37.0974 127.819 35.5588C128.267 35.328 128.752 35.1788 129.252 35.1182C130.295 35.0226 131.21 35.4446 131.956 35.8223C137.482 38.6221 145.505 40.8974 152.951 39.6455C153.506 40.0815 152.452 40.5781 151.539 40.8182Z" fill="white"/>
<path d="M148.737 75.7932C148.83 75.7761 148.924 75.7628 149.017 75.7466C148.625 75.503 148.256 75.2242 147.915 74.9136L148.737 75.7932Z" fill="white"/>
<path d="M209.759 83.3547C205.502 83.6961 201.222 83.9504 196.92 84.1174C193.649 84.2946 190.37 84.2722 187.102 84.0504C179.919 83.4408 173.766 81.1783 166.915 79.9401C160.635 78.8072 153.004 78.2615 149.017 75.7468C159.322 73.9566 169.999 77.6009 180.625 78.9572C189.22 80.018 197.933 79.5862 206.382 77.6807C207.559 79.538 208.684 81.4293 209.759 83.3547Z" fill="white"/>
<path d="M121.077 160.154V157.097C121.077 155.929 120.631 154.805 119.833 153.956C119.034 153.107 117.942 152.596 116.78 152.529V140.591H115.769V152.515H111.219V160.127H89.7317V247.658H137.256V177.314C137.255 172.92 135.579 168.693 132.57 165.502C129.561 162.31 125.448 160.397 121.077 160.154Z" fill="#2F2E41"/>
<path d="M103.888 172.559H97.5681V177.633H103.888V172.559Z" fill="white"/>
<path d="M114.252 172.559H107.932V177.633H114.252V172.559Z" fill="white"/>
<path d="M124.616 172.559H118.297V177.633H124.616V172.559Z" fill="white"/>
<path d="M103.888 185.498H97.5681V190.572H103.888V185.498Z" fill="white"/>
<path d="M114.252 185.498H107.932V190.572H114.252V185.498Z" fill="white"/>
<path d="M124.616 185.498H118.297V190.572H124.616V185.498Z" fill="white"/>
<path d="M103.888 198.438H97.5681V203.512H103.888V198.438Z" fill="white"/>
<path d="M114.252 198.438H107.932V203.512H114.252V198.438Z" fill="white"/>
<path d="M124.616 198.438H118.297V203.512H124.616V198.438Z" fill="white"/>
<path d="M103.888 211.377H97.5681V216.451H103.888V211.377Z" fill="white"/>
<path d="M114.252 211.377H107.932V216.451H114.252V211.377Z" fill="white"/>
<path d="M124.616 211.377H118.297V216.451H124.616V211.377Z" fill="white"/>
<path d="M103.888 224.316H97.5681V229.391H103.888V224.316Z" fill="white"/>
<path d="M114.252 224.316H107.932V229.391H114.252V224.316Z" fill="white"/>
<path d="M124.616 224.316H118.297V229.391H124.616V224.316Z" fill="white"/>
<path d="M103.888 237.256H97.5681V242.33H103.888V237.256Z" fill="white"/>
<path d="M114.252 237.256H107.932V242.33H114.252V237.256Z" fill="white"/>
<path d="M124.616 237.256H118.297V242.33H124.616V237.256Z" fill="white"/>
<path d="M91.0433 134.688V247.657H61.6865C60.3924 246.872 59.1121 246.064 57.8456 245.232C57.4513 244.973 57.0571 244.711 56.6628 244.447C56.3067 244.207 55.9538 243.968 55.6008 243.725C54.3544 242.87 53.124 241.993 51.9094 241.093C50.6535 240.164 49.4156 239.212 48.1957 238.236C46.6059 236.966 45.0479 235.66 43.5217 234.318V117.5H51.9889V103.928H60.5832V90.9878H61.5942V103.928H67.8993C69.1102 103.928 70.2715 104.411 71.1277 105.27C71.984 106.13 72.4651 107.295 72.4652 108.511V117.5H73.9182C77.6105 117.501 81.204 118.698 84.1632 120.914C87.1225 123.13 89.2892 126.247 90.3406 129.799C90.5236 130.425 90.6722 131.06 90.7857 131.701C90.9571 132.688 91.0433 133.687 91.0433 134.688Z" fill="#2F2E41"/>
<path d="M77.5202 127.778H57.0444V129.3H77.5202V127.778Z" fill="white"/>
<path d="M77.5202 137.166H57.0444V138.688H77.5202V137.166Z" fill="white"/>
<path d="M77.5202 146.553H57.0444V148.075H77.5202V146.553Z" fill="white"/>
<path d="M77.5202 155.94H57.0444V157.462H77.5202V155.94Z" fill="white"/>
<path d="M77.5202 165.328H57.0444V166.85H77.5202V165.328Z" fill="white"/>
<path d="M77.5202 174.715H57.0444V176.237H77.5202V174.715Z" fill="white"/>
<path d="M77.5202 184.103H57.0444V185.625H77.5202V184.103Z" fill="white"/>
<path d="M77.5202 193.49H57.0444V195.012H77.5202V193.49Z" fill="white"/>
<path d="M77.5202 202.877H57.0444V204.4H77.5202V202.877Z" fill="white"/>
<path d="M77.5202 212.265H57.0444V213.787H77.5202V212.265Z" fill="white"/>
<path d="M77.5202 221.652H57.0444V223.175H77.5202V221.652Z" fill="white"/>
<path d="M77.5202 231.04H57.0444V232.562H77.5202V231.04Z" fill="white"/>
<path d="M65.3863 106.72H59.0667V111.794H65.3863V106.72Z" fill="white"/>
<path d="M216.632 4.46131C216.604 4.37826 216.575 4.29848 216.543 4.21559C215.589 1.71046 213.685 0 211.491 0H45.2609C43.0957 0 41.2102 1.669 40.2436 4.12302C39.782 5.3197 39.548 6.59264 39.5537 7.87588L33.1946 224.147C33.5634 224.556 33.9354 224.964 34.3106 225.366C34.5681 225.644 34.8257 225.918 35.0864 226.193L41.4455 7.87589C41.4439 7.25719 41.5252 6.64109 41.6871 6.04413C41.6877 6.03427 41.6899 6.02457 41.6935 6.01539C42.2404 4.03046 43.633 2.61678 45.2609 2.61678H211.491C211.881 2.6173 212.266 2.69879 212.623 2.85612C214.111 3.49436 215.208 5.35167 215.297 7.58224C215.3 7.68119 215.303 7.77694 215.303 7.87588L222.934 217.762C223.163 217.465 223.389 217.168 223.608 216.868C223.691 216.76 223.77 216.651 223.85 216.546C223.917 216.456 223.983 216.37 224.047 216.281C224.311 215.924 224.572 215.566 224.829 215.209V215.206L217.198 7.8759C217.203 6.71383 217.011 5.55937 216.632 4.46131ZM69.0598 251.796C70.1631 252.37 71.276 252.927 72.3984 253.465L72.4047 253.468C72.6241 253.573 72.8435 253.679 73.0629 253.781C73.0661 253.781 73.0661 253.784 73.0693 253.784C73.0949 253.801 73.1227 253.814 73.1519 253.822C73.3046 253.896 73.4572 253.966 73.6098 254.036H181.396C181.536 253.972 181.679 253.905 181.819 253.838C181.905 253.8 181.988 253.759 182.074 253.717C182.382 253.57 182.694 253.42 183.002 253.27C183.374 253.088 183.746 252.906 184.115 252.721C184.725 252.418 185.333 252.112 185.937 251.796H69.0598Z" fill="#2F2E41"/>
<path d="M216.25 26.7128H40.4995V28.9275H216.25V26.7128Z" fill="#2F2E41"/>
<path d="M218.67 54.1572H38.708V56.372H218.67V54.1572Z" fill="#2F2E41"/>
<path d="M67.8544 97.134H65.9597L72.3188 0.994385H74.2135L67.8544 97.134Z" fill="#2F2E41"/>
<path d="M192.061 97.7723H190.167L182.536 0.994385H184.43L192.061 97.7723Z" fill="#2F2E41"/>
<path d="M219.624 94.5415H39.0259V100.88H219.624V94.5415Z" fill="#2F2E41"/>
<path d="M129.651 91.0442H131.545C132.001 91.0442 132.453 91.1344 132.875 91.3096C133.296 91.4848 133.679 91.7416 134.002 92.0653C134.324 92.3891 134.58 92.7734 134.754 93.1964C134.929 93.6193 135.019 94.0727 135.019 94.5305H126.177C126.177 93.6059 126.543 92.7191 127.194 92.0653C127.846 91.4115 128.729 91.0442 129.651 91.0442V91.0442Z" fill="#2F2E41"/>
<path d="M65.4161 244.249C62.5545 247.121 62.7771 248.318 61.6865 247.657C60.3924 246.872 59.1121 246.063 57.8456 245.232C57.4513 244.973 57.057 244.711 56.6628 244.447C56.3067 244.207 55.9537 243.968 55.6008 243.725C54.3544 242.87 53.1239 241.993 51.9093 241.093C50.6534 240.164 49.4155 239.212 48.1956 238.236C46.6059 236.966 45.0479 235.66 43.5217 234.318C40.676 231.822 37.9469 229.201 35.3343 226.455C35.2517 226.368 35.169 226.282 35.0863 226.193C34.8256 225.918 34.5681 225.644 34.3105 225.366L35.6046 220.675L37.1944 152.304L37.2898 131.701L37.2961 129.799L38.7079 100.006L38.7174 98.1041L39.5377 57.9364L39.5441 56.3727L39.5568 54.158L35.1245 49.8339L41.579 28.9283L41.5885 26.7136L41.6871 6.04418L41.6934 4.35603C45.0606 1.27966 49.8267 0.676567 55.6548 1.21905C55.9441 1.2478 56.2399 1.27655 56.5356 1.3084L56.615 2.61683L56.7613 4.94954V4.95282L57.9059 23.4491V23.4554L58.1094 26.7137L58.2461 28.9283L58.6055 34.7236L53.4482 54.1581L53.5849 56.3727L54.5801 72.4308L54.7169 74.6456L54.9998 79.2154L56.1699 98.1042L56.2875 100.006L56.5292 103.928L56.8312 108.779L56.8662 109.344L57.0029 111.558L57.3972 117.922L57.5053 119.696L58.0045 127.779L58.0713 128.858L58.0999 129.301L58.1317 129.799L58.1826 130.629L58.2494 131.701L58.4878 135.55L58.5864 137.165L58.6818 138.687L58.7486 139.788L58.8598 141.562L58.9457 142.934L59.1683 146.553L59.2637 148.075L59.4258 150.721L59.5244 152.304L59.5371 152.495L59.7501 155.942L59.8455 157.464L59.9154 158.641L60.103 161.657L60.2143 163.428L60.332 165.327L60.4242 166.849L60.7803 172.587L60.8884 174.361L60.9107 174.715L61.006 176.238L61.4575 183.52L61.4925 184.104L61.5656 185.294L61.5847 185.626L62.0743 193.489L62.1347 194.453L62.1697 195.012L62.2429 196.227L62.6562 202.878L62.7516 204.4L62.812 205.386L62.9201 207.161L63.2349 212.266L63.3303 213.789L63.4861 216.322L63.5974 218.094L63.8167 221.652L63.9121 223.174L64.1633 227.252L64.2746 229.023L64.3445 231.04L64.3986 232.562L65.4161 244.249Z" fill="#E1AD1E"/>
<path d="M223.872 221.818C223.786 221.92 223.697 222.019 223.608 222.121C223.389 222.379 223.163 222.635 222.934 222.89C222.931 222.893 222.931 222.896 222.928 222.9L222.918 222.909V222.912C216.083 230.652 208.339 237.534 199.857 243.406C199.828 243.428 199.799 243.449 199.768 243.467C199.663 243.544 199.558 243.614 199.453 243.687C198.693 244.21 197.927 244.727 197.154 245.232C196.776 245.481 196.397 245.726 196.016 245.969V245.972C196.013 245.972 196.013 245.972 196.01 245.975H196.003L195.997 245.982L195.978 245.991C195.968 245.998 195.962 246.001 195.952 246.007C195.66 246.195 195.37 246.38 195.075 246.566C194.986 246.626 194.897 246.68 194.808 246.735C194.652 246.834 194.493 246.933 194.334 247.031C194.178 247.127 194.019 247.226 193.86 247.322C193.66 247.443 193.46 247.568 193.259 247.686L193.272 246.633L193.291 245.232L193.383 238.792L193.701 233.648L195.587 203.2L195.886 198.382L195.952 197.297L196.801 183.597L197.091 178.893L197.749 168.298L198.044 163.479L198.334 158.823L198.347 158.641L198.372 158.207L198.388 157.942V157.939L198.725 152.533L198.738 152.304L198.976 148.481V148.474L199.316 142.934L199.533 139.456L199.774 135.55L199.968 132.419L200.013 131.701L200.13 129.799L200.137 129.723L200.868 117.883L201.059 114.797V114.794L201.259 111.558L201.396 109.344L201.679 104.818L201.978 100.006L202.095 98.1041L202.512 91.3515V91.3483L202.744 87.589L202.976 83.8234L203.319 78.3154L203.545 74.6455L203.682 72.4308L204.674 56.3727L204.718 55.6769L204.814 54.158L205.135 48.9627L198.238 37.085L198.744 28.9282L198.881 26.7136L200.331 3.31559L200.375 2.61673L200.455 1.30831C206.68 0.622228 211.758 1.12639 215.297 4.35592L215.395 26.7136L215.405 28.9282L217.417 53.408L217.421 54.158L217.43 56.3727L218.247 98.1041L218.257 100.006L219.656 129.799L219.665 131.701L220.39 152.304L220.419 158.641L223.85 216.546L223.872 221.818Z" fill="#E1AD1E"/>
<path d="M197.154 245.232C196.776 245.481 196.398 245.726 196.016 245.969V245.972C196.013 245.972 196.013 245.972 196.01 245.975H196.003L195.997 245.982L195.978 245.991C195.968 245.998 195.962 246.001 195.953 246.007C195.66 246.195 195.371 246.38 195.075 246.566C194.986 246.626 194.897 246.68 194.808 246.735C194.652 246.834 194.493 246.933 194.334 247.031C194.178 247.127 194.019 247.226 193.86 247.322C193.66 247.443 193.46 247.568 193.26 247.686C192.824 247.951 192.387 248.212 191.95 248.471C191.791 248.566 191.628 248.659 191.466 248.755C191.307 248.847 191.145 248.94 190.983 249.032V249.042L190.964 249.045L190.957 249.048L190.951 249.055H190.948C190.503 249.31 190.061 249.565 189.613 249.814L189.609 249.817C189.25 250.018 188.891 250.216 188.528 250.414C187.67 250.883 186.806 251.344 185.937 251.796C185.333 252.112 184.726 252.418 184.115 252.721C183.746 252.906 183.374 253.088 183.002 253.27C182.694 253.42 182.382 253.57 182.074 253.717C181.988 253.759 181.905 253.8 181.819 253.838C181.68 253.905 181.536 253.972 181.397 254.036C181.279 254.09 181.164 254.145 181.047 254.199C180.767 254.333 180.484 254.461 180.204 254.588C179.889 254.732 179.578 254.872 179.263 255.013C178.08 255.542 176.885 256.053 175.686 256.544C171.404 258.304 167.027 259.824 162.577 261.095C162.37 261.156 162.16 261.216 161.95 261.274C160.046 261.81 158.128 262.3 156.195 262.745C152.822 263.524 149.418 264.163 145.983 264.663C145.976 264.663 145.967 264.666 145.961 264.666C145.55 264.727 145.137 264.784 144.727 264.842C144.692 264.848 144.654 264.854 144.616 264.858C144.612 264.861 144.609 264.861 144.603 264.858H144.6C144.145 264.918 143.69 264.979 143.232 265.036C143.201 265.043 143.169 265.046 143.137 265.049C142.711 265.1 142.282 265.151 141.853 265.199C141.391 265.25 140.93 265.298 140.466 265.346H140.463C139.757 265.416 139.051 265.483 138.345 265.54C138.333 265.54 138.32 265.544 138.307 265.544C138.028 265.569 137.748 265.588 137.468 265.611H137.465C134.174 265.872 130.852 266.002 127.5 266C123.86 266 120.256 265.848 116.69 265.544C116.677 265.544 116.664 265.54 116.651 265.54C115.892 265.477 115.133 265.406 114.375 265.33C114.175 265.311 113.977 265.288 113.777 265.269C113.739 265.266 113.701 265.263 113.663 265.257C113.602 265.25 113.542 265.244 113.478 265.237C113.446 265.234 113.411 265.231 113.38 265.225C113.116 265.196 112.852 265.167 112.585 265.135C112.289 265.1 111.99 265.065 111.695 265.027C111.399 264.992 111.1 264.953 110.804 264.912C110.741 264.905 110.674 264.899 110.61 264.886C110.394 264.861 110.178 264.832 109.965 264.8C109.86 264.787 109.758 264.771 109.656 264.756C109.45 264.727 109.246 264.698 109.04 264.666C109.033 264.666 109.024 264.663 109.017 264.663C102.525 263.722 96.1151 262.272 89.8479 260.326H89.8447C89.5045 260.221 89.1643 260.112 88.8241 260.004C88.7223 259.975 88.6206 259.943 88.5188 259.908C87.6349 259.624 86.7563 259.33 85.883 259.027C84.678 258.612 83.4814 258.178 82.2933 257.725C81.969 257.601 81.6478 257.476 81.3235 257.352C80.6781 257.097 80.0358 256.841 79.3967 256.58C78.3061 256.133 77.223 255.672 76.1472 255.198H76.144V255.195C75.2951 254.818 74.4493 254.435 73.6099 254.036C73.4573 253.966 73.3047 253.896 73.1521 253.822C73.1228 253.814 73.095 253.801 73.0694 253.784C73.0662 253.784 73.0662 253.781 73.063 253.781C72.8436 253.679 72.6243 253.573 72.4049 253.468L72.3985 253.465C71.2761 252.926 70.1633 252.369 69.06 251.796C67.6928 251.088 66.3372 250.354 64.9934 249.594C63.8805 248.965 62.7783 248.32 61.6866 247.657C60.3925 246.872 59.1122 246.064 57.8457 245.232H197.154Z" fill="#2F2E41"/>
<path d="M81.9081 17.2686C82.2593 17.2686 82.544 16.9358 82.544 16.5253C82.544 16.1148 82.2593 15.782 81.9081 15.782C81.5569 15.782 81.2722 16.1148 81.2722 16.5253C81.2722 16.9358 81.5569 17.2686 81.9081 17.2686Z" fill="white"/>
<path d="M120.545 18.1905C120.897 18.1905 121.181 17.8577 121.181 17.4472C121.181 17.0367 120.897 16.7039 120.545 16.7039C120.194 16.7039 119.909 17.0367 119.909 17.4472C119.909 17.8577 120.194 18.1905 120.545 18.1905Z" fill="white"/>
<path d="M144.392 18.9338C144.743 18.9338 145.028 18.601 145.028 18.1905C145.028 17.7799 144.743 17.4471 144.392 17.4471C144.041 17.4471 143.756 17.7799 143.756 18.1905C143.756 18.601 144.041 18.9338 144.392 18.9338Z" fill="white"/>
<path d="M177.931 112.97C178.282 112.97 178.566 112.684 178.566 112.332C178.566 111.979 178.282 111.693 177.931 111.693C177.579 111.693 177.295 111.979 177.295 112.332C177.295 112.684 177.579 112.97 177.931 112.97Z" fill="white"/>
<path d="M139.305 77.0626C139.656 77.0626 139.941 76.7769 139.941 76.4244C139.941 76.0719 139.656 75.7861 139.305 75.7861C138.953 75.7861 138.669 76.0719 138.669 76.4244C138.669 76.7769 138.953 77.0626 139.305 77.0626Z" fill="white"/>
<path d="M107.345 109.779C107.696 109.779 107.981 109.493 107.981 109.14C107.981 108.788 107.696 108.502 107.345 108.502C106.993 108.502 106.709 108.788 106.709 109.14C106.709 109.493 106.993 109.779 107.345 109.779Z" fill="white"/>
<path d="M101.939 76.2711C102.291 76.2711 102.575 75.9854 102.575 75.6329C102.575 75.2804 102.291 74.9946 101.939 74.9946C101.588 74.9946 101.303 75.2804 101.303 75.6329C101.303 75.9854 101.588 76.2711 101.939 76.2711Z" fill="white"/>
<path d="M59.3334 69.5695C59.6846 69.5695 59.9693 69.2837 59.9693 68.9312C59.9693 68.5787 59.6846 68.293 59.3334 68.293C58.9822 68.293 58.6975 68.5787 58.6975 68.9312C58.6975 69.2837 58.9822 69.5695 59.3334 69.5695Z" fill="white"/>
<path d="M204.68 199.882L204.044 199.9L204.998 234.978L205.634 234.961L204.68 199.882Z" fill="#B3B3B3"/>
<path d="M214.537 62.345L213.901 62.3545L214.855 126.792L215.491 126.783L214.537 62.345Z" fill="#B3B3B3"/>
<path d="M192.693 128.926H183.715C183.513 128.925 183.312 128.969 183.128 129.055C182.945 129.14 182.782 129.265 182.651 129.421C182.526 129.396 182.399 129.384 182.271 129.384C181.707 129.384 181.165 129.609 180.766 130.01C180.366 130.411 180.142 130.954 180.142 131.521C180.142 132.088 180.366 132.632 180.766 133.033C181.165 133.433 181.707 133.659 182.271 133.659C182.593 133.659 182.91 133.585 183.199 133.442L183.348 135.289L183.943 142.589C183.972 142.68 184.01 142.768 184.057 142.851C184.177 143.072 184.354 143.257 184.571 143.386C184.787 143.515 185.034 143.583 185.285 143.584H191.123C191.375 143.583 191.622 143.515 191.838 143.386C192.055 143.257 192.233 143.072 192.354 142.851C192.399 142.767 192.436 142.679 192.465 142.589L194.035 130.749C194.099 130.538 194.114 130.315 194.077 130.098C194.04 129.881 193.953 129.675 193.822 129.498C193.692 129.32 193.521 129.176 193.325 129.077C193.129 128.978 192.913 128.926 192.693 128.926ZM182.271 133.048C181.868 133.048 181.482 132.887 181.197 132.6C180.912 132.314 180.752 131.926 180.752 131.521C180.752 131.117 180.912 130.729 181.197 130.442C181.482 130.156 181.868 129.995 182.271 129.994C182.299 129.994 182.324 130.002 182.352 130.003C182.292 130.249 182.299 130.507 182.374 130.749L183.016 132.845C182.79 132.977 182.533 133.047 182.271 133.048V133.048Z" fill="#F2F2F2"/>
<path d="M189.612 249.815L188.115 247.077L188.852 246.729L189.44 246.449L192.006 245.233L193.548 244.502L194.184 244.199L194.69 243.959L195.529 245.233L195.952 245.874L196.016 245.97V245.973C196.002 245.978 195.99 245.985 195.978 245.992C195.968 245.999 195.962 246.002 195.952 246.008C195.66 246.197 195.37 246.382 195.075 246.567C194.986 246.627 194.896 246.682 194.807 246.736C194.652 246.835 194.493 246.934 194.334 247.033C194.178 247.128 194.019 247.227 193.86 247.323C193.227 247.712 192.588 248.095 191.949 248.472C191.79 248.568 191.628 248.66 191.466 248.756C191.307 248.848 191.145 248.941 190.982 249.034V249.043L190.963 249.046L190.957 249.049L190.951 249.056H190.947C190.502 249.311 190.06 249.566 189.612 249.815Z" fill="#2F2E41"/>
<g opacity="0.49">
<path opacity="0.49" d="M188.099 124.129C188.172 124.032 188.238 123.931 188.296 123.825C188.183 123.872 188.066 123.909 187.947 123.935L188.099 124.129Z" fill="white"/>
<path opacity="0.49" d="M188.92 117.618C188.348 116.518 187.706 115.425 187.476 114.206C187.246 112.985 187.448 111.73 187.518 110.489C187.588 109.248 187.5 107.922 186.785 106.907C185.81 110.007 184.843 113.422 186.091 116.422C186.632 117.723 187.555 118.832 188.15 120.109C188.693 121.276 188.913 122.73 188.296 123.825C189.303 123.417 189.933 122.259 189.972 121.143C190.016 119.903 189.493 118.718 188.92 117.618Z" fill="white"/>
</g>
<g opacity="0.49">
<path opacity="0.49" d="M187.02 128.277C187.048 128.239 187.074 128.2 187.096 128.159C187.053 128.177 187.007 128.192 186.961 128.202L187.02 128.277Z" fill="white"/>
<path opacity="0.49" d="M187.339 125.748C187.089 125.336 186.899 124.889 186.778 124.422C186.725 123.942 186.731 123.457 186.795 122.978C186.857 122.495 186.757 122.005 186.51 121.586C186.131 122.791 185.755 124.118 186.24 125.283C186.45 125.789 186.809 126.219 187.04 126.715C187.16 126.935 187.227 127.18 187.237 127.431C187.247 127.681 187.199 127.931 187.097 128.159C187.291 128.063 187.455 127.915 187.57 127.731C187.685 127.547 187.746 127.334 187.748 127.117C187.731 126.633 187.59 126.161 187.339 125.748Z" fill="white"/>
</g>
<path d="M62.3955 30.2781H42.3644C41.7741 30.2781 41.208 30.0428 40.7906 29.6238C40.3732 29.2049 40.1387 28.6367 40.1387 28.0443C40.1387 27.4518 40.3732 26.8836 40.7906 26.4647C41.208 26.0458 41.7741 25.8104 42.3644 25.8104H62.3955C62.9858 25.8104 63.5519 26.0458 63.9693 26.4647C64.3867 26.8836 64.6212 27.4518 64.6212 28.0443C64.6212 28.6367 64.3867 29.2049 63.9693 29.6238C63.5519 30.0428 62.9858 30.2781 62.3955 30.2781Z" fill="#2F2E41"/>
<path d="M234.096 4.58891H23.9276C23.3373 4.58891 22.7712 4.35356 22.3538 3.93463C21.9364 3.5157 21.7019 2.94751 21.7019 2.35506C21.7019 1.76261 21.9364 1.19442 22.3538 0.775494C22.7712 0.356566 23.3373 0.121216 23.9276 0.121216H234.096C234.686 0.121216 235.252 0.356566 235.67 0.775494C236.087 1.19442 236.321 1.76261 236.321 2.35506C236.321 2.94751 236.087 3.5157 235.67 3.93463C235.252 4.35356 234.686 4.58891 234.096 4.58891Z" fill="#2F2E41"/>
<path d="M55.4004 52.6166H35.3692C34.779 52.6166 34.2128 52.3813 33.7954 51.9623C33.378 51.5434 33.1436 50.9752 33.1436 50.3828C33.1436 49.7903 33.378 49.2221 33.7954 48.8032C34.2128 48.3843 34.779 48.1489 35.3692 48.1489H55.4004C55.9907 48.1489 56.5568 48.3843 56.9742 48.8032C57.3916 49.2221 57.6261 49.7903 57.6261 50.3828C57.6261 50.9752 57.3916 51.5434 56.9742 51.9623C56.5568 52.3813 55.9907 52.6166 55.4004 52.6166Z" fill="#2F2E41"/>
<path d="M215.014 30.2781H194.983C194.392 30.2781 193.826 30.0428 193.409 29.6238C192.992 29.2049 192.757 28.6367 192.757 28.0443C192.757 27.4518 192.992 26.8836 193.409 26.4647C193.826 26.0458 194.392 25.8104 194.983 25.8104H215.014C215.604 25.8104 216.17 26.0458 216.588 26.4647C217.005 26.8836 217.24 27.4518 217.24 28.0443C217.24 28.6367 217.005 29.2049 216.588 29.6238C216.17 30.0428 215.604 30.2781 215.014 30.2781Z" fill="#2F2E41"/>
<path d="M222.963 51.6593H202.931C202.341 51.6593 201.775 51.424 201.358 51.0051C200.94 50.5861 200.706 50.0179 200.706 49.4255C200.706 48.833 200.94 48.2649 201.358 47.8459C201.775 47.427 202.341 47.1917 202.931 47.1917H222.963C223.553 47.1917 224.119 47.427 224.536 47.8459C224.954 48.2649 225.188 48.833 225.188 49.4255C225.188 50.0179 224.954 50.5861 224.536 51.0051C224.119 51.424 223.553 51.6593 222.963 51.6593Z" fill="#2F2E41"/>
<path d="M43.4772 59.4729L42.8413 59.4824L43.7952 123.92L44.4311 123.911L43.4772 59.4729Z" fill="#B3B3B3"/>
<path d="M49.8363 133.509L49.2004 133.519L50.1543 197.956L50.7902 197.947L49.8363 133.509Z" fill="#B3B3B3"/>
<path d="M42.8412 188.075L42.2056 188.092L43.1594 223.171L43.795 223.154L42.8412 188.075Z" fill="#B3B3B3"/>
<path d="M169.495 210.535V209.317C169.495 208.851 169.317 208.404 168.999 208.065C168.681 207.727 168.245 207.523 167.783 207.496V202.74H167.38V207.491H165.567V210.524H157.006V245.399H175.941V217.372C175.941 215.621 175.273 213.937 174.074 212.665C172.875 211.394 171.236 210.631 169.495 210.535Z" fill="#2F2E41"/>
<path d="M162.646 215.477H160.128V217.499H162.646V215.477Z" fill="white"/>
<path d="M166.775 215.477H164.257V217.499H166.775V215.477Z" fill="white"/>
<path d="M170.905 215.477H168.387V217.499H170.905V215.477Z" fill="white"/>
<path d="M162.646 220.632H160.128V222.654H162.646V220.632Z" fill="white"/>
<path d="M166.775 220.632H164.257V222.654H166.775V220.632Z" fill="white"/>
<path d="M170.905 220.632H168.387V222.654H170.905V220.632Z" fill="white"/>
<path d="M162.646 225.788H160.128V227.81H162.646V225.788Z" fill="white"/>
<path d="M166.775 225.788H164.257V227.81H166.775V225.788Z" fill="white"/>
<path d="M170.905 225.788H168.387V227.81H170.905V225.788Z" fill="white"/>
<path d="M162.646 230.943H160.128V232.965H162.646V230.943Z" fill="white"/>
<path d="M166.775 230.943H164.257V232.965H166.775V230.943Z" fill="white"/>
<path d="M170.905 230.943H168.387V232.965H170.905V230.943Z" fill="white"/>
<path d="M162.646 236.099H160.128V238.12H162.646V236.099Z" fill="white"/>
<path d="M166.775 236.099H164.257V238.12H166.775V236.099Z" fill="white"/>
<path d="M170.905 236.099H168.387V238.12H170.905V236.099Z" fill="white"/>
<path d="M162.646 241.254H160.128V243.276H162.646V241.254Z" fill="white"/>
<path d="M166.775 241.254H164.257V243.276H166.775V241.254Z" fill="white"/>
<path d="M170.905 241.254H168.387V243.276H170.905V241.254Z" fill="white"/>
<path d="M150.706 193.541H150.126V189.958C150.126 189.474 149.934 189.01 149.593 188.668C149.252 188.325 148.79 188.133 148.307 188.133H145.795V182.978H145.392V188.133H141.968V193.541H138.594V245.399H157.529V200.389C157.529 199.49 157.352 198.599 157.009 197.768C156.667 196.938 156.164 196.183 155.53 195.547C154.897 194.911 154.145 194.406 153.317 194.062C152.489 193.718 151.602 193.541 150.706 193.541Z" fill="#2F2E41"/>
<path d="M152.141 197.635H143.982V198.242H152.141V197.635Z" fill="white"/>
<path d="M152.141 201.375H143.982V201.982H152.141V201.375Z" fill="white"/>
<path d="M152.141 205.115H143.982V205.722H152.141V205.115Z" fill="white"/>
<path d="M152.141 208.856H143.982V209.462H152.141V208.856Z" fill="white"/>
<path d="M152.141 212.596H143.982V213.202H152.141V212.596Z" fill="white"/>
<path d="M152.141 216.336H143.982V216.943H152.141V216.336Z" fill="white"/>
<path d="M152.141 220.076H143.982V220.683H152.141V220.076Z" fill="white"/>
<path d="M152.141 223.816H143.982V224.423H152.141V223.816Z" fill="white"/>
<path d="M152.141 227.557H143.982V228.163H152.141V227.557Z" fill="white"/>
<path d="M152.141 231.297H143.982V231.903H152.141V231.297Z" fill="white"/>
<path d="M152.141 235.037H143.982V235.644H152.141V235.037Z" fill="white"/>
<path d="M152.141 238.777H143.982V239.384H152.141V238.777Z" fill="white"/>
<path d="M147.306 189.245H144.788V191.267H147.306V189.245Z" fill="white"/>
<path d="M227.929 213.905V216.879C227.471 217.466 227.007 218.053 226.536 218.631C226.435 218.759 226.333 218.883 226.234 219.008C226.078 219.196 225.926 219.384 225.773 219.569C225.722 219.633 225.671 219.694 225.617 219.757C225.357 220.07 225.096 220.383 224.829 220.696C224.829 220.696 224.832 220.699 224.829 220.699C224.571 221.005 224.311 221.312 224.047 221.618C223.904 221.787 223.757 221.953 223.608 222.122C223.389 222.381 223.163 222.636 222.934 222.891C222.931 222.894 222.931 222.898 222.928 222.901L222.918 222.91V213.905L227.929 213.905Z" fill="#2F2E41"/>
<path d="M234.466 207.701C233.633 208.99 232.778 210.26 231.9 211.511C231.9 211.514 231.897 211.514 231.894 211.518C231.369 212.271 230.832 213.017 230.291 213.758C229.945 214.23 229.595 214.7 229.242 215.168C228.889 215.637 228.533 216.102 228.174 216.563C228.094 216.668 228.012 216.774 227.929 216.879C227.471 217.466 227.007 218.053 226.536 218.631C226.435 218.758 226.333 218.883 226.234 219.007C226.078 219.196 225.926 219.384 225.773 219.569C225.719 219.633 225.668 219.693 225.617 219.757C225.357 220.07 225.096 220.383 224.829 220.696C224.829 220.696 224.832 220.699 224.829 220.699C224.571 221.005 224.311 221.311 224.047 221.618C223.904 221.787 223.757 221.953 223.608 222.122H213.227C212.119 222.121 211.057 221.679 210.273 220.893C209.49 220.107 209.05 219.041 209.049 217.929V211.894C209.05 210.782 209.491 209.717 210.274 208.931C211.057 208.144 212.119 207.702 213.227 207.701H234.466Z" fill="#2F2E41"/>
<path d="M239.956 156.049C239.318 155.828 238.648 155.715 237.972 155.717H236.265C235.643 155.717 235.025 155.811 234.43 155.994C233.177 156.39 232.081 157.176 231.303 158.239C230.525 159.302 230.105 160.586 230.103 161.905V212.246C230.103 212.434 230.113 212.619 230.128 212.801C230.156 213.124 230.21 213.444 230.291 213.759C230.831 213.018 231.368 212.271 231.893 211.518C231.896 211.515 231.899 211.515 231.899 211.512C232.777 210.261 233.632 208.991 234.465 207.702C234.914 207.009 235.359 206.31 235.794 205.608C238.942 200.54 241.73 195.255 244.138 189.793V161.905C244.136 160.613 243.732 159.354 242.983 158.304C242.233 157.254 241.175 156.465 239.956 156.049Z" fill="#2F2E41"/>
<path d="M165.787 249.663L161.459 247.585L167.405 229.426L173.793 232.493L165.787 249.663Z" fill="#FFB6B6"/>
<path d="M194.808 246.736C194.493 246.934 194.178 247.128 193.86 247.323C193.227 247.712 192.588 248.095 191.949 248.472C191.628 248.66 191.304 248.849 190.983 249.034V249.043L190.963 249.046L190.957 249.05L190.467 249.171L189.765 247.307L189.44 246.449L188.983 245.233L188.143 243.009L183.724 231.297L190.595 229.596L190.852 230.652H190.855L190.983 231.176L193.383 240.947L193.873 242.945L193.889 243.005L194.184 244.199L194.439 245.233L194.722 246.388L194.808 246.736Z" fill="#FFB6B6"/>
<path d="M177.283 170.734C177.9 171.74 178.885 172.465 180.027 172.752C181.169 173.04 182.378 172.868 183.396 172.273C183.6 172.149 183.794 172.008 183.976 171.851L197.661 179.734L197.067 171.642L184.162 165.398C183.46 164.69 182.544 164.236 181.557 164.107C180.57 163.978 179.568 164.181 178.709 164.685C177.725 165.278 177.016 166.238 176.738 167.356C176.46 168.473 176.636 169.655 177.227 170.643C177.245 170.673 177.264 170.704 177.283 170.734Z" fill="#FFB6B6"/>
<path d="M191.777 176.766L194.196 178.245L205.061 184.894C205.774 185.342 206.568 185.645 207.397 185.785C208.227 185.924 209.076 185.899 209.896 185.709C210.716 185.52 211.49 185.17 212.175 184.68C212.86 184.191 213.443 183.57 213.889 182.854L213.892 182.849C214.697 181.518 214.981 179.936 214.691 178.408L209.863 154.195C209.684 153.244 209.304 152.344 208.746 151.555C208.189 150.765 207.469 150.106 206.635 149.622C205.8 149.138 204.872 148.841 203.912 148.75C202.953 148.659 201.985 148.777 201.075 149.097C199.546 149.636 198.279 150.74 197.532 152.183C196.785 153.627 196.614 155.302 197.054 156.867L202.103 174.051L194.364 170.429L191.777 176.766Z" fill="#6C63FF"/>
<path d="M236.325 200.639C236.322 200.63 236.316 200.595 236.306 200.541L236.297 200.505C236.274 200.391 236.249 200.263 236.22 200.123C235.572 196.889 234.738 193.696 233.724 190.558C233.124 188.637 232.328 186.783 231.349 185.025C231.317 184.967 231.283 184.91 231.248 184.853L231.13 184.661L230.141 185.025L230.103 185.038L215.07 190.568L210.724 192.167L210.587 192.218L209.846 195.25L199.452 193.9L190.982 192.799L188.549 192.483C187.495 192.345 186.424 192.419 185.398 192.7C184.372 192.982 183.413 193.466 182.575 194.123C181.701 194.803 180.97 195.651 180.426 196.618C179.882 197.584 179.535 198.65 179.405 199.752C179.373 199.995 179.354 200.241 179.345 200.483L178.61 227.982V228.017L178.95 228.7L186.057 243.009H190.982L193.888 243.006H196.25L191.338 230.532L191.449 230.362C191.911 229.651 192.203 228.842 192.3 227.999C192.398 227.155 192.299 226.301 192.012 225.502L192.565 223.894C193.713 220.572 193.169 218.976 192.482 216.959C191.866 215.319 191.503 213.594 191.408 211.844L191.293 209.569C194.177 210.076 196.864 210.641 199.452 211.209C200.317 211.397 201.173 211.587 202.021 211.78C204.434 212.319 206.765 212.839 209.048 213.274C213.671 214.157 218.1 214.697 222.65 214.362C222.739 214.355 222.828 214.349 222.917 214.339C224.024 214.25 225.136 214.106 226.262 213.905C226.895 213.79 227.531 213.66 228.173 213.506C228.351 213.462 228.532 213.417 228.71 213.372C229.205 213.242 229.681 213.05 230.128 212.801C230.765 212.445 231.357 212.014 231.893 211.518C231.896 211.515 231.899 211.515 231.899 211.512C232.777 210.261 233.632 208.991 234.465 207.702C234.914 207.009 235.359 206.31 235.794 205.608C236.43 203.856 236.672 202.088 236.325 200.639Z" fill="#2F2E41"/>
<path d="M236.43 195.473C236.383 195.268 236.322 195.061 236.259 194.86C235.754 193.337 235.166 191.844 234.497 190.386C233.747 188.727 232.847 186.949 231.776 185.025C231.257 184.093 230.7 183.124 230.103 182.118C229.804 181.613 229.494 181.1 229.171 180.576C229.159 180.552 229.145 180.529 229.13 180.506L229.038 180.353L214.164 182.35L208.625 183.094L208.295 185.864L208.215 186.55C208.212 186.55 208.212 186.55 208.215 186.553L207.993 188.423V188.427L207.697 190.897L207.671 190.893L199.452 189.824L190.982 188.723L186.432 188.133C185.378 187.995 184.306 188.069 183.281 188.351C182.255 188.632 181.295 189.116 180.458 189.773C179.583 190.453 178.853 191.302 178.309 192.268C177.764 193.234 177.417 194.3 177.288 195.403C177.259 195.626 177.24 195.856 177.23 196.082L172.938 206.291C170.369 212.396 168.734 218.856 168.086 225.451L164.938 235.551L165.387 235.593L172.057 236.215L173.819 236.381L177.698 230.697C178.14 230.049 178.559 229.383 178.951 228.7C179.594 227.584 180.167 226.429 180.664 225.24L189.055 205.2C189.704 205.311 190.346 205.418 190.982 205.519C193.923 205.997 196.746 206.388 199.452 206.69C208.25 207.676 215.868 207.753 222.65 206.916C224.555 206.683 226.396 206.377 228.173 205.997C228.825 205.86 229.468 205.712 230.103 205.554C230.253 205.519 230.399 205.484 230.545 205.445C231.859 205.105 233.067 204.44 234.059 203.51C235.05 202.58 235.793 201.415 236.221 200.122C236.73 198.624 236.803 197.011 236.43 195.473Z" fill="#2F2E41"/>
<path d="M204.802 135.201C210.484 135.201 215.09 130.474 215.09 124.644C215.09 118.814 210.484 114.088 204.802 114.088C199.12 114.088 194.513 118.814 194.513 124.644C194.513 130.474 199.12 135.201 204.802 135.201Z" fill="#FFB6B6"/>
<path d="M229.232 180.93C229.216 180.812 229.197 180.694 229.171 180.576C228.926 179.281 228.291 178.011 227.677 176.779C227.092 175.604 226.535 174.494 226.307 173.39C226.081 172.301 226.214 171.21 226.345 170.157C226.485 169.014 226.631 167.834 226.303 166.688C224.642 160.837 222.361 155.182 219.499 149.819C218.777 147.461 217.393 145.362 215.512 143.774C213.631 142.186 211.334 141.176 208.895 140.865C209.18 140.331 209.298 139.724 209.236 139.122C209.196 138.733 209.079 138.356 208.893 138.013C208.707 137.669 208.455 137.366 208.151 137.122C207.86 136.886 207.524 136.71 207.165 136.605C206.805 136.5 206.428 136.467 206.056 136.509L201.274 137.048C200.507 137.145 199.81 137.541 199.333 138.151C198.856 138.761 198.638 139.536 198.727 140.306C198.754 140.543 198.807 140.777 198.886 141.002C194.447 146.676 192.168 151.846 191.958 156.735V156.738C191.932 157.303 191.936 157.868 191.967 158.432C192.068 160.258 192.463 162.054 193.137 163.752C193.934 165.714 195 167.554 196.304 169.219C196.571 169.557 196.848 169.889 197.134 170.214C197.401 170.533 197.7 170.869 198.031 171.22L198.867 172.534L199.646 173.763L203.811 183.41L205.932 183.34L206.228 185.462L206.298 185.957L207.671 190.893L207.773 191.264L209.652 190.367L220.863 185.025L229.244 181.029L229.232 180.93Z" fill="#0381B0"/>
<path opacity="0.2" d="M193.263 163.701C194.219 166.051 195.563 168.223 197.238 170.124C197.525 170.468 197.828 170.806 198.145 171.144L199.773 173.707C205.773 169.194 210.633 151.422 210.633 151.422L203.864 150.101L193.263 163.701Z" fill="black"/>
<path d="M189.165 136.187C189.758 137.209 189.93 138.423 189.645 139.57C189.36 140.717 188.64 141.708 187.638 142.33C187.432 142.453 187.217 142.56 186.994 142.647L187.473 158.477L180.643 154.161L181.235 139.791C180.945 138.835 180.978 137.809 181.329 136.873C181.681 135.938 182.331 135.146 183.178 134.62C184.158 134.025 185.332 133.845 186.444 134.12C187.555 134.395 188.513 135.101 189.105 136.084C189.126 136.118 189.146 136.152 189.165 136.187Z" fill="#FFB6B6"/>
<path d="M188.073 152.501L180.562 153.573L180.885 169.184C180.904 170.298 181.206 171.388 181.763 172.352C182.32 173.315 183.113 174.119 184.067 174.689C185.232 175.377 186.589 175.666 187.932 175.513C189.276 175.36 190.533 174.773 191.515 173.84L209.248 156.721C210.495 155.533 211.242 153.911 211.334 152.187C211.426 150.464 210.857 148.77 209.743 147.455C208.652 146.159 207.092 145.35 205.407 145.208C203.722 145.066 202.049 145.601 200.757 146.697C200.707 146.739 200.657 146.783 200.608 146.827C200.433 146.985 200.266 147.151 200.109 147.327L188.4 160.846L188.073 152.501Z" fill="#0381B0"/>
<path d="M167.17 246.698L162.487 244.445L161.752 244.091L160.579 246.982L152.388 248.791C151.983 248.881 151.617 249.097 151.344 249.41C151.07 249.723 150.904 250.115 150.868 250.53C150.833 250.944 150.93 251.359 151.147 251.714C151.363 252.069 151.687 252.346 152.07 252.503L160.073 255.78L162.614 253.486L161.991 256.565L165.005 257.8L168.308 247.247L167.17 246.698Z" fill="#F9F5E9"/>
<path d="M232.333 120.066C230.584 118.019 229.752 115.303 228.354 112.979C226.956 110.655 224.523 108.574 221.953 109.115C220.181 109.488 218.812 111.057 218.119 112.807C217.426 114.556 217.296 116.486 217.174 118.376C217.217 114.491 214.668 110.726 211.156 109.487C207.644 108.247 203.441 109.63 201.234 112.75C200.271 111.854 199.014 111.344 197.701 111.317C196.388 111.289 195.111 111.746 194.111 112.6C192.137 114.371 191.7 117.741 193.152 120C194.604 122.258 197.748 123.1 200.055 121.847L200.87 122.6C200.411 124.212 201.301 126.115 202.798 126.722C204.012 127.214 205.725 127.132 206.179 128.41C206.496 129.304 205.903 130.257 205.272 130.943C204.641 131.63 203.892 132.338 203.817 133.288C203.702 134.721 205.177 135.725 206.519 136.027C209.753 136.756 213.341 135.253 215.205 132.388C215.241 132.333 215.28 132.278 215.322 132.223C216.368 130.88 217.13 129.338 217.562 127.69C217.994 126.042 218.087 124.323 217.834 122.638C217.73 121.976 217.835 121.484 218.29 121.327C220.256 120.649 225.763 122.072 227.43 123.357C229.097 124.643 230.432 126.344 232.037 127.712C233.643 129.081 235.689 130.137 237.727 129.764C239.36 129.465 240.749 128.276 241.683 126.841C242.618 125.406 243.155 123.733 243.637 122.071C240.026 124.164 235.085 123.288 232.333 120.066Z" fill="#2F2E41"/>
<path d="M199.857 243.407V243.478L199.768 243.468C199.663 243.545 199.558 243.615 199.453 243.688C198.693 244.212 197.927 244.726 197.154 245.233C196.776 245.482 196.397 245.727 196.016 245.97V245.973C196.013 245.973 196.01 245.976 196.006 245.976H196.003L195.997 245.983L195.978 245.992C195.968 245.999 195.962 246.002 195.952 246.008V187.015C195.952 185.305 195.38 183.917 194.677 183.914H141.741C141.035 183.917 140.466 185.305 140.463 187.015V265.347C139.757 265.417 139.051 265.484 138.345 265.542C138.333 265.542 138.32 265.545 138.307 265.545C138.027 265.57 137.747 265.589 137.468 265.612H137.465C137.296 265.299 137.131 264.983 136.965 264.664V182.991C136.965 182.519 136.984 182.044 137.016 181.574C137.062 180.93 137.141 180.289 137.255 179.653C137.792 176.689 139.007 174.681 140.387 174.675H196.029C196.23 174.676 196.429 174.719 196.614 174.8C196.885 174.92 197.13 175.092 197.335 175.307C197.614 175.598 197.853 175.925 198.044 176.28C198.725 177.483 199.211 179.277 199.383 181.364C199.383 181.383 199.386 181.402 199.386 181.421C199.431 181.938 199.453 182.465 199.45 182.991L199.494 189.83L199.523 193.908L199.609 206.705L199.641 211.25L199.857 243.407Z" fill="#2F2E41"/>
<path d="M158.219 155.703L154.536 171.963L152.183 174.55H150.486L157.482 144.985L157.828 150.008V150.011L158.219 155.703Z" fill="#2F2E41"/>
<path d="M175.939 172.32L154.337 172.183L152.42 172.171L151.053 172.161L149.46 172.151H149.447C149.216 172.152 148.995 172.244 148.831 172.407L146.141 175.106C146.081 175.165 146.033 175.234 145.998 175.311C145.981 175.332 145.967 175.356 145.956 175.381C145.898 175.517 145.874 175.665 145.886 175.812C145.898 175.959 145.947 176.101 146.026 176.225C146.106 176.35 146.215 176.452 146.344 176.524C146.472 176.596 146.617 176.635 146.764 176.638H174.747C174.915 176.638 175.079 176.589 175.221 176.499C175.363 176.409 175.476 176.28 175.548 176.128L175.768 175.649L176.219 174.676L176.731 173.578C176.786 173.461 176.814 173.334 176.814 173.204C176.813 172.972 176.72 172.748 176.557 172.583C176.393 172.418 176.171 172.323 175.939 172.32Z" fill="#2F2E41"/>
<path opacity="0.17" d="M175.768 175.648L175.547 176.129C175.475 176.281 175.362 176.409 175.22 176.499C175.079 176.59 174.915 176.638 174.748 176.639H146.763C146.616 176.636 146.472 176.597 146.343 176.525C146.215 176.453 146.106 176.351 146.026 176.226C145.946 176.102 145.898 175.96 145.886 175.813C145.874 175.666 145.899 175.518 145.957 175.382C145.967 175.357 145.98 175.333 145.997 175.312L175.768 175.648Z" fill="black"/>
<path opacity="0.17" d="M157.828 150.008V150.011L151.837 174.55H150.486L157.482 144.985L157.828 150.008Z" fill="black"/>
<path d="M165.18 154.504L156.7 89.7513C156.669 89.5086 156.543 89.2882 156.35 89.1386L150.512 81.8052L149.988 81.3999C149.794 81.2522 149.549 81.1869 149.307 81.218L148.43 81.3361C148.188 81.3674 147.968 81.4939 147.819 81.6878C147.67 81.8818 147.604 82.1271 147.635 82.37L156.423 149.462V149.465L156.961 153.569L157.6 158.442V158.449L158.592 166.031C158.608 166.161 158.651 166.286 158.72 166.397C158.788 166.508 158.88 166.603 158.989 166.675C159.096 166.749 159.217 166.799 159.345 166.823C159.473 166.846 159.604 166.841 159.73 166.809L160.286 166.669C160.5 166.614 160.686 166.485 160.814 166.305L161.062 165.951L161.177 165.785L165.018 155.158C165.152 154.969 165.21 154.735 165.18 154.504Z" fill="#2F2E41"/>
<path opacity="0.17" d="M150.511 81.8053L161.178 165.786L161.062 165.951L160.815 166.304C160.687 166.484 160.5 166.613 160.287 166.668L159.73 166.809C159.604 166.84 159.472 166.844 159.344 166.821C159.216 166.798 159.095 166.748 158.987 166.675C158.88 166.601 158.789 166.506 158.721 166.395C158.653 166.284 158.609 166.16 158.592 166.031L147.636 82.3709C147.605 82.128 147.67 81.8823 147.819 81.688C147.968 81.4936 148.187 81.3665 148.429 81.3345L149.309 81.2184C149.428 81.2022 149.55 81.21 149.666 81.2414C149.782 81.2728 149.891 81.3271 149.987 81.4011L150.511 81.8053Z" fill="black"/>
<path d="M150.825 84.207L156.486 92.3162L163.214 143.695L159.566 150.958L150.825 84.207Z" fill="#F5EFDC"/>
<path d="M236.272 187.794C236.272 188.355 236.102 188.904 235.786 189.366C235.469 189.829 235.02 190.184 234.498 190.385C234.25 190.481 233.99 190.539 233.725 190.558C233.655 190.564 233.582 190.567 233.512 190.567H228.174V216.563C228.094 216.668 228.012 216.773 227.929 216.879C227.471 217.466 227.007 218.053 226.536 218.631C226.435 218.758 226.333 218.883 226.234 219.007C226.078 219.196 225.926 219.384 225.773 219.569C225.719 219.633 225.668 219.693 225.617 219.757C225.357 220.07 225.096 220.383 224.829 220.695C224.829 220.695 224.832 220.699 224.829 220.699C224.571 221.005 224.311 221.311 224.047 221.618C223.565 221.348 223.177 220.937 222.934 220.44C222.931 220.437 222.931 220.434 222.928 220.427C222.924 220.42 222.921 220.413 222.918 220.405C222.74 220.032 222.648 219.622 222.651 219.208V190.567H210.683C210.33 190.569 209.98 190.501 209.653 190.366C209.241 190.201 208.875 189.938 208.586 189.601C208.297 189.263 208.093 188.86 207.993 188.426V188.423C207.844 187.793 207.923 187.13 208.216 186.553C208.213 186.55 208.213 186.55 208.216 186.55C208.34 186.297 208.505 186.067 208.702 185.867C208.702 185.863 208.702 185.863 208.705 185.86C208.963 185.596 209.271 185.386 209.61 185.242C209.95 185.099 210.315 185.024 210.683 185.024H233.512C234.244 185.025 234.946 185.317 235.463 185.836C235.981 186.355 236.272 187.06 236.272 187.794Z" fill="#2F2E41"/>
<path d="M236.089 134.394C234.952 134.394 233.827 134.618 232.777 135.055C231.727 135.491 230.773 136.131 229.97 136.937C229.166 137.744 228.529 138.701 228.094 139.755C227.659 140.809 227.436 141.938 227.436 143.079V143.079C227.436 145.093 228.134 147.045 229.41 148.6C230.686 150.155 232.462 151.216 234.432 151.603V165.807H239.955V134.394H236.089Z" fill="#2F2E41"/>
<path d="M201.121 112.283C203.486 115.434 206.577 123.044 205.453 126.823L201.121 112.283Z" fill="#0694C8"/>
</g>
<defs>
<clipPath id="clip0_4_22">
<rect width="255" height="266" fill="white"/>
</clipPath>
</defs>
</svg>
