<svg width="458" height="158" viewBox="0 0 458 158" fill="none" xmlns="http://www.w3.org/2000/svg">
<path d="M149.27 79.11C151.15 89.18 146.96 100.72 141.96 109.42C140.225 112.625 138.239 115.688 136.02 118.58C125.711 131.938 111.104 141.324 94.67 145.15C91.8453 145.828 88.9791 146.319 86.09 146.62C54.63 141.62 15.81 119.62 5.08997 88.62C4.4372 84.875 4.10267 81.0815 4.08997 77.28C11.62 48.26 36.8 17.84 65.38 8.36004C73.2053 7.1268 81.1757 7.13018 89 8.37004C92.6457 8.70553 96.0827 10.2207 98.7896 12.6858C101.497 15.1509 103.326 18.4315 104 22.03C110.3 46.16 122.89 64.03 145.75 71.5C147.538 73.7046 148.748 76.3202 149.27 79.11V79.11Z" fill="#FFD04C"/>
<path d="M96.7899 124.12C97.6682 125.211 98.7435 126.127 99.9599 126.82C100.01 126.864 100.069 126.896 100.133 126.915C100.197 126.934 100.264 126.939 100.33 126.93C100.52 126.88 100.57 126.64 100.59 126.45C100.753 124.205 100.727 121.95 100.51 119.71C100.49 119.263 100.371 118.825 100.16 118.43C99.9399 118.146 99.6473 117.926 99.3129 117.794C98.9785 117.662 98.6148 117.623 98.2599 117.68C97.7466 117.743 97.2556 117.927 96.8278 118.217C96.3999 118.508 96.0475 118.896 95.7999 119.35C95.5534 119.723 95.4309 120.164 95.4499 120.61C95.5485 121.171 95.6923 121.723 95.8799 122.26C96.0933 122.92 96.3998 123.546 96.7899 124.12Z" fill="#E4A30B"/>
<path d="M62.4399 122.69C62.3099 123.846 62.3099 125.014 62.4399 126.17C62.5799 127.85 62.8099 129.52 63.1099 131.17C63.1099 131.35 63.2499 131.58 63.4299 131.55C63.4976 131.533 63.5597 131.499 63.6099 131.45C65.2625 129.94 66.7084 128.219 67.9099 126.33C68.6701 125.275 69.1454 124.042 69.2899 122.75C69.3476 122.103 69.2074 121.453 68.8878 120.887C68.5681 120.321 68.0842 119.865 67.4999 119.58C66.9744 119.408 66.4226 119.33 65.8699 119.35C64.9927 119.22 64.0966 119.334 63.2799 119.68C62.8199 119.98 62.8699 120.68 62.7599 121.1C62.6499 121.52 62.5099 122.15 62.4399 122.69Z" fill="#E4A30B"/>
<path d="M77.75 127.32C77.8871 128.477 78.1555 129.614 78.55 130.71C79.0698 132.313 79.6705 133.888 80.35 135.43C80.43 135.6 80.58 135.8 80.75 135.73C80.8132 135.7 80.8656 135.651 80.9 135.59C82.1574 133.729 83.166 131.712 83.9 129.59C84.3975 128.389 84.5766 127.08 84.42 125.79C84.3277 125.157 84.0478 124.566 83.6164 124.094C83.1851 123.622 82.622 123.289 82 123.14C81.4482 123.098 80.8933 123.153 80.36 123.3C79.4731 123.371 78.6241 123.69 77.91 124.22C77.54 124.61 77.73 125.22 77.74 125.72C77.75 126.22 77.7 126.78 77.75 127.32Z" fill="#E4A30B"/>
<path d="M113.85 111.43C113.927 110.901 113.814 110.363 113.53 109.91C113.128 108.975 112.535 108.134 111.79 107.44C111.111 106.839 110.226 106.523 109.32 106.56C108.913 106.575 108.522 106.724 108.209 106.985C107.896 107.245 107.678 107.602 107.59 108C107.49 108.68 108.08 109.17 108.59 109.49C109.339 109.97 110.169 110.309 111.04 110.49C111.537 110.614 112.018 110.798 112.47 111.04C112.59 111.09 113.81 111.6 113.85 111.43Z" fill="#E4A30B"/>
<path d="M102.45 39.6301C103.021 38.1638 103.689 36.7373 104.45 35.3601C105.393 33.7468 106.592 32.2979 108 31.0701C108.39 32.8201 108.79 34.6701 108.2 36.3601C108.023 36.7677 107.869 37.185 107.74 37.6101C107.639 38.1439 107.599 38.6873 107.62 39.2301C107.557 41.0641 107.048 42.8553 106.139 44.4493C105.23 46.0433 103.947 47.3923 102.4 48.3801C102.11 48.598 101.762 48.7235 101.4 48.7401C101.199 48.71 101.006 48.6384 100.834 48.53C100.662 48.4216 100.514 48.2786 100.4 48.1101C100.121 47.6942 99.9539 47.2139 99.9137 46.715C99.8734 46.2161 99.9616 45.7152 100.17 45.2601C100.61 44.0601 101.17 42.8801 101.64 41.7001L102.45 39.6301Z" fill="#E4A30B"/>
<path d="M87.31 34.2801C86.8125 36.2396 86.5937 38.2595 86.66 40.2801C86.6436 40.8232 86.7379 41.364 86.9373 41.8695C87.1368 42.375 87.4371 42.8345 87.82 43.2201C88.1789 43.5007 88.6049 43.6824 89.0558 43.7473C89.5066 43.8123 89.9666 43.758 90.39 43.5901C90.8106 43.4149 91.1883 43.1508 91.4973 42.8159C91.8063 42.4811 92.0392 42.0834 92.18 41.6501C92.3852 40.7822 92.4793 39.8917 92.46 39.0001C92.6714 37.5721 92.7983 36.133 92.84 34.6901C92.7555 33.844 92.5948 33.0073 92.36 32.1901C92.11 31.1901 91.86 30.1901 91.54 29.1901C91.3837 28.7146 91.2034 28.2474 91 27.7901C90.95 27.6551 90.8713 27.5324 90.7695 27.4306C90.6677 27.3288 90.5451 27.2501 90.41 27.2001C90.13 27.1282 89.8334 27.1581 89.5734 27.2844C89.3133 27.4108 89.1066 27.6254 88.99 27.8901C88.8173 28.3488 88.6802 28.8202 88.58 29.3001L88.15 30.8401C87.86 32.0001 87.57 33.1301 87.31 34.2801Z" fill="#E4A30B"/>
<path d="M68.1799 30.7C68.3951 33.523 68.8637 36.321 69.5799 39.06C69.6956 39.6322 69.916 40.178 70.2299 40.67C70.5806 41.0954 71.0248 41.434 71.5278 41.6595C72.0308 41.885 72.5791 41.9913 73.1299 41.97C73.621 42.021 74.117 41.95 74.574 41.7634C75.0311 41.5767 75.435 41.2802 75.7499 40.9C75.9894 40.5067 76.1427 40.067 76.1999 39.61C76.9699 35.38 75.0999 31.07 72.5399 27.61C72.0499 26.96 71.5399 26.32 70.9999 25.71C70.7299 25.4 70.4499 25.09 70.1699 24.79C69.8899 24.49 69.6999 24.21 69.3699 24.13C68.7599 23.99 68.3699 24.74 68.2599 25.23C68.1214 26.0694 68.0578 26.9194 68.0699 27.77C68.0599 28.75 68.1099 29.73 68.1799 30.7Z" fill="#E4A30B"/>
<path d="M54.63 39.3C54.7797 40.0591 55.0007 40.8024 55.29 41.52C55.6559 42.3016 56.0981 43.0452 56.61 43.74C57.2877 44.8892 58.2094 45.8758 59.31 46.63C59.8682 46.9931 60.5284 47.1667 61.193 47.1253C61.8576 47.0839 62.4912 46.8296 63 46.4C63.5974 45.6633 63.9473 44.757 64 43.81C64.1101 43.2285 64.1101 42.6315 64 42.05C63.8274 41.5051 63.5449 41.0014 63.17 40.57C62.4495 39.6548 61.6606 38.7957 60.81 38C59.9695 37.2107 59.0739 36.4822 58.13 35.82C57.1755 35.1648 56.1726 34.5831 55.13 34.08C54.8 33.91 54.33 33.59 53.98 33.89C53.853 34.0428 53.7598 34.2206 53.7064 34.4119C53.653 34.6032 53.6406 34.8036 53.67 35C53.7244 35.5957 53.8349 36.185 54 36.76L54.49 38.76L54.63 39.3Z" fill="#E4A30B"/>
<path d="M42 54.3801C42.59 55.0001 43.22 55.5801 43.85 56.1601C44.85 57.1601 46.08 58.1601 47.48 58.0201C47.8213 57.9899 48.1574 57.9159 48.48 57.8001C49.3748 57.573 50.146 57.0063 50.63 56.2201C50.7857 55.869 50.8661 55.4892 50.8661 55.1051C50.8661 54.721 50.7857 54.3412 50.63 53.9901C50.3194 53.2883 49.8625 52.661 49.29 52.1501C47.13 50.0601 44.23 48.9301 41.38 47.9701C40.55 47.6715 39.6972 47.4407 38.83 47.2801C38.61 47.2801 38.38 47.2201 38.16 47.2101C37.94 47.2001 37.86 47.1601 37.8 47.2901C37.74 47.4201 37.95 47.8701 38.02 48.0501C38.3085 48.803 38.6424 49.5377 39.02 50.2501C39.4041 50.943 39.8316 51.611 40.3 52.2501C40.7643 52.9067 41.2721 53.5314 41.82 54.1201L42 54.3801Z" fill="#E4A30B"/>
<path d="M39.24 66.5401C40.059 66.7518 40.7861 67.2259 41.31 67.8901C41.6152 68.4366 41.7704 69.0542 41.76 69.6801C41.8331 70.7277 41.5892 71.773 41.06 72.6801C40.7944 73.1457 40.3949 73.5206 39.9133 73.756C39.4318 73.9915 38.8905 74.0765 38.36 74.0001C37.5937 73.7128 36.8856 73.2893 36.27 72.7501C35.4098 72.2561 34.5101 71.8346 33.58 71.4901C32.4713 70.9979 31.4377 70.3516 30.51 69.5701C30.0434 69.1717 29.6025 68.7442 29.19 68.2901C28.7828 67.9557 28.5241 67.4741 28.47 66.9501C28.47 65.9501 29.77 65.4201 30.63 65.3201C31.9913 65.2032 33.3619 65.257 34.71 65.4801C36.0681 65.6718 37.4066 65.9831 38.71 66.4101L39.24 66.5401Z" fill="#E4A30B"/>
<path d="M26.61 81.5801L29.53 80.8501C31.9534 80.1259 34.4708 79.7654 37 79.7801C37.5562 79.7725 38.1083 79.8766 38.6236 80.0862C39.1389 80.2957 39.6069 80.6065 40 81.0001C40.4802 81.6522 40.7172 82.4517 40.67 83.2601C40.6665 84.2561 40.3124 85.219 39.67 85.9801C39.1023 86.5148 38.4294 86.9252 37.6942 87.1852C36.9589 87.4452 36.1776 87.549 35.4 87.4901C33.5875 87.4637 31.7806 87.2797 30 86.9401C28.2809 86.7191 26.5992 86.2685 25 85.6001C24.2233 85.2462 23.5103 84.7664 22.89 84.1801C22.65 83.9501 22.14 83.5601 22.16 83.1801C22.18 82.8001 22.84 82.6301 23.16 82.5201C24.27 82.1601 25.44 81.8701 26.61 81.5801Z" fill="#E4A30B"/>
<path d="M41.9 96.55C42.3459 96.4664 42.8043 96.4757 43.2465 96.5772C43.6887 96.6787 44.1052 96.8703 44.47 97.14C44.87 97.6017 45.1016 98.1853 45.127 98.7956C45.1524 99.4059 44.9702 100.007 44.61 100.5C43.61 102.1 41.54 102.73 39.61 103.05C37.9733 103.3 36.3242 103.46 34.67 103.53C33.84 103.53 33.02 103.64 32.19 103.63C31.7 103.63 31.11 103.63 31.13 102.98C31.1653 102.716 31.2614 102.464 31.4106 102.244C31.5598 102.024 31.7582 101.841 31.99 101.71C32.57 101.26 33.16 100.8 33.75 100.36C34.9129 99.4782 36.1434 98.6891 37.43 98C38.6772 97.3183 40.0289 96.8486 41.43 96.61L41.9 96.55Z" fill="#E4A30B"/>
<path d="M47.87 112.05C48.2595 111.433 48.7342 110.874 49.28 110.39C49.7133 110.042 50.2113 109.784 50.745 109.629C51.2788 109.475 51.8379 109.427 52.39 109.49C52.6799 109.5 52.9631 109.579 53.2156 109.722C53.468 109.865 53.6823 110.067 53.84 110.31C53.9379 110.531 53.98 110.772 53.9625 111.013C53.9451 111.253 53.8687 111.486 53.74 111.69C53.4874 112.096 53.1699 112.457 52.8 112.76C51.3864 114.107 49.7949 115.255 48.07 116.17C47.6075 116.395 47.1335 116.595 46.65 116.77C46.4 116.87 46.07 117.06 45.84 116.77C45.42 116.32 45.77 115.44 46.01 115.01C46.59 114 47.21 113 47.87 112.05Z" fill="#E4A30B"/>
<path d="M51.55 54.44C48.55 50.61 43.84 48.3 39.05 47.27C34.2211 46.3984 29.2971 46.1798 24.41 46.62C20.84 46.81 17.16 47.12 14 48.79C18.2899 56.5677 23.9904 63.4788 30.81 69.17C33.75 71.68 37.29 74.17 41.13 73.67C42.59 73.49 44.2 72.59 44.29 71.13C44.2785 70.3414 43.9799 69.5841 43.45 69C40.96 65.85 36.45 65.15 32.45 65.21C23.4779 65.3388 14.7183 67.9598 7.14998 72.78C11.15 78.1 17.31 81.36 23.38 84.12C28.62 86.5 34.73 88.66 40 86.29C41.35 85.68 42.69 84.59 42.79 83.11C42.7742 82.4025 42.5412 81.7169 42.1227 81.1463C41.7041 80.5756 41.1201 80.1475 40.45 79.92C39.0965 79.4909 37.6608 79.3881 36.26 79.62C25.7678 80.6533 15.7591 84.5406 7.31998 90.86C6.95964 91.0916 6.66105 91.4073 6.44998 91.78C5.83998 93.06 7.44998 94.26 8.70998 94.78L20.32 99.9C23.0626 101.192 25.9179 102.23 28.85 103C34.1338 104.208 39.6669 103.671 44.62 101.47C45.696 101.045 46.6483 100.358 47.39 99.47C47.7559 99.0311 47.9819 98.4926 48.039 97.9241C48.096 97.3555 47.9814 96.7829 47.71 96.28C46.71 94.72 44.35 95.06 42.61 95.7C37.4288 97.6542 32.6851 100.614 28.6521 104.408C24.619 108.203 21.3761 112.757 19.11 117.81C19.0156 117.985 18.9675 118.181 18.97 118.38C19.02 118.75 19.4 118.97 19.74 119.12C26.25 122.01 33.81 121.18 40.68 119.28C45.24 118.02 49.8 116.28 53.21 112.96C54.55 111.67 55.75 109.87 55.21 108.08C55.1083 107.685 54.88 107.333 54.56 107.08C53.77 106.52 52.67 107 51.87 107.54" stroke="#322200" stroke-linecap="round" stroke-linejoin="round"/>
<path d="M50.6199 108.61C46.9599 111.86 44.9199 116.61 44.1499 121.49C43.5483 126.359 43.6021 131.286 44.3099 136.14C44.7099 139.69 45.2199 143.35 47.0599 146.41C54.5875 141.699 61.1702 135.625 66.4699 128.5C68.8199 125.43 71.0899 121.76 70.3999 117.95C70.1399 116.5 69.1499 114.95 67.6799 114.95C66.8864 115.013 66.1447 115.37 65.5999 115.95C62.5999 118.61 62.1399 123.13 62.4199 127.15C63.0582 136.104 66.1744 144.705 71.4199 151.99C76.4999 147.67 79.4199 141.36 81.8399 135.15C83.9299 129.78 85.7499 123.56 83.0899 118.45C82.4099 117.13 81.2399 115.85 79.7599 115.84C79.0535 115.892 78.3805 116.162 77.8328 116.611C77.2851 117.06 76.8895 117.667 76.6999 118.35C76.3516 119.726 76.3276 121.163 76.6299 122.55C78.2507 132.965 82.6911 142.738 89.4699 150.81C89.7266 151.165 90.0712 151.448 90.4699 151.63C91.7799 152.16 92.8899 150.53 93.3899 149.2L97.8099 137.32C98.9534 134.513 99.8404 131.607 100.46 128.64C101.366 123.272 100.503 117.755 97.9999 112.92C97.5284 111.875 96.8073 110.961 95.8999 110.26C95.4393 109.92 94.888 109.726 94.3163 109.701C93.7446 109.676 93.1784 109.822 92.6899 110.12C91.1899 111.21 91.6899 113.54 92.3999 115.24C94.6383 120.305 97.8564 124.878 101.869 128.695C105.881 132.512 110.609 135.497 115.78 137.48C115.961 137.565 116.16 137.603 116.36 137.59C116.72 137.52 116.92 137.13 117.05 136.78C119.58 130.12 118.32 122.61 116.05 115.86C114.54 111.38 112.51 106.92 109.05 103.7C107.69 102.44 105.82 101.34 104.05 101.93C103.646 102.041 103.293 102.289 103.05 102.63C102.53 103.45 103.05 104.52 103.66 105.29" stroke="#322200" stroke-linecap="round" stroke-linejoin="round"/>
<path d="M105.45 105C108.25 109 112.76 111.61 117.45 112.94C122.14 114.27 127.13 114.47 132.03 114.51C135.6 114.51 139.3 114.51 142.55 112.99C138.759 104.958 133.503 97.7035 127.05 91.6001C124.28 88.9101 120.9 86.2201 117.05 86.4601C115.58 86.5501 113.91 87.3401 113.73 88.8001C113.691 89.5906 113.94 90.3684 114.43 90.9901C116.73 94.2901 121.16 95.2601 125.18 95.4601C134.144 95.8905 143.051 93.8127 150.9 89.4601C147.22 83.9001 141.3 80.2701 135.41 77.1301C130.33 74.4101 124.41 71.8801 118.97 73.9201C117.58 74.4401 116.18 75.4501 115.97 76.9201C115.943 77.6274 116.134 78.3259 116.517 78.9213C116.899 79.5168 117.455 79.9805 118.11 80.2501C119.43 80.7604 120.852 80.9523 122.26 80.8101C132.797 80.4325 143.03 77.1783 151.85 71.4001C152.224 71.1955 152.541 70.8997 152.77 70.5401C153.45 69.3001 151.96 68.0001 150.7 67.3501L139.46 61.6001C136.801 60.1506 134.017 58.9456 131.14 58.0001C125.947 56.4618 120.396 56.6513 115.32 58.5401C114.222 58.8763 113.228 59.4853 112.43 60.3101C112.037 60.7259 111.776 61.2496 111.682 61.8143C111.587 62.3789 111.663 62.9588 111.9 63.4801C112.81 65.1001 115.18 64.9001 116.96 64.3701C122.254 62.7437 127.174 60.0864 131.437 56.551C135.7 53.0156 139.222 48.6719 141.8 43.7701C141.906 43.602 141.964 43.4086 141.97 43.2101C141.97 42.8401 141.58 42.6001 141.26 42.4301C134.94 39.1401 127.34 39.5001 120.36 40.9601C115.74 41.9601 111.07 43.4201 107.46 46.4801C106.05 47.6801 104.73 49.4101 105.11 51.2301C105.18 51.6405 105.388 52.0146 105.7 52.2901C106.45 52.9001 107.57 52.4901 108.41 52.0001C115.17 48.0001 127.05 45.2601 126.57 19.0701C102.41 30.9601 102.77 37.6901 100.4 45.1601C100.11 46.0801 99.9599 47.2701 100.72 47.8701C101.06 48.1124 101.473 48.2291 101.89 48.2001C103.74 48.2001 105.14 46.5001 105.99 44.8501C108.17 40.6601 108.58 35.7701 108.49 31.0401C108.36 23.9201 107.02 16.4301 102.4 11.0401C102.16 10.7501 101.84 10.4501 101.47 10.5101C101.281 10.563 101.109 10.6628 100.97 10.8001C96.7763 14.3991 93.3342 18.7903 90.8409 23.7221C88.3476 28.6539 86.852 34.0292 86.4399 39.5401C86.3099 41.3901 86.6499 43.7401 88.4399 44.2601C89.0037 44.3819 89.591 44.3318 90.1259 44.116C90.6607 43.9003 91.1185 43.5289 91.4399 43.0501C92.0567 42.0851 92.4244 40.9821 92.5099 39.8401C93.2215 34.4686 92.1686 29.0113 89.5099 24.2901C87.9223 21.6969 86.0979 19.2565 84.0599 17.0001L75.8999 7.30006C74.9999 6.22006 73.3899 5.05006 72.3299 6.00006C72.0335 6.30604 71.8171 6.68044 71.6999 7.09006C68.0396 16.966 67.1509 27.6552 69.1299 38.0001C69.2983 39.4305 69.8019 40.801 70.5999 42.0001C71.0082 42.5804 71.585 43.0212 72.2523 43.2627C72.9195 43.5041 73.6448 43.5347 74.3299 43.3501C75.7199 42.8301 76.3899 41.2401 76.5899 39.7601C77.3699 34.0501 73.5899 28.8101 69.7899 24.4601C65.4099 19.4601 60.5499 14.4601 54.3099 12.1101C51.8307 20.7346 51.7995 29.8788 54.2199 38.5201C55.3099 42.3901 57.2199 46.5201 60.9799 48.0001C61.6937 48.3426 62.5076 48.4137 63.2699 48.2001C64.6499 47.6901 65.0499 45.8901 64.8099 44.4401C64.1799 40.6201 60.8099 37.9301 57.5599 35.8301C50.1739 30.9014 41.9328 27.3946 33.2599 25.4901C32.5499 28.9901 33.2599 32.6101 34.1299 36.0901C35.1009 40.8812 36.705 45.5219 38.8999 49.8901C41.2599 54.1901 44.7899 58.0101 49.3299 59.8901" stroke="#322200" stroke-linecap="round" stroke-linejoin="round"/>
<path d="M79.59 124.17C102.687 124.17 121.41 105.447 121.41 82.35C121.41 59.2535 102.687 40.53 79.59 40.53C56.4935 40.53 37.77 59.2535 37.77 82.35C37.77 105.447 56.4935 124.17 79.59 124.17Z" fill="#7E5515"/>
<path d="M79.59 112.34C96.153 112.34 109.58 98.9131 109.58 82.3501C109.58 65.7871 96.153 52.3601 79.59 52.3601C63.027 52.3601 49.6 65.7871 49.6 82.3501C49.6 98.9131 63.027 112.34 79.59 112.34Z" fill="#A66E01"/>
<path d="M79.59 105.17C92.1932 105.17 102.41 94.9532 102.41 82.35C102.41 69.7469 92.1932 59.53 79.59 59.53C66.9869 59.53 56.77 69.7469 56.77 82.35C56.77 94.9532 66.9869 105.17 79.59 105.17Z" stroke="#322200" stroke-linecap="round" stroke-linejoin="round" stroke-dasharray="3.98 3.98 3.98 3.98 3.98 3.98"/>
<path d="M40.8299 71.7701C42.8299 70.7701 41.2299 66.67 43.3799 66.34L43.2499 64.4301C43.639 64.1408 43.9467 63.7558 44.1429 63.3125C44.3392 62.8691 44.4174 62.3826 44.3699 61.9001C45.8616 59.3521 47.5643 56.9336 49.4599 54.6701C51.6701 51.976 54.2606 49.6179 57.15 47.6701C58.623 46.5296 60.448 45.9389 62.3099 46.0001L64.08 43.2701L65.9999 43.3001C65.9399 42.8901 66.43 42.6301 66.83 42.5101C70.4042 41.4659 74.1064 40.924 77.8299 40.9001L78.8299 40.9901L83.1499 40.6801C83.0699 41.5101 84.4299 41.0601 85.2699 41.0601C86.1099 41.0601 86.5899 41.7001 87.2699 42.0601C87.9499 42.4201 89.0699 42.0001 88.8499 41.2801C89.1384 41.6244 89.5206 41.8777 89.9502 42.0091C90.3797 42.1404 90.8382 42.1442 91.2699 42.0201L92.1099 43.4401L92.9999 42.6101C93.7992 43.4077 94.7622 44.022 95.8224 44.4105C96.8826 44.799 98.0146 44.9524 99.1399 44.8601C99.5356 45.5154 100.104 46.0488 100.784 46.4017C101.463 46.7546 102.226 46.9132 102.99 46.8601C102.55 47.7701 103.83 48.5201 104.81 48.7701C105.79 49.0201 107.02 49.9401 106.43 50.7701L108.14 51.2201C107.82 51.9001 108.35 52.6501 108.85 53.2201L110 54.5201C110.71 55.3301 111.66 56.2201 112.7 55.9401L112.46 57.2801L113.73 57.9701C114.901 59.9715 115.799 62.1205 116.4 64.3601L115.51 65.7401C117.69 66.8401 115.51 71.4301 117.84 72.1401C116.84 72.4101 116.53 73.6601 116.74 74.6501C116.95 75.6401 117.52 76.5201 117.74 77.5101C118.2 79.9601 116.26 82.5101 116.99 84.8501C117.213 85.3546 117.371 85.8856 117.46 86.4301C117.402 86.9767 117.246 87.5085 117 88.0001C116.736 88.8845 116.582 89.798 116.54 90.7201L115.74 100.14C115.43 100.987 114.913 101.743 114.238 102.34C113.562 102.937 112.748 103.356 111.87 103.56C112.055 104.413 112.055 105.297 111.87 106.15C111.12 105.991 110.341 106.029 109.61 106.26C109.635 107.016 109.826 107.757 110.17 108.43C110.066 108.565 109.935 108.676 109.784 108.757C109.634 108.838 109.469 108.886 109.299 108.898C109.129 108.91 108.959 108.886 108.798 108.828C108.638 108.77 108.492 108.679 108.37 108.56C107.918 108.95 107.549 109.425 107.283 109.959C107.017 110.493 106.859 111.075 106.82 111.67H105.15C105.78 112.52 104.88 113.67 103.89 114.07C102.9 114.47 101.75 114.37 100.89 114.93C100.196 115.448 99.6478 116.137 99.2999 116.93L98.0999 115.93C98.8399 116.86 97.3799 117.93 96.2099 118.12C95.0399 118.31 93.4399 118.65 93.5099 119.82L92.1999 119.25C92.2599 119.88 91.4599 120.25 90.8399 120.17C90.2406 119.993 89.6236 119.882 88.9999 119.84C88.3214 120.029 87.6793 120.33 87.0999 120.73C86.4641 120.997 85.7881 121.156 85.0999 121.2L80.7099 121.71C80.1666 121.847 79.6012 121.872 79.0478 121.784C78.4944 121.697 77.9644 121.498 77.4899 121.2C77.3451 121.369 77.1643 121.504 76.9606 121.594C76.757 121.684 76.5357 121.727 76.3132 121.72C76.0906 121.714 75.8724 121.657 75.6746 121.555C75.4767 121.453 75.3043 121.308 75.1699 121.13C74.8131 121.617 74.3021 121.97 73.7199 122.13C73.5813 121.773 73.3314 121.47 73.0071 121.267C72.6828 121.063 72.3016 120.97 71.9199 121C71.1399 121 70.36 121.18 69.58 121.09C68.9776 120.989 68.3942 120.797 67.8499 120.52C66.5499 119.94 65.2499 119.36 63.9799 118.72C58.7424 116.105 54.0039 112.592 49.9799 108.34C48.2699 106.53 46.6999 104.59 45.1299 102.66C44.1299 101.45 43.1299 99.6601 44.1299 98.4701C43.8249 98.3264 43.5552 98.1174 43.3399 97.8579C43.1245 97.5985 42.9689 97.2948 42.884 96.9685C42.7991 96.6422 42.7869 96.3012 42.8485 95.9697C42.91 95.6381 43.0436 95.3242 43.2399 95.0501C41.8099 95.1101 40.8899 93.5501 40.5699 92.1601C40.2499 90.7701 40.1299 89.1601 39.0499 88.2601C39.4871 87.9103 39.8094 87.4375 39.9752 86.9027C40.141 86.368 40.1426 85.7958 39.9799 85.2601C39.7564 84.7837 39.5659 84.2926 39.4099 83.7901C39.3748 83.3708 39.3748 82.9493 39.4099 82.5301C39.3614 81.9437 39.2678 81.362 39.1299 80.7901C38.6399 78.3701 39.8299 74.0001 40.8299 71.7701Z" stroke="#322200" stroke-linecap="round" stroke-linejoin="round"/>
<path d="M53.0999 94.11C53.8199 92.67 51.0999 90.91 52.2099 89.76L51.2999 88.69C51.4008 88.3451 51.4114 87.9802 51.3309 87.63C51.2503 87.2798 51.0813 86.9562 50.8399 86.69C50.6017 84.5218 50.5481 82.3373 50.6799 80.16C50.7889 77.5792 51.2775 75.0284 52.1299 72.59C52.502 71.2619 53.3261 70.1053 54.4599 69.32L54.3099 66.92L55.4599 66.12C55.2399 65.89 55.4599 65.53 55.6099 65.28C57.2672 63.0827 59.2227 61.1272 61.4199 59.47L62.0799 59.06L64.4999 57C64.8199 57.53 65.4399 56.66 65.9399 56.29C66.4399 55.92 66.9999 56.09 67.5399 55.98C68.0799 55.87 68.5399 55.15 68.1299 54.82C68.4543 54.8954 68.7935 54.8761 69.1073 54.7644C69.421 54.6528 69.6961 54.4534 69.8999 54.19L71.0199 54.67L71.1799 53.78C72.0071 53.8998 72.8505 53.8384 73.6517 53.6001C74.4528 53.3619 75.1926 52.9524 75.8199 52.4C76.3457 52.6188 76.9222 52.6861 77.4842 52.5942C78.0462 52.5023 78.5713 52.2549 78.9999 51.88C79.1399 52.62 80.2299 52.5 80.9299 52.21C81.6299 51.92 82.7599 51.93 82.7699 52.68L83.9999 52.19C84.1099 52.73 84.7599 52.95 85.2999 53.06L86.5699 53.33C87.3499 53.5 88.3099 53.6 88.7999 52.98L89.2499 53.88L90.3099 53.74C91.8895 54.4038 93.3701 55.282 94.7099 56.35L94.7999 57.56C96.5699 57.24 97.2999 60.94 98.9999 60.32C98.8164 60.6505 98.7608 61.0369 98.8438 61.4058C98.9268 61.7746 99.1425 62.1 99.4499 62.32C100.01 62.81 100.74 63.09 101.29 63.59C102.64 64.84 102.6 67.19 104.08 68.28C104.446 68.4751 104.783 68.7209 105.08 69.01C105.299 69.3516 105.452 69.7316 105.53 70.13C105.762 70.7717 106.071 71.3829 106.45 71.95L110.14 77.89C110.331 78.5298 110.359 79.2072 110.221 79.8605C110.083 80.5137 109.783 81.1221 109.35 81.63C109.845 82.0423 110.244 82.5576 110.52 83.14C110.006 83.3816 109.562 83.7498 109.23 84.21C109.583 84.6322 110.023 84.9732 110.52 85.21C110.518 85.3351 110.49 85.4583 110.437 85.5717C110.385 85.6852 110.309 85.7862 110.214 85.8683C110.12 85.9504 110.009 86.0117 109.89 86.0481C109.77 86.0846 109.644 86.0955 109.52 86.08C109.423 86.5105 109.413 86.9559 109.49 87.3903C109.567 87.8247 109.731 88.2394 109.97 88.61L108.97 89.37C109.71 89.6 109.71 90.71 109.27 91.37C108.83 92.03 108.13 92.49 107.85 93.22C107.689 93.8432 107.689 94.4968 107.85 95.12H106.71C107.55 95.34 107.18 96.65 106.55 97.25C105.92 97.85 105.14 98.79 105.7 99.46L104.7 99.7C105.01 100.04 104.7 100.61 104.3 100.84C103.866 100.999 103.45 101.203 103.06 101.45C102.737 101.86 102.49 102.324 102.33 102.82C102.067 103.271 101.728 103.673 101.33 104.01L98.9499 106.25C98.686 106.568 98.362 106.83 97.9965 107.022C97.631 107.214 97.2312 107.333 96.8199 107.37C96.8098 107.535 96.7626 107.697 96.682 107.842C96.6014 107.986 96.4894 108.111 96.3542 108.207C96.2189 108.303 96.0639 108.368 95.9005 108.396C95.7371 108.424 95.5695 108.415 95.4099 108.37C95.4204 108.824 95.2758 109.269 94.9999 109.63C94.7707 109.453 94.4894 109.357 94.1999 109.357C93.9105 109.357 93.6292 109.453 93.3999 109.63C92.9199 109.96 92.5499 110.43 92.0499 110.72C91.648 110.928 91.2162 111.074 90.7699 111.15C89.7699 111.38 88.7699 111.6 87.6799 111.79C83.4261 112.541 79.0737 112.541 74.8199 111.79C72.9999 111.47 71.2099 111.02 69.4299 110.56C68.3099 110.27 66.9399 109.67 66.9799 108.56C66.7379 108.603 66.4894 108.594 66.2514 108.532C66.0135 108.47 65.7918 108.357 65.6017 108.201C65.4116 108.045 65.2575 107.85 65.1502 107.629C65.0428 107.408 64.9848 107.166 64.9799 106.92C64.1599 107.59 62.9799 107.07 62.1299 106.39C61.2799 105.71 60.5499 104.82 59.4999 104.74C59.6041 104.339 59.5855 103.916 59.4464 103.525C59.3073 103.135 59.0543 102.795 58.7199 102.55C58.375 102.366 58.0411 102.163 57.7199 101.94C57.5049 101.711 57.3108 101.463 57.1399 101.2C56.8491 100.874 56.5349 100.57 56.1999 100.29C54.7099 99 53.5099 95.91 53.0999 94.11Z" stroke="#322200" stroke-linecap="round" stroke-linejoin="round"/>
<path d="M124.53 18.84C126.43 16.54 129.73 14.14 132.04 16.03C133.28 17.03 133.47 18.84 133.52 20.43C133.648 24.9291 133.312 29.4294 132.52 33.86C131.718 38.3295 130.482 42.7102 128.83 46.9399C127.185 51.1553 125.153 55.2093 122.76 59.0499C120.349 62.9022 117.58 66.5182 114.49 69.8499C111.406 73.1823 107.995 76.1974 104.31 78.8499C102.84 79.8499 100.86 81.85 98.9 81.4C96.48 80.9 97.29 78.33 97.61 76.61C98.5301 71.6509 99.749 66.752 101.26 61.9399C104.287 52.2595 108.449 42.9715 113.66 34.27C116.265 29.9263 119.126 25.7422 122.23 21.74C123 20.75 123.75 19.79 124.53 18.84Z" fill="#023B4F"/>
<path d="M129.77 38.15C133.54 34.56 137.57 31.08 142.4 29.15C147.23 27.22 153.03 27.06 157.4 29.9C160.86 32.15 163 36 164 40.05C164.837 44.1064 165.136 48.2554 164.89 52.39C164.75 60.85 164.42 69.47 161.62 77.45C158.82 85.43 153.15 92.83 145.19 95.71C137.23 98.59 128.19 96.53 119.87 94.28C115.172 93.1752 110.628 91.4959 106.34 89.28C104.295 88.1661 102.422 86.7614 100.78 85.11C99.4099 83.69 97.3799 81.62 98.0899 79.47C98.8899 77.05 100.71 74.69 102.03 72.47C103.49 70.09 105.01 67.7567 106.59 65.47C109.766 60.8124 113.174 56.3167 116.8 52C120.42 47.68 124.25 43.5467 128.29 39.6L129.77 38.15Z" fill="#41BFEF"/>
<path d="M144.17 59.6299C145.813 58.1458 147.183 56.386 148.22 54.4299C149.612 52.2205 150.499 49.7314 150.82 47.1399C150.911 46.5757 150.886 45.9986 150.745 45.4447C150.603 44.8908 150.35 44.3718 150 43.9199C148.92 42.7699 147.06 42.8699 145.56 43.3799C143.279 44.2595 141.19 45.5739 139.41 47.2499C137.779 48.9091 136.303 50.7132 135 52.6399C134.21 54.0799 132.95 55.6399 133.09 57.3699C133.218 58.3805 133.644 59.33 134.314 60.0976C134.983 60.8651 135.866 61.416 136.85 61.6799C139.41 62.4099 142.19 61.2899 144.17 59.6299Z" fill="#ADE2F4"/>
<path d="M146.21 76.44C147.655 75.9819 149.009 75.2745 150.21 74.35C151.765 73.3215 153.096 71.9879 154.12 70.43C154.606 69.7399 154.836 68.9016 154.77 68.06C154.632 67.5641 154.341 67.1244 153.939 66.8031C153.537 66.4818 153.044 66.2952 152.53 66.27C150.953 66.1078 149.359 66.2921 147.86 66.81C146.376 67.3648 144.95 68.0613 143.6 68.89C142.68 69.57 141.45 70.2 140.95 71.36C140.674 72.0165 140.583 72.7358 140.685 73.4405C140.787 74.1452 141.079 74.8088 141.53 75.36C142.136 75.9527 142.893 76.3671 143.718 76.5576C144.544 76.7481 145.406 76.7074 146.21 76.44V76.44Z" fill="#ADE2F4"/>
<path d="M98.65 80.0899C103.452 70.546 109.056 61.4266 115.4 52.8299C121.16 44.9999 127.5 36.9999 135.76 31.7199C139.51 29.3199 144.05 27.1199 148.57 26.9199C150.57 26.8399 152.83 27.2099 154.19 28.8399C155.88 30.8399 155.39 33.8399 154.71 36.1499C153.218 41.0265 151.086 45.6837 148.37 49.9999C147.04 52.1433 145.58 54.2038 144 56.1699C142.58 57.9599 141 60.0999 138.64 60.7399C138.113 60.9353 137.534 60.9425 137.002 60.7603C136.47 60.5781 136.017 60.2176 135.72 59.7399C135.331 58.7778 135.331 57.7021 135.72 56.7399C136.566 54.59 137.815 52.6214 139.4 50.9399C142.47 47.2699 147.2 43.7199 152.27 45.3099C156.46 46.6299 157.99 51.2099 158 55.1999C157.887 59.719 156.501 64.1143 154 67.8799C152.73 70.0176 151.083 71.908 149.14 73.4599C147.75 74.4599 145.03 75.8299 143.56 74.2299C141.71 72.2299 144.01 69.2299 145.78 68.0499C147.417 67.0401 149.334 66.581 151.25 66.7399C155.71 67.0599 158.95 70.4699 159.98 74.6799C160.453 76.9122 160.397 79.2242 159.817 81.4311C159.237 83.638 158.149 85.6786 156.64 87.3899C150.21 95.1199 139.24 97.2399 129.69 96.0799C124.329 95.3308 119.104 93.8083 114.18 91.5599C111.82 90.5599 109.51 89.3799 107.24 88.1699C105.134 87.1679 103.125 85.9728 101.24 84.5999C99.67 83.3499 98.58 81.7999 98.78 79.7199C98.87 78.7199 97.37 78.7199 97.28 79.7199C96.8 84.7199 102.38 87.2799 106.07 89.2599C111.544 92.321 117.366 94.7148 123.41 96.3899C134.18 99.1499 146.91 98.3899 155.55 90.6599C159.32 87.2799 162 82.4999 161.83 77.3199C161.67 72.7199 159.29 67.9899 154.91 66.1199C150.91 64.4199 145.78 65.1199 142.97 68.5599C141.61 70.2299 140.8 72.7899 142.06 74.7399C143.21 76.4999 145.38 76.7399 147.24 76.1099C149.539 75.2104 151.541 73.6864 153.02 71.7099C154.802 69.5999 156.267 67.2419 157.37 64.7099C159.3 60.2999 160.37 55.1699 158.91 50.4599C157.45 45.7499 153.42 42.8199 148.47 43.4599C143.03 44.1699 139.14 48.4599 136.15 52.7199C134.92 54.4699 133.75 56.7199 134.03 58.9399C134.143 59.9177 134.628 60.8145 135.383 61.4454C136.139 62.0762 137.108 62.3929 138.09 62.3299C140.51 62.1799 142.56 60.3299 144.04 58.5299C145.933 56.2738 147.67 53.8917 149.24 51.3999C152.9 45.5999 163.64 26.6599 150.18 25.3999C145.18 24.9399 139.86 27.3999 135.71 29.9499C131.032 32.94 126.809 36.5873 123.17 40.7799C114.979 50.054 107.814 60.1862 101.8 70.9999C100.26 73.7199 98.7867 76.4799 97.38 79.2799C96.95 80.1399 98.24 80.8999 98.68 80.0299L98.65 80.0899Z" fill="#023B4F"/>
<path d="M200.188 94.25C197.375 102.812 194.281 108.542 190.906 111.438C189.385 112.771 188.104 113.438 187.062 113.438C185.896 113.458 185.302 113.177 185.281 112.594C185.281 112.427 185.427 112.302 185.719 112.219C185.99 112.135 186.125 112.083 186.125 112.062C187.625 111.562 189.094 110.344 190.531 108.406C191.031 107.719 191.458 107.031 191.812 106.344C194.042 101.781 196 96.6042 197.688 90.8125C199.375 85.0208 201.542 75.9375 204.188 63.5625C204.312 63 204.542 61.8229 204.875 60.0312C205.229 58.2396 205.5 56.9479 205.688 56.1562C205.896 55.3438 206.052 54.5833 206.156 53.875C206.26 53.1667 206.469 52.6875 206.781 52.4375C207.115 52.1875 207.812 52.0625 208.875 52.0625C209.479 52.1042 209.792 52.3854 209.812 52.9062C209.812 53.1354 209.552 54.2917 209.031 56.375C208.531 58.4375 207.323 64.1042 205.406 73.375C203.49 82.625 201.75 89.5833 200.188 94.25ZM222.062 68.5938C218.729 69.1562 215.823 71.3438 213.344 75.1562C210.927 78.8646 209.656 82.5312 209.531 86.1562C214.302 79.8646 218.479 74.0104 222.062 68.5938ZM220.625 65.9375L222.469 66.1875C222.76 66.1875 223.062 66.0208 223.375 65.6875C223.708 65.3542 224.125 65.1875 224.625 65.1875C225.146 65.1875 225.552 65.3229 225.844 65.5938C226.156 65.8646 226.312 66.1042 226.312 66.3125C226.312 66.5 226.208 66.8229 226 67.2812C225.792 67.7396 225.667 68.0417 225.625 68.1875C222.854 76.875 221.469 82.4167 221.469 84.8125C221.49 85.6458 221.677 86.0729 222.031 86.0938C223.302 86.0938 225.292 84.4271 228 81.0938C229.812 78.8646 230.979 77.2292 231.5 76.1875C232.042 75.1458 232.469 74.5938 232.781 74.5312C232.844 74.5312 232.896 74.5208 232.938 74.5C233.312 74.5417 233.51 74.7604 233.531 75.1562C233.531 75.9062 232.667 77.5938 230.938 80.2188C227.25 85.8438 224.062 88.6562 221.375 88.6562C219.438 88.6562 218.469 87.3021 218.469 84.5938C218.469 83.3021 218.729 81.6979 219.25 79.7812C219.771 77.8438 220.083 76.6354 220.188 76.1562C219.708 76.7812 218.104 79.0521 215.375 82.9688C212.646 86.8854 210.688 89.1979 209.5 89.9062C209.125 90.1146 208.802 90.2292 208.531 90.25C207.344 90.25 206.479 89.7812 205.938 88.8438C205.688 88.3854 205.562 87.7292 205.562 86.875C205.542 86 206.177 84 207.469 80.875C209.552 75.8333 211.917 71.9479 214.562 69.2188C216.646 67.0938 218.667 66 220.625 65.9375ZM243.812 65.3438L244.625 65.25C245.771 65.2708 246.885 65.875 247.969 67.0625C247.469 67.5625 247.219 68.3542 247.219 69.4375C247.406 69.4375 247.594 69.4792 247.781 69.5625C248.51 69.9375 248.875 70.75 248.875 72C248.562 72.0208 247.844 72.6979 246.719 74.0312C245.594 75.3646 244.969 76.2083 244.844 76.5625C244.719 76.9167 243.885 79.1042 242.344 83.125C240.802 87.125 239.927 89.4271 239.719 90.0312C236.115 100.01 234.312 107.75 234.312 113.25C234.312 116.292 234.833 118.458 235.875 119.75C236.312 120.188 236.542 120.552 236.562 120.844C236.583 121.135 236.5 121.302 236.312 121.344C236.042 121.323 235.552 121.094 234.844 120.656C234.156 120.24 233.354 119.156 232.438 117.406C231.542 115.656 231.104 113.417 231.125 110.688C231.125 106.062 233.771 96.6458 239.062 82.4375L240.469 78.6875C240.052 78.8125 239.656 78.9896 239.281 79.2188C238.927 79.4479 237.448 80.5312 234.844 82.4688C232.24 84.3854 230.229 85.3438 228.812 85.3438C228.521 85.3438 228.156 85.2188 227.719 84.9688C226.781 84.4271 226.312 83.8438 226.312 83.2188C226.312 82.5938 226.688 81.7188 227.438 80.5938C228.167 79.4688 229.594 77.8646 231.719 75.7812C233.865 73.6771 235.198 72.3438 235.719 71.7812C236.26 71.2188 236.969 70.5417 237.844 69.75C240.781 67.0625 242.771 65.5938 243.812 65.3438ZM233.938 79.5938C234.646 79.5938 236.604 78.2604 239.812 75.5938L241.625 74.2188C244.75 71.8646 246.312 70.2917 246.312 69.5C245.833 68.7292 245.5 68.3438 245.312 68.3438L244.688 68.6875C243.188 69.625 241.271 71.0729 238.938 73.0312C235.271 76.1354 233.448 78.1771 233.469 79.1562C233.49 79.4271 233.646 79.5729 233.938 79.5938ZM256.312 62.5938C257.167 62.9062 257.604 63.3229 257.625 63.8438C257.625 64.0312 257.479 64.5417 257.188 65.375C257.188 65.375 256.792 66.5104 256 68.7812C253.208 76.7812 251.635 82.0729 251.281 84.6562C252.823 82.3021 254.677 78.9479 256.844 74.5938C259.031 70.2188 260.354 67.6042 260.812 66.75C261.271 65.8958 261.615 65.1667 261.844 64.5625C262.094 63.9583 262.323 63.625 262.531 63.5625C262.74 63.4792 263.125 63.4375 263.688 63.4375C264.521 63.4375 264.938 63.8229 264.938 64.5938C264.875 64.9896 264.427 66.2917 263.594 68.5C262.781 70.6875 261.896 73.625 260.938 77.3125C260 80.9792 259.531 83.5625 259.531 85.0625C259.552 86.5417 259.698 87.3021 259.969 87.3438C260.885 87.3438 262.531 86.0417 264.906 83.4375C267.302 80.8125 269.052 78.4479 270.156 76.3438C270.615 75.5104 271.052 75.0833 271.469 75.0625C271.677 75.1042 271.792 75.2708 271.812 75.5625C271.812 77.3125 270.646 79.5938 268.312 82.4062C266 85.2188 264.01 87.1979 262.344 88.3438L261.719 88.75C261.01 89.125 260.49 89.3125 260.156 89.3125H259.625C257.792 89 256.854 87.4583 256.812 84.6875C256.812 83.3125 257.021 81.8958 257.438 80.4375L258.125 77.9062C256.083 82.3854 254.375 85.4688 253 87.1562C251.646 88.8229 250.417 89.6562 249.312 89.6562C248.479 89.6146 248.062 88.8646 248.062 87.4062C248.062 84.9896 248.917 80.9375 250.625 75.25C253.042 67.2292 254.562 62.9896 255.188 62.5312C255.312 62.4688 255.458 62.4375 255.625 62.4375C255.792 62.4375 256.021 62.4896 256.312 62.5938ZM274.875 73.6875C275.292 73.625 276.188 72.7292 277.562 71C278.938 69.2708 279.625 67.9167 279.625 66.9375C279.625 66.7917 279.573 66.625 279.469 66.4375C279.052 66.8542 278.177 68.0417 276.844 70C275.531 71.9583 274.875 73.1875 274.875 73.6875ZM287.312 78.3438C288.354 77.2188 288.938 77.0208 289.062 77.75C289.062 78.0208 288.896 78.4688 288.562 79.0938C287.542 80.9896 285.979 83 283.875 85.125C280.542 88.5 277.594 90.1875 275.031 90.1875C273.823 90.1875 272.792 89.8438 271.938 89.1562C270.333 87.8438 269.531 85.5625 269.531 82.3125C269.531 80.4583 270.094 77.8542 271.219 74.5C272.365 71.125 274.115 68.0729 276.469 65.3438C277.51 64.0104 278.594 63.3438 279.719 63.3438C280.26 63.3438 280.823 63.4583 281.406 63.6875C282.781 64.25 283.469 65.1562 283.469 66.4062C283.469 66.5938 283.406 66.8958 283.281 67.3125C282.427 69 281.052 70.9479 279.156 73.1562C277.26 75.3646 275.333 77.125 273.375 78.4375C272.708 80.8542 272.375 82.7396 272.375 84.0938C272.375 85.4479 272.406 86.3125 272.469 86.6875C272.656 87.5625 273.354 88 274.562 88C275.771 88 277.167 87.4479 278.75 86.3438C280.333 85.2188 282.021 83.7396 283.812 81.9062C285.604 80.0729 286.615 79.0417 286.844 78.8125C287.094 78.5833 287.25 78.4271 287.312 78.3438ZM286.844 90.9375C286.844 92.625 287.177 94.25 287.844 95.8125C288.969 98.4375 290.635 99.75 292.844 99.75C294.573 99.75 296.021 99.3021 297.188 98.4062C298.375 97.5312 299.771 96.0833 301.375 94.0625C301.875 93.4167 302.396 93.1979 302.938 93.4062C303.479 93.5938 303.75 94.0208 303.75 94.6875C303.75 96.6458 302.583 98.3229 300.25 99.7188C297.938 101.115 295.729 101.812 293.625 101.812C287.396 101.812 284.281 98.125 284.281 90.75C284.281 87.5208 284.885 84.1562 286.094 80.6562L286.406 79.75C290.302 68.5833 293.323 61.0938 295.469 57.2812C296.969 54.5312 298.594 53.1562 300.344 53.1562C302.823 53.1771 304.083 54.0729 304.125 55.8438C304.125 56.9479 303.385 58.6979 301.906 61.0938C300.427 63.4688 297.458 67.625 293 73.5625C291.875 74.8333 290.875 76.2708 290 77.875C287.896 81.8333 286.844 86.1875 286.844 90.9375ZM292.594 70.0625C292.906 70.0417 294.344 67.7917 296.906 63.3125C299.49 58.8125 300.771 56.4896 300.75 56.3438C300.729 56.1771 300.646 56.0938 300.5 56.0938C300.354 56.0729 300.26 56.0833 300.219 56.125C299.531 56.5417 298.073 58.7604 295.844 62.7812C293.635 66.7812 292.531 69.1562 292.531 69.9062C292.531 69.9688 292.552 70.0208 292.594 70.0625ZM313.812 68.5938C310.479 69.1562 307.573 71.3438 305.094 75.1562C302.677 78.8646 301.406 82.5312 301.281 86.1562C306.052 79.8646 310.229 74.0104 313.812 68.5938ZM312.375 65.9375L314.219 66.1875C314.51 66.1875 314.812 66.0208 315.125 65.6875C315.458 65.3542 315.875 65.1875 316.375 65.1875C316.896 65.1875 317.302 65.3229 317.594 65.5938C317.906 65.8646 318.062 66.1042 318.062 66.3125C318.062 66.5 317.958 66.8229 317.75 67.2812C317.542 67.7396 317.417 68.0417 317.375 68.1875C314.604 76.875 313.219 82.4167 313.219 84.8125C313.24 85.6458 313.427 86.0729 313.781 86.0938C315.052 86.0938 317.042 84.4271 319.75 81.0938C321.562 78.8646 322.729 77.2292 323.25 76.1875C323.792 75.1458 324.219 74.5938 324.531 74.5312C324.594 74.5312 324.646 74.5208 324.688 74.5C325.062 74.5417 325.26 74.7604 325.281 75.1562C325.281 75.9062 324.417 77.5938 322.688 80.2188C319 85.8438 315.812 88.6562 313.125 88.6562C311.188 88.6562 310.219 87.3021 310.219 84.5938C310.219 83.3021 310.479 81.6979 311 79.7812C311.521 77.8438 311.833 76.6354 311.938 76.1562C311.458 76.7812 309.854 79.0521 307.125 82.9688C304.396 86.8854 302.438 89.1979 301.25 89.9062C300.875 90.1146 300.552 90.2292 300.281 90.25C299.094 90.25 298.229 89.7812 297.688 88.8438C297.438 88.3854 297.312 87.7292 297.312 86.875C297.292 86 297.927 84 299.219 80.875C301.302 75.8333 303.667 71.9479 306.312 69.2188C308.396 67.0938 310.417 66 312.375 65.9375ZM330.969 60.1875C330.865 60.1458 330.604 59.9792 330.188 59.6875C329.688 59.3333 329.438 59.0729 329.438 58.9062C329.438 58.3438 330.219 57.0208 331.781 54.9375C333.344 52.8542 334.229 51.6042 334.438 51.1875C334.958 50.6667 335.677 50.9271 336.594 51.9688C337.323 52.8438 337.552 53.5521 337.281 54.0938C337.135 54.6354 336.25 55.7812 334.625 57.5312C333 59.2812 331.781 60.1667 330.969 60.1875ZM338.438 79.8125C337.667 81.9792 336.135 84.1875 333.844 86.4375C331.135 89.1042 328.865 90.4375 327.031 90.4375C324.552 90.4375 323 89.0312 322.375 86.2188C322.188 85.3646 322.094 84.4375 322.094 83.4375C322.073 80.2083 322.688 76.4688 323.938 72.2188C325.5 66.8438 326.979 64.1562 328.375 64.1562C329.062 64.1562 329.562 64.3229 329.875 64.6562C330.208 64.9688 330.375 65.1979 330.375 65.3438C330.375 66.0104 329.698 67.6562 328.344 70.2812C326.99 72.8854 326.146 74.7812 325.812 75.9688C325.5 77.1354 325.26 78.6667 325.094 80.5625C324.948 82.4375 324.875 83.6458 324.875 84.1875C324.875 86.0208 325.094 87.1667 325.531 87.625C325.99 88.0833 326.542 88.3229 327.188 88.3438C329.021 88.3438 331.208 86.75 333.75 83.5625C334.979 82 335.938 80.5625 336.625 79.25C336.938 78.75 337.26 78.5 337.594 78.5C338.156 78.5833 338.469 78.8646 338.531 79.3438C338.531 79.4062 338.5 79.5625 338.438 79.8125ZM359.875 77.3125C359.875 78.3542 358.688 80.2708 356.312 83.0625C353.938 85.8542 352.156 87.6979 350.969 88.5938C349.802 89.4688 348.625 89.9062 347.438 89.9062C345.229 89.8854 344.125 88.1354 344.125 84.6562C344.125 83.0104 344.458 80.4375 345.125 76.9375C345.792 73.4167 346.146 71.5 346.188 71.1875C343.979 71.9167 341.865 74.6875 339.844 79.5C339.427 80.5208 338.76 82.2604 337.844 84.7188C336.948 87.1562 336.312 88.6042 335.938 89.0625C335.479 89.6042 334.875 89.875 334.125 89.875C333.375 89.875 332.99 89.6042 332.969 89.0625C332.969 88.0625 336.312 79.7708 343 64.1875C344.042 61.7292 344.646 60.3542 344.812 60.0625C345.167 59.375 345.906 59.4062 347.031 60.1562C347.365 60.3854 347.531 60.6146 347.531 60.8438C347.552 61.0729 347.396 61.4375 347.062 61.9375C346.292 63.1458 345.604 64.5521 345 66.1562L343.812 69.25L344.812 68.0312C345.708 66.9271 346.427 66.0938 346.969 65.5312C347.51 64.9479 347.958 64.625 348.312 64.5625C348.688 64.4792 349.073 64.4375 349.469 64.4375C350.323 64.5 350.771 64.9583 350.812 65.8125C350.812 66.2292 350.667 66.7917 350.375 67.5C349.062 70.5208 348.052 75.0938 347.344 81.2188C347.156 82.9688 347.062 84.5104 347.062 85.8438C347.083 87.1562 347.406 87.8229 348.031 87.8438C348.906 87.8438 350.5 86.4896 352.812 83.7812C355.125 81.0521 356.792 78.7917 357.812 77C358.083 76.5625 358.469 76.3333 358.969 76.3125C359.49 76.4375 359.792 76.7708 359.875 77.3125ZM362.375 73.6875C362.792 73.625 363.688 72.7292 365.062 71C366.438 69.2708 367.125 67.9167 367.125 66.9375C367.125 66.7917 367.073 66.625 366.969 66.4375C366.552 66.8542 365.677 68.0417 364.344 70C363.031 71.9583 362.375 73.1875 362.375 73.6875ZM374.812 78.3438C375.854 77.2188 376.438 77.0208 376.562 77.75C376.562 78.0208 376.396 78.4688 376.062 79.0938C375.042 80.9896 373.479 83 371.375 85.125C368.042 88.5 365.094 90.1875 362.531 90.1875C361.323 90.1875 360.292 89.8438 359.438 89.1562C357.833 87.8438 357.031 85.5625 357.031 82.3125C357.031 80.4583 357.594 77.8542 358.719 74.5C359.865 71.125 361.615 68.0729 363.969 65.3438C365.01 64.0104 366.094 63.3438 367.219 63.3438C367.76 63.3438 368.323 63.4583 368.906 63.6875C370.281 64.25 370.969 65.1562 370.969 66.4062C370.969 66.5938 370.906 66.8958 370.781 67.3125C369.927 69 368.552 70.9479 366.656 73.1562C364.76 75.3646 362.833 77.125 360.875 78.4375C360.208 80.8542 359.875 82.7396 359.875 84.0938C359.875 85.4479 359.906 86.3125 359.969 86.6875C360.156 87.5625 360.854 88 362.062 88C363.271 88 364.667 87.4479 366.25 86.3438C367.833 85.2188 369.521 83.7396 371.312 81.9062C373.104 80.0729 374.115 79.0417 374.344 78.8125C374.594 78.5833 374.75 78.4271 374.812 78.3438ZM408.812 57.3125C408.812 60.625 406.896 63.2188 403.062 65.0938C403.729 70.7604 404.333 75.3646 404.875 78.9062C405.625 83.7188 406.667 87.1562 408 89.2188C409.167 91.1771 410.5 92.4062 412 92.9062C412.458 93.0104 412.698 93.1875 412.719 93.4375C412.698 93.6875 412.229 93.8229 411.312 93.8438C409.729 93.8229 408.135 92.8646 406.531 90.9688C404.927 89.0938 403.823 87.1562 403.219 85.1562C403.156 84.9896 403.115 84.8333 403.094 84.6875C401.906 80.875 400.854 74.7917 399.938 66.4375L398.312 67C395.229 76.7708 393.167 84.3542 392.125 89.75C391.958 90.2083 391.792 90.4583 391.625 90.5C391.271 90.4792 390.854 90.2188 390.375 89.7188C389.917 89.2188 389.677 88.6562 389.656 88.0312C389.656 87.3854 390.375 84.2396 391.812 78.5938C393.25 72.9479 395.469 65.1354 398.469 55.1562C398.573 54.8021 398.75 54.4688 399 54.1562C399.854 53.0938 401.26 52.5625 403.219 52.5625C404.365 52.5625 405.583 52.9792 406.875 53.8125C408.167 54.6458 408.812 55.8125 408.812 57.3125ZM401.125 56C400.938 57.0208 400.531 58.625 399.906 60.8125C399.281 62.9792 398.938 64.1562 398.875 64.3438C399.604 64.1979 400.333 63.9792 401.062 63.6875C403.979 62.4792 405.427 60.6042 405.406 58.0625C405.406 57.9375 405.396 57.7708 405.375 57.5625C405.146 56.1458 404.542 55.4375 403.562 55.4375C402.583 55.4375 401.771 55.625 401.125 56ZM419.031 67.0625C417.99 67.2292 416.646 69.8333 415 74.875C413.354 79.9167 412.531 82.8958 412.531 83.8125C412.531 84.7292 412.615 85.1875 412.781 85.1875C413.656 85.1875 415.021 83.3125 416.875 79.5625C418.729 75.7917 419.656 72.3438 419.656 69.2188C419.656 67.8021 419.448 67.0833 419.031 67.0625ZM418.531 63.1875C419.115 63.1875 419.615 63.3542 420.031 63.6875C420.76 64.3125 421.125 65.5208 421.125 67.3125C421.125 75.5 419.667 81.6354 416.75 85.7188L416.312 86.375C414.5 89 413.042 90.3125 411.938 90.3125C410.583 90.1667 409.802 89.1771 409.594 87.3438C409.594 85.8229 410.208 82.7396 411.438 78.0938C412.688 73.4479 414.115 69.4271 415.719 66.0312C416.635 64.1562 417.573 63.2083 418.531 63.1875ZM432.625 67.1562C432.625 70.2604 431.792 71.8125 430.125 71.8125C429.708 71.8125 429.312 71.7083 428.938 71.5C429.104 75.1667 429.188 78.3333 429.188 81C429.188 87.6042 427.615 90.9062 424.469 90.9062C423.74 90.9062 423.062 90.7083 422.438 90.3125C421.292 89.6042 420.719 88.5833 420.719 87.25C420.74 86.2708 421.375 85.7708 422.625 85.75C422.979 85.7708 423.219 85.8958 423.344 86.125C423.469 86.3333 423.552 86.8542 423.594 87.6875C423.656 88.5208 423.917 88.9375 424.375 88.9375C425.812 88.9167 426.542 86.7708 426.562 82.5L425.938 65.9375C425.938 65.5 426.052 65.1146 426.281 64.7812C426.74 64.0938 427.385 63.75 428.219 63.75C429.052 63.75 429.781 63.8646 430.406 64.0938C431.885 64.6771 432.625 65.6979 432.625 67.1562ZM430.125 67.4375L430.031 66.5938C429.802 66.5938 429.594 66.6667 429.406 66.8125C428.885 67.1875 428.625 67.6562 428.625 68.2188C428.625 68.7812 428.646 69.125 428.688 69.25C429.604 69.1042 430.083 68.5 430.125 67.4375ZM446 68.5938C442.667 69.1562 439.76 71.3438 437.281 75.1562C434.865 78.8646 433.594 82.5312 433.469 86.1562C438.24 79.8646 442.417 74.0104 446 68.5938ZM444.562 65.9375L446.406 66.1875C446.698 66.1875 447 66.0208 447.312 65.6875C447.646 65.3542 448.062 65.1875 448.562 65.1875C449.083 65.1875 449.49 65.3229 449.781 65.5938C450.094 65.8646 450.25 66.1042 450.25 66.3125C450.25 66.5 450.146 66.8229 449.938 67.2812C449.729 67.7396 449.604 68.0417 449.562 68.1875C446.792 76.875 445.406 82.4167 445.406 84.8125C445.427 85.6458 445.615 86.0729 445.969 86.0938C447.24 86.0938 449.229 84.4271 451.938 81.0938C453.75 78.8646 454.917 77.2292 455.438 76.1875C455.979 75.1458 456.406 74.5938 456.719 74.5312C456.781 74.5312 456.833 74.5208 456.875 74.5C457.25 74.5417 457.448 74.7604 457.469 75.1562C457.469 75.9062 456.604 77.5938 454.875 80.2188C451.188 85.8438 448 88.6562 445.312 88.6562C443.375 88.6562 442.406 87.3021 442.406 84.5938C442.406 83.3021 442.667 81.6979 443.188 79.7812C443.708 77.8438 444.021 76.6354 444.125 76.1562C443.646 76.7812 442.042 79.0521 439.312 82.9688C436.583 86.8854 434.625 89.1979 433.438 89.9062C433.062 90.1146 432.74 90.2292 432.469 90.25C431.281 90.25 430.417 89.7812 429.875 88.8438C429.625 88.3854 429.5 87.7292 429.5 86.875C429.479 86 430.115 84 431.406 80.875C433.49 75.8333 435.854 71.9479 438.5 69.2188C440.583 67.0938 442.604 66 444.562 65.9375Z" fill="#023B4F"/>
<path d="M351.684 105.723C353.526 105.723 354.87 106.084 355.717 106.807C356.57 107.523 356.996 108.551 356.996 109.893C356.996 110.498 356.895 111.074 356.693 111.621C356.498 112.161 356.179 112.64 355.736 113.057C355.294 113.467 354.711 113.792 353.988 114.033C353.272 114.268 352.393 114.385 351.352 114.385H349.613V120H347.953V105.723H351.684ZM351.527 107.139H349.613V112.959H351.166C352.077 112.959 352.836 112.861 353.441 112.666C354.053 112.471 354.512 112.155 354.818 111.719C355.124 111.276 355.277 110.69 355.277 109.961C355.277 109.01 354.975 108.304 354.369 107.842C353.764 107.373 352.816 107.139 351.527 107.139ZM368.041 116.201C368.041 117.048 367.829 117.77 367.406 118.369C366.99 118.962 366.404 119.414 365.648 119.727C364.893 120.039 364.005 120.195 362.982 120.195C362.442 120.195 361.931 120.169 361.449 120.117C360.967 120.065 360.525 119.99 360.121 119.893C359.717 119.795 359.363 119.674 359.057 119.531V117.939C359.545 118.141 360.141 118.33 360.844 118.506C361.547 118.675 362.283 118.76 363.051 118.76C363.767 118.76 364.372 118.665 364.867 118.477C365.362 118.281 365.736 118.005 365.99 117.646C366.251 117.282 366.381 116.846 366.381 116.338C366.381 115.85 366.273 115.443 366.059 115.117C365.844 114.785 365.486 114.486 364.984 114.219C364.49 113.945 363.812 113.656 362.953 113.35C362.348 113.135 361.814 112.9 361.352 112.646C360.889 112.386 360.502 112.093 360.189 111.768C359.877 111.442 359.639 111.064 359.477 110.635C359.32 110.205 359.242 109.714 359.242 109.16C359.242 108.398 359.434 107.747 359.818 107.207C360.209 106.66 360.746 106.243 361.43 105.957C362.12 105.664 362.911 105.518 363.803 105.518C364.564 105.518 365.268 105.589 365.912 105.732C366.563 105.876 367.159 106.068 367.699 106.309L367.182 107.734C366.667 107.52 366.12 107.34 365.541 107.197C364.968 107.054 364.376 106.982 363.764 106.982C363.152 106.982 362.634 107.074 362.211 107.256C361.794 107.432 361.475 107.682 361.254 108.008C361.033 108.333 360.922 108.721 360.922 109.17C360.922 109.671 361.026 110.088 361.234 110.42C361.449 110.752 361.788 111.048 362.25 111.309C362.719 111.562 363.337 111.829 364.105 112.109C364.945 112.415 365.658 112.741 366.244 113.086C366.83 113.424 367.276 113.841 367.582 114.336C367.888 114.824 368.041 115.446 368.041 116.201ZM370.961 120V105.723H372.621V120H370.961ZM382.65 106.982C381.863 106.982 381.153 107.119 380.521 107.393C379.896 107.66 379.363 108.05 378.92 108.564C378.484 109.072 378.148 109.688 377.914 110.41C377.68 111.133 377.562 111.947 377.562 112.852C377.562 114.049 377.748 115.091 378.119 115.977C378.497 116.855 379.057 117.536 379.799 118.018C380.548 118.499 381.482 118.74 382.602 118.74C383.24 118.74 383.839 118.688 384.398 118.584C384.965 118.473 385.515 118.337 386.049 118.174V119.619C385.528 119.814 384.981 119.958 384.408 120.049C383.835 120.146 383.155 120.195 382.367 120.195C380.915 120.195 379.701 119.896 378.725 119.297C377.755 118.691 377.025 117.839 376.537 116.738C376.055 115.638 375.814 114.339 375.814 112.842C375.814 111.761 375.964 110.775 376.264 109.883C376.57 108.984 377.012 108.21 377.592 107.559C378.178 106.908 378.894 106.406 379.74 106.055C380.593 105.697 381.57 105.518 382.67 105.518C383.393 105.518 384.089 105.589 384.76 105.732C385.43 105.876 386.036 106.081 386.576 106.348L385.912 107.754C385.456 107.546 384.955 107.367 384.408 107.217C383.868 107.061 383.282 106.982 382.65 106.982ZM401.527 112.842C401.527 113.942 401.387 114.945 401.107 115.85C400.827 116.748 400.411 117.523 399.857 118.174C399.311 118.818 398.63 119.316 397.816 119.668C397.003 120.02 396.059 120.195 394.984 120.195C393.878 120.195 392.911 120.02 392.084 119.668C391.264 119.316 390.58 118.815 390.033 118.164C389.493 117.513 389.086 116.735 388.812 115.83C388.546 114.925 388.412 113.923 388.412 112.822C388.412 111.364 388.653 110.085 389.135 108.984C389.617 107.884 390.346 107.028 391.322 106.416C392.305 105.804 393.536 105.498 395.014 105.498C396.426 105.498 397.615 105.801 398.578 106.406C399.548 107.012 400.281 107.865 400.775 108.965C401.277 110.059 401.527 111.351 401.527 112.842ZM390.16 112.842C390.16 114.053 390.333 115.101 390.678 115.986C391.023 116.872 391.55 117.555 392.26 118.037C392.976 118.519 393.884 118.76 394.984 118.76C396.091 118.76 396.996 118.519 397.699 118.037C398.409 117.555 398.933 116.872 399.271 115.986C399.61 115.101 399.779 114.053 399.779 112.842C399.779 110.999 399.392 109.561 398.617 108.525C397.849 107.484 396.648 106.963 395.014 106.963C393.907 106.963 392.995 107.201 392.279 107.676C391.563 108.151 391.029 108.828 390.678 109.707C390.333 110.579 390.16 111.624 390.16 112.842ZM397.807 101.094V101.289C397.676 101.478 397.497 101.706 397.27 101.973C397.048 102.233 396.801 102.51 396.527 102.803C396.254 103.089 395.977 103.363 395.697 103.623C395.424 103.883 395.17 104.108 394.936 104.297H393.852V104.062C394.06 103.815 394.288 103.519 394.535 103.174C394.783 102.822 395.023 102.464 395.258 102.1C395.492 101.729 395.688 101.393 395.844 101.094H397.807ZM404.711 120V105.723H406.371V118.516H412.709V120H404.711ZM427.543 112.842C427.543 113.942 427.403 114.945 427.123 115.85C426.843 116.748 426.426 117.523 425.873 118.174C425.326 118.818 424.646 119.316 423.832 119.668C423.018 120.02 422.074 120.195 421 120.195C419.893 120.195 418.926 120.02 418.1 119.668C417.279 119.316 416.596 118.815 416.049 118.164C415.508 117.513 415.102 116.735 414.828 115.83C414.561 114.925 414.428 113.923 414.428 112.822C414.428 111.364 414.669 110.085 415.15 108.984C415.632 107.884 416.361 107.028 417.338 106.416C418.321 105.804 419.551 105.498 421.029 105.498C422.442 105.498 423.63 105.801 424.594 106.406C425.564 107.012 426.296 107.865 426.791 108.965C427.292 110.059 427.543 111.351 427.543 112.842ZM416.176 112.842C416.176 114.053 416.348 115.101 416.693 115.986C417.038 116.872 417.566 117.555 418.275 118.037C418.992 118.519 419.9 118.76 421 118.76C422.107 118.76 423.012 118.519 423.715 118.037C424.424 117.555 424.949 116.872 425.287 115.986C425.626 115.101 425.795 114.053 425.795 112.842C425.795 110.999 425.408 109.561 424.633 108.525C423.865 107.484 422.663 106.963 421.029 106.963C419.923 106.963 419.011 107.201 418.295 107.676C417.579 108.151 417.045 108.828 416.693 109.707C416.348 110.579 416.176 111.624 416.176 112.842ZM436.83 112.52H441.82V119.443C441.072 119.697 440.3 119.886 439.506 120.01C438.718 120.133 437.836 120.195 436.859 120.195C435.375 120.195 434.122 119.899 433.1 119.307C432.084 118.714 431.312 117.871 430.785 116.777C430.258 115.677 429.994 114.372 429.994 112.861C429.994 111.383 430.284 110.094 430.863 108.994C431.449 107.894 432.292 107.041 433.393 106.436C434.499 105.824 435.827 105.518 437.377 105.518C438.171 105.518 438.923 105.592 439.633 105.742C440.349 105.885 441.013 106.09 441.625 106.357L440.99 107.803C440.463 107.575 439.88 107.38 439.242 107.217C438.611 107.054 437.956 106.973 437.279 106.973C436.114 106.973 435.115 107.214 434.281 107.695C433.454 108.177 432.82 108.857 432.377 109.736C431.941 110.615 431.723 111.657 431.723 112.861C431.723 114.053 431.915 115.091 432.299 115.977C432.683 116.855 433.282 117.539 434.096 118.027C434.91 118.516 435.958 118.76 437.24 118.76C437.885 118.76 438.438 118.724 438.9 118.652C439.363 118.574 439.783 118.483 440.16 118.379V114.004H436.83V112.52ZM454.232 120L452.475 115.469H446.752L445.004 120H443.324L448.91 105.664H450.404L455.951 120H454.232ZM451.977 113.994L450.307 109.492C450.268 109.375 450.202 109.183 450.111 108.916C450.027 108.649 449.939 108.372 449.848 108.086C449.757 107.799 449.682 107.568 449.623 107.393C449.558 107.66 449.486 107.926 449.408 108.193C449.337 108.454 449.265 108.698 449.193 108.926C449.122 109.147 449.06 109.336 449.008 109.492L447.309 113.994H451.977Z" fill="#805515"/>
</svg>
