<svg width="38" height="26" viewBox="0 0 38 26" fill="none" xmlns="http://www.w3.org/2000/svg">
<path d="M35.7708 10.9167H2.22917C1.1361 10.9167 0.25 11.8029 0.25 12.8959V13.1042C0.25 14.1973 1.1361 15.0834 2.22917 15.0834H35.7708C36.8639 15.0834 37.75 14.1973 37.75 13.1042V12.8959C37.75 11.8029 36.8639 10.9167 35.7708 10.9167Z" fill="#023A4F"/>
<path d="M35.7708 21.3333H2.22917C1.1361 21.3333 0.25 22.2194 0.25 23.3124V23.5208C0.25 24.6138 1.1361 25.4999 2.22917 25.4999H35.7708C36.8639 25.4999 37.75 24.6138 37.75 23.5208V23.3124C37.75 22.2194 36.8639 21.3333 35.7708 21.3333Z" fill="#023A4F"/>
<path d="M35.7708 0.5H2.22917C1.1361 0.5 0.25 1.3861 0.25 2.47917V2.6875C0.25 3.78056 1.1361 4.66667 2.22917 4.66667H35.7708C36.8639 4.66667 37.75 3.78056 37.75 2.6875V2.47917C37.75 1.3861 36.8639 0.5 35.7708 0.5Z" fill="#023A4F"/>
</svg>
