<svg width="96" height="96" viewBox="0 0 96 96" fill="none" xmlns="http://www.w3.org/2000/svg">
<g opacity="0.25">
<path d="M66.825 51.45C71.85 46.425 74.625 39.7313 74.625 32.625C74.625 25.5094 71.8594 18.825 66.825 13.8C61.8 8.775 55.1063 6 48 6C40.8937 6 34.2 8.76562 29.175 13.8C24.15 18.8344 21.375 25.5094 21.375 32.625C21.375 38.6063 23.3344 44.2875 26.9437 48.9281C27.6281 49.8094 28.3688 50.6437 29.1656 51.45C29.9625 52.2469 30.8062 52.9875 31.6781 53.6719C35.3906 56.5594 39.7687 58.3969 44.4375 59.0156V69H33.75C33.3375 69 33 69.3375 33 69.75V75.375C33 75.7875 33.3375 76.125 33.75 76.125H44.4375V89.25C44.4375 89.6625 44.775 90 45.1875 90H50.8125C51.225 90 51.5625 89.6625 51.5625 89.25V76.125H62.25C62.6625 76.125 63 75.7875 63 75.375V69.75C63 69.3375 62.6625 69 62.25 69H51.5625V59.0156C57.3281 58.2469 62.6437 55.6312 66.825 51.45ZM48 52.125C42.7875 52.125 37.9031 50.1 34.2094 46.4156C30.525 42.7313 28.5 37.8375 28.5 32.625C28.5 27.4125 30.525 22.5281 34.2094 18.8344C37.8937 15.1406 42.7875 13.125 48 13.125C53.2125 13.125 58.0969 15.15 61.7906 18.8344C65.475 22.5187 67.5 27.4125 67.5 32.625C67.5 37.8375 65.475 42.7219 61.7906 46.4156C58.0969 50.1 53.2125 52.125 48 52.125Z" fill="#0F87B4"/>
</g>
</svg>
