<svg width="70" height="70" viewBox="0 0 70 70" fill="none" xmlns="http://www.w3.org/2000/svg">
<g opacity="0.25" clip-path="url(#clip0_3_151)">
<path d="M17.3932 14.4893L26.3408 50.3193C24.2327 49.9117 21.813 50.1741 19.4981 51.2193C14.5063 53.4717 11.9002 58.4901 13.6771 62.427C15.4542 66.3641 20.9411 67.7292 25.9327 65.4767C30.3627 63.4774 32.9094 59.3007 32.1844 55.6345L32.186 55.6363C32.1843 55.6279 32.1813 55.6157 32.1793 55.6063C32.1606 55.5133 32.1383 55.42 32.115 55.3276C31.235 51.5804 24.2641 23.2005 24.2641 23.2005L52.6213 11.6819L58.6479 37.3146C56.4681 36.8163 53.9214 37.0528 51.4906 38.1499C46.499 40.403 43.8929 45.4205 45.67 49.3579C47.4467 53.2948 52.9338 54.6603 57.9253 52.4069C62.4498 50.3659 65.0085 46.0533 64.1258 42.332L64.1273 42.3291C63.7467 40.6521 54.3216 2.11399 53.9885 0.752122L17.3932 14.4893Z" fill="#0F87B4"/>
</g>
<defs>
<clipPath id="clip0_3_151">
<rect width="56" height="56" fill="white" transform="translate(0 15.6464) rotate(-16.2243)"/>
</clipPath>
</defs>
</svg>
