<svg width="98" height="97" viewBox="0 0 98 97" fill="none" xmlns="http://www.w3.org/2000/svg">
<g opacity="0.25" clip-path="url(#clip0_3_144)">
<path d="M65.9311 73.2383C66.3893 69.526 64.599 66.6427 62.872 63.8566C61.3696 61.4313 59.9512 59.1403 59.745 56.1864C59.1915 48.0132 59.0576 43.1805 53.0029 40.1805C46.9482 37.1806 43.0151 39.9998 36.1694 44.5037C33.6905 46.1333 30.9972 46.3903 28.1536 46.6653C24.8901 46.9803 21.5184 47.3013 18.8418 49.9065C17.8448 50.8302 17.0279 51.931 16.4329 53.1529C13.8893 58.2865 15.9085 64.4896 20.4385 66.7341C24.9685 68.9787 32.0682 69.651 37.1653 72.1765C42.2623 74.702 47.015 79.9022 51.6017 82.1748C56.1884 84.4474 62.2765 82.2613 64.82 77.1277C65.4274 75.911 65.8041 74.5922 65.9311 73.2383Z" fill="#0F87B4"/>
<path d="M23.8161 40.7857C27.7133 42.7167 32.8852 40.2201 35.3679 35.2094C37.8506 30.1988 36.7039 24.5715 32.8067 22.6405C28.9095 20.7095 23.7376 23.2061 21.255 28.2168C18.7723 33.2274 19.919 38.8547 23.8161 40.7857Z" fill="#0F87B4"/>
<path d="M43.9228 35.6815C47.82 37.6125 52.9919 35.1159 55.4746 30.1052C57.9573 25.0946 56.8106 19.4673 52.9134 17.5363C49.0162 15.6053 43.8443 18.1019 41.3617 23.1126C38.879 28.1232 40.0257 33.7505 43.9228 35.6815Z" fill="#0F87B4"/>
<path d="M62.0679 44.6721C65.965 46.6031 71.1369 44.1065 73.6196 39.0958C76.1023 34.0852 74.9556 28.4579 71.0584 26.5269C67.1612 24.5959 61.9893 27.0925 59.5067 32.1032C57.024 37.1138 58.1707 42.7411 62.0679 44.6721Z" fill="#0F87B4"/>
<path d="M70.1872 63.7615C74.0844 65.6925 79.2563 63.1959 81.739 58.1852C84.2217 53.1746 83.075 47.5473 79.1778 45.6163C75.2806 43.6854 70.1087 46.1819 67.6261 51.1926C65.1434 56.2032 66.2901 61.8305 70.1872 63.7615Z" fill="#0F87B4"/>
</g>
<defs>
<clipPath id="clip0_3_144">
<rect width="72.0014" height="72.0014" fill="white" transform="translate(32.7246) rotate(26.3574)"/>
</clipPath>
</defs>
</svg>
