<svg width="39" height="39" viewBox="0 0 39 39" fill="none" xmlns="http://www.w3.org/2000/svg">
<g clip-path="url(#clip0_3_192)">
<path d="M34.8043 29.1205C34.1984 29.875 34.6984 31.1287 35.666 31.1287C36.2457 31.1287 36.7155 31.5985 36.7155 32.1782V32.725C36.7155 33.6066 36.0008 34.3213 35.1192 34.3213H29.1375C28.033 34.3213 27.1375 33.4259 27.1375 32.3213V26.3397C27.1375 25.4581 27.8522 24.7433 28.7339 24.7433H28.918C29.6979 24.7433 30.3302 25.3756 30.3302 26.1555C30.3302 27.341 31.6657 27.9444 32.3987 27.0128C34.1035 24.8461 35.1192 22.1227 35.1192 19.1562C35.1192 13.1535 30.9496 8.10473 25.3548 6.7542C24.559 6.56209 23.9449 5.88267 23.9449 5.06395C23.9449 4.10459 24.7765 3.34783 25.7145 3.54895C32.9104 5.09177 38.3119 11.4881 38.3119 19.1562C38.3119 22.9286 36.9956 26.392 34.8043 29.1205ZM9.57791 19.1562C9.57791 16.1899 10.5934 13.458 12.298 11.2933C13.0322 10.3609 14.3669 10.9661 14.3669 12.1528C14.3669 12.9349 15.001 13.569 15.7832 13.569H15.9632C16.8449 13.569 17.5596 12.8543 17.5596 11.9727V5.99106C17.5596 4.88649 16.6641 3.99105 15.5596 3.99105H9.57792C8.69629 3.99105 7.98158 4.70575 7.98158 5.58738V6.13422C7.98158 6.71384 8.45146 7.18371 9.03108 7.18371C9.99874 7.18371 10.4987 8.43736 9.89279 9.19185C7.70155 11.9204 6.38525 15.3837 6.38525 19.1562C6.38525 26.8243 11.7867 33.2206 18.9826 34.7634C19.9206 34.9646 20.7522 34.2078 20.7522 33.2484C20.7522 32.4297 20.1382 31.7503 19.3423 31.5582C13.7475 30.2077 9.57791 25.1588 9.57791 19.1562ZM30.2424 14.0719C29.6209 13.4503 28.6131 13.4503 27.9916 14.0719L21.496 20.5675C20.7149 21.3485 19.4486 21.3485 18.6676 20.5675L16.6896 18.5895C16.068 17.9679 15.0603 17.9679 14.4387 18.5895C13.8172 19.211 13.8172 20.2188 14.4387 20.8403L18.6676 25.0691C19.4486 25.8502 20.7149 25.8502 21.496 25.0691L30.2424 16.3227C30.864 15.7012 30.864 14.6934 30.2424 14.0719Z" fill="#332200"/>
</g>
<defs>
<clipPath id="clip0_3_192">
<rect y="0.00012207" width="38.3119" height="38.3119" fill="white"/>
</clipPath>
</defs>
</svg>
