<svg width="40" height="38" viewBox="0 0 40 38" fill="none" xmlns="http://www.w3.org/2000/svg">
<g clip-path="url(#clip0_3_57)">
<path d="M18.4609 26.0363L18.1233 34.2348L18.0785 34.7257L8.62248 34.0797C8.05377 34.0218 7.52179 33.7745 7.11368 33.3782C6.6685 32.9774 6.3122 32.4894 6.06728 31.9453L6.05608 31.9184C5.89443 31.534 5.78572 31.1298 5.73288 30.7167L5.72968 30.6929C5.68067 30.1981 5.71309 29.6986 5.82568 29.2141L5.81928 29.2442C5.93235 28.6942 6.02035 28.2857 6.08328 28.0187C6.24648 27.436 6.41128 26.9626 6.60168 26.5002L6.56808 26.5937C6.82302 25.9107 6.96542 25.5186 6.99528 25.4172C8.16755 25.5935 11.9883 25.8004 18.4577 26.0379L18.4609 26.0363ZM9.74568 12.9817L13.7985 21.4257L10.4897 19.3768C9.61174 20.3617 8.79733 21.4003 8.05128 22.4865L7.98088 22.5957C7.41768 23.3922 6.87368 24.3057 6.40328 25.2589L6.34888 25.3808C5.98835 26.1651 5.69235 26.8671 5.46088 27.4867C5.28107 27.9244 5.14444 28.3783 5.05288 28.842L5.04488 28.8911L4.95528 29.3582L0.678483 21.4051C0.428085 21.0361 0.287793 20.6048 0.273683 20.1606V20.1558C0.244121 19.7955 0.29099 19.4331 0.411283 19.0918L0.406483 19.1108L0.585683 18.7102C1.11368 17.775 1.96915 16.3812 3.15208 14.5287L0.00488281 12.6049L9.74568 12.9817ZM37.4577 24.5005L33.2321 32.4979C33.0638 32.9108 32.7816 33.2685 32.4177 33.5302L32.4113 33.535C32.1286 33.7555 31.7994 33.9103 31.4481 33.9878L31.4321 33.991L31.0273 34.0797C29.9617 34.1831 28.3185 34.2702 26.0977 34.3409L26.2769 38L21.0993 29.8237L25.8529 21.7582L26.0097 25.612C28.1644 25.8455 30.3364 25.8805 32.4977 25.7165L32.3793 25.7244C33.7206 25.6398 35.0449 25.3816 36.3185 24.9565L36.2097 24.9882L37.4577 24.5005ZM19.7905 3.914C19.0865 4.84922 17.0977 8.07975 13.8241 13.6056L6.69288 9.43983L6.26568 9.17858L11.3313 1.24766C11.6513 0.775829 12.1153 0.422746 12.6609 0.246996L12.6785 0.242246C13.26 0.0325478 13.8823 -0.0427335 14.4977 0.0221624L14.4801 0.0205791C14.8817 0.0554124 15.2529 0.148829 15.5969 0.291329L15.5729 0.281829C15.9361 0.427496 16.2433 0.585829 16.5345 0.766329L16.5089 0.752079C16.8577 0.983246 17.1633 1.2255 17.4449 1.48991L17.4417 1.48675C17.8022 1.81397 18.0726 2.06994 18.2529 2.25466C18.4331 2.43938 18.7035 2.7323 19.0641 3.13341C19.4278 3.53452 19.67 3.79472 19.7905 3.914ZM34.5361 10.7524L39.3089 18.8401C39.5806 19.3688 39.6785 19.9683 39.5889 20.5548L39.5905 20.539C39.5044 21.1325 39.2899 21.7006 38.9617 22.2047L38.9713 22.1888C38.7661 22.4955 38.5177 22.7717 38.2337 23.009L38.2273 23.0137C37.9674 23.2362 37.6908 23.4389 37.4001 23.6202L37.3713 23.636C37.0609 23.8181 36.6993 23.9827 36.3217 24.1126L36.2785 24.1252C35.8209 24.2889 35.4689 24.4076 35.2225 24.4815C34.9761 24.5554 34.5894 24.6594 34.0625 24.7934L33.0273 25.0547C32.5163 23.9854 30.5275 20.7475 27.0609 15.3409L34.1073 10.9962L34.5361 10.7524ZM31.3169 5.71741L34.5137 3.86808L29.5617 12.179L20.1265 11.7341L23.5265 9.81825C23.0228 8.49117 22.4301 7.19892 21.7521 5.95016L21.8385 6.12433C21.3286 5.14353 20.7451 4.20197 20.0929 3.30758L20.1377 3.3725C19.6203 2.68111 19.1361 2.08683 18.6849 1.58966C18.3657 1.22041 18.0168 0.877292 17.6417 0.563662L17.6289 0.552579L17.2465 0.262829L26.3585 0.284996C26.8128 0.236638 27.2714 0.320266 27.6785 0.525662L27.6657 0.519329C28.0129 0.674496 28.3057 0.889829 28.5457 1.15425L28.5473 1.15741L28.7953 1.4915C29.3809 2.39294 30.2214 3.80158 31.3169 5.71741Z" fill="#E4A30B"/>
</g>
<defs>
<clipPath id="clip0_3_57">
<rect width="40" height="38" fill="white"/>
</clipPath>
</defs>
</svg>
