<svg width="34" height="34" viewBox="0 0 34 34" fill="none" xmlns="http://www.w3.org/2000/svg">
<path d="M31.28 7.96994C26.24 0.199938 15.95 -2.11006 7.97003 2.71994C0.200025 7.54994 -2.31997 18.0499 2.72003 25.8199L3.14003 26.4499L1.46003 32.7499L7.76003 31.0699L8.39003 31.4899C11.12 32.9599 14.06 33.7999 17 33.7999C20.15 33.7999 23.3 32.9599 26.03 31.2799C33.8 26.2399 36.11 15.9499 31.28 7.96994ZM26.87 24.1399C26.03 25.3999 24.98 26.2399 23.51 26.4499C22.67 26.4499 21.62 26.8699 17.42 25.1899C13.85 23.5099 10.91 20.7799 8.81003 17.6299C7.55003 16.1599 6.92003 14.2699 6.71003 12.3799C6.71003 10.6999 7.34003 9.22994 8.39003 8.17994C8.81003 7.75994 9.23003 7.54994 9.65003 7.54994H10.7C11.12 7.54994 11.54 7.54994 11.75 8.38994C12.17 9.43994 13.22 11.9599 13.22 12.1699C13.43 12.3799 13.43 12.7999 13.22 13.0099C13.43 13.4299 13.22 13.8499 13.01 14.0599C12.8 14.2699 12.59 14.6899 12.38 14.8999C11.96 15.1099 11.75 15.5299 11.96 15.9499C12.8 17.2099 13.85 18.4699 14.9 19.5199C16.16 20.5699 17.42 21.4099 18.89 22.0399C19.31 22.2499 19.73 22.2499 19.94 21.8299C20.15 21.4099 21.2 20.3599 21.62 19.9399C22.04 19.5199 22.25 19.5199 22.67 19.7299L26.03 21.4099C26.45 21.6199 26.87 21.8299 27.08 22.0399C27.29 22.6699 27.29 23.5099 26.87 24.1399Z" fill="#332200"/>
</svg>
